<svg xmlns="http://www.w3.org/2000/svg" width="663" height="523.283" viewBox="0 0 663 523.283">
  <g id="Groupe_280" data-name="Groupe 280" transform="translate(-446.35 -309.605)">
    <g id="Groupe_268" data-name="Groupe 268" transform="translate(446.35 483.703)">
      <path id="Tracé_181" data-name="Tracé 181" d="M497.345,438.415a9.147,9.147,0,1,1,1.079-7.724A9.121,9.121,0,0,1,497.345,438.415Z" transform="translate(-394.575 -338.225)" fill="#f4f5f8"/>
      <path id="Tracé_182" data-name="Tracé 182" d="M487.588,424.2l.02-.02h0l1.183-1.326,2.662-2.981h0l-1.37,5.632v0h-.005l-3.693,4.007Z" transform="translate(-385.732 -344.863)" fill="#f4f5f8"/>
      <path id="Tracé_183" data-name="Tracé 183" d="M508.627,407.038l4.8-1.5,2.728,8.759-9.669-2.21-.3,6.285,12.088,2.73,1.637,5.26-13.976-3.2-.2,5.463-5.013-2.165-3.123,13.991-4.043-3.739,2.73-12.088-5.8-2.436-2.167,9.679-6.225-5.762,3.869-4.088-15.432-2.529,3.384,15.271,3.882-4.106,6.283,5.8-9.478,2.926,2.881,5.586,11.834-3.676,4.045,3.731-13.7,4.224,2.557,4.827-5.426.629,4.294,13.679-5.37-1.217-3.678-11.834-6.238.795,2.964,9.468-9.1-2.064,1.169-5.466-14.5,5.868,10.833,11.281,1.189-5.569,9.021,2.034-6.743,7.271,5.287,3.4,8.412-9.1,5.373,1.212-9.757,10.5,4.634,2.9-4.39,3.261,10.562,9.7-5.262,1.627-9.1-8.407-5.008,3.806,7.3,6.718-8.767,2.72-1.858-5.971-9.762,12.216,14.969,4.533-1.493-4.807,8.757-2.73-2.2,9.667,6.28.3,2.733-12.09,5.257-1.634-3.2,13.974,5.463.2-2.167,5.013,13.991,3.12-3.739,4.045-12.088-2.735-2.431,5.805,9.679,2.165-6.064,6.554-3.515-3.324-2.532,15.429,15.271-3.379L486.6,549.2l6.1-6.607,2.924,9.481,5.589-2.886-3.678-11.831,3.736-4.05,4.214,13.7,4.837-2.562.626,5.426,13.679-4.292-1.214,5.368-11.837,3.683.794,6.235,9.466-2.962-2.062,9.1-5.468-1.169,5.868,14.5L531.458,569.5l-5.566-1.184,2.029-9.026,7.276,6.748,3.4-5.29-9.1-8.41,1.209-5.373,10.5,9.757,2.9-4.631,3.256,4.385,9.7-10.562,1.634,5.265-8.41,9.1,3.8,5.008,6.718-7.3,2.72,8.769-5.121,1.591,12.216,9.765,4.528-14.972L569.5,564.9l-2.73-8.757,9.669,2.2.3-6.285-12.09-2.73-1.634-5.255,13.976,3.2.2-5.466,5.013,2.165,3.118-13.989,4.045,3.736-2.733,12.09,5.8,2.436,2.165-9.684,6.557,6.064-3.324,3.517,15.427,2.527L609.881,535.4l-4.43,4.684-6.61-6.1,9.483-2.926-2.889-5.589-11.829,3.678-4.05-3.733,13.7-4.216-2.564-4.832,5.428-.629-4.294-13.682,5.373,1.219,3.678,11.834,6.237-.792-2.962-9.471,9.2,2.087-1.207,5.657,14.494-5.873L625.815,495.44l-1.149,5.375-9.129-2.052,6.745-7.278L617,488.094l-8.412,9.1-5.373-1.209,9.757-10.506-4.631-2.9,4.387-3.258-10.559-9.7,5.26-1.629,9.1,8.4,5-3.8-7.3-6.718,8.764-2.72,1.591,5.121,9.767-12.216-14.972-4.528,1.757,5.652-8.754,2.73,2.2-9.669-6.28-.3-2.735,12.09-5.255,1.639,3.2-13.976-5.463-.2,2.17-5.008-13.991-3.123,3.734-4.045,12.088,2.733,2.436-5.8-9.679-2.167,5.757-6.225,4.093,3.869,2.524-15.439-15.266,3.384,4.106,3.884-5.8,6.285-2.926-9.478-5.589,2.884,3.678,11.834-3.736,4.045-4.214-13.7-4.832,2.554-.629-5.423-13.679,4.292,1.217-5.365,11.834-3.683-.789-6.232-9.468,2.957,2.082-9.2,5.657,1.207-5.868-14.494-11.283,10.826,5.378,1.154-2.054,9.129L547.74,404.4l-3.4,5.287,9.1,8.412-1.212,5.373-10.5-9.757-2.9,4.631-3.261-4.387-9.7,10.564-1.632-5.265,8.412-9.1-3.809-5.008-6.715,7.3-2.72-8.769,5.974-1.858-12.219-9.765Zm42.044,23.376-.581,2.559-7.826-10.2-3.125,3.379-3.391-3.128-7,10.793-.774-2.5,10.9-11.9Zm-44.321,26.577,6.733,6.21-10.766,1.415.005.015-.008.005,4.935,9.662-8.938-2.021-6.8-13.332Zm-9.408,21.335,8.938,2.019-8.616,6.61.01.005-.005.01,9.109,5.906-8.757,2.715-12.553-8.146Zm2.524,23.193,8.744-2.725-4.156,10.031h.015l-.008.005,10.846.563-6.225,6.728-14.949-.774Zm77.121,11.927-6.735-6.212,10.763-1.418-.005-.01h.01l-4.935-9.669,8.943,2.024,6.8,13.33ZM586,492.1l-8.943-2.011,8.618-6.61-.015-.005,0-.01-9.1-5.908,8.754-2.715,12.556,8.146Zm-2.524-23.185-8.747,2.725,4.156-10.026-.015-.005.005,0-10.844-.566,6.223-6.728,14.951.777Zm-52.379-27.542,8.146-12.561,9.114,11.872-2.014,8.938-6.61-8.608-.005.005h-.005l-5.911,9.1Zm36.646-6.114,1.953,14.836-6.21,6.735-1.421-10.763-.01.005v-.01L552.385,451l2.021-8.943Zm-9.051,41.38-1.958.6,1.169-1.222,2.839-2.972h0l-5.486,1.8,7.4-8,7.316.377L567.158,474Zm-.126,6.491h0l.023.005L569,479.908l6.137,3.982-5.808,4.458-6.373-1.433-4.282-.968,5.566-1.629h0l-5.652-1.179h0l-.023-.005-5.212,1.622,5.315,1.192-1.73.505-4.354,1.277,4.729,4.229-5.32-1.2,4,3.693.01.005h0l5.632,1.37v0l-4.3-3.849,10.627,2.411,3.329,6.519-7.263.958-5.642-5.209-2.381-2.2-.005-.005h-.005l-6.157-1.5,1.237,3.754.747,2.278h0l.005.02,8,7.4-.375,7.316-6.766-2.808-1.622-5.2-1.624-5.219,4.194,4.005v0L551.825,499h0l-.005-.02-4.007-3.7,1.622,5.2-4.583-4.382h0l-1.3,6.212-1.619-5.2-1.2,5.312h0l0,.005,1.632,5.564,0-.005,0,.005,1.179-5.647,3.226,10.4-3.98,6.145-4.46-5.815,2.029-9.006.375-1.644h0v-.005l-1.778-6.084-4.234,4.729,1.2-5.317-3.691,4,1.5-6.16h0l-5.958,1.961-.068.023h0l-.025,0-7.4,8.005-7.311-.377,2.806-6.768,5.207-1.624,5.219-1.622-.855.9-3.15,3.3,5.486-1.808h0l.025,0,3.7-4-5.2,1.614.312-.324,4.07-4.261-6.21-1.3,5.2-1.614-5.312-1.2h-.007L518.7,486.12h.005l-.008.005,5.652,1.177-10.406,3.228-6.144-3.982,5.813-4.46,7.155,1.612,3.5.789h.007l6.084-1.782h0l-4.732-4.226h0l-.02-.015-10.625-2.406-3.334-6.527,7.263-.958,6.557,6.054,1.468,1.355-5.637-1.37h0l4.307,3.852,0-.005.018.02,5.317,1.2-4-3.693,6.157,1.5h0l-1.981-6.024,4,3.7-1.619-5.2,0-.005h0l-4.2-4.008.005.005H529.3l1.8,5.481-8-7.4.375-7.311,6.768,2.806,2.783,8.94.465,1.488h0v.005l4.586,4.38v-.005h0l1.3-6.212h0l0-.018-3.231-10.411,3.987-6.147,4.455,5.818-1.069,4.749-1.332,5.9-1.632-5.559h0l-1.179,5.652h0l0,.018L541,473.333l1.2-5.315.933,3.183.85,2.9h0l4.226-4.729h0l.02-.018,2.406-10.632,6.522-3.329.953,7.258-5.981,6.486-1.423,1.541-.005,0h0l-1.5,6.162,6.029-1.984-3.7,4.007,5.2-1.622-4.38,4.588Zm-28.457,18.921,2.132-2.3-1.373,5.637,3.847-4.3-2.406,10.625-6.524,3.331-.953-7.258ZM572.37,518l-.772,14.949-13.838-5.727-2.72-8.744,10.031,4.148v-.01l.005.005.566-10.841Zm-20.53,11.065-8.148,12.555-9.111-11.874,2.016-8.938,6.61,8.608.005-.01.005.005,5.908-9.1Zm-36.646,6.107-1.953-14.838,6.21-6.733,1.418,10.765.013-.005,0,.005,9.669-4.93-2.024,8.935Zm-4.633-82.74.777-14.946,13.83,5.725,2.723,8.752L517.862,447.8v.015l-.008-.005-.563,10.843Zm66.277-10.077-1.777,1.926-1.679-12.742-4.4,1.365-1.365-4.4-11.454,5.843.578-2.554,15.379-4.85Zm16.691,23.429-2.5.779,4.92-11.877-4.493-1.018,1.016-4.5-12.845-.666,1.778-1.921,15.746,3.487Zm2.74,28.636-2.559-.578,10.2-7.826-3.389-3.13,3.133-3.386-10.793-7,2.5-.777,11.9,10.9Zm3.475,21.445-15.417,4.724-1.926-1.783,12.742-1.674-1.365-4.4,4.4-1.37L592.34,499.9l2.554.583ZM560.9,537.285l-.779-2.514L572,539.7l1.013-4.493,4.5,1.016.666-12.845,1.921,1.777L576.612,540.9Zm-28.636,2.735.578-2.557,7.829,10.2,3.128-3.389,3.387,3.135,7-10.793.777,2.5-10.891,11.9Zm-26.169-11.942,1.782-1.928,1.679,12.752,4.4-1.37,1.368,4.4,11.457-5.848-.578,2.557L510.817,543.5ZM489.4,504.652l2.5-.782-4.92,11.879,4.5,1.016-1.018,4.5,12.847.664-1.78,1.918-15.749-3.484Zm-2.743-28.638,2.562.581-10.2,7.827,3.384,3.123-3.135,3.394,10.793,7-2.5.774-11.894-10.9Zm-3.472-21.443,15.417-4.724,1.931,1.782L487.785,453.3l1.368,4.4-4.4,1.37,5.843,11.454-2.552-.578Zm38.846-21.415.777,2.5-11.874-4.92-1.018,4.493-4.5-1.016-.664,12.845-1.923-1.777,3.49-15.746Z" transform="translate(-446.35 -390.038)" fill="#f4f5f8"/>
    </g>
    <g id="Groupe_269" data-name="Groupe 269" transform="translate(636.646 309.605)">
      <path id="Tracé_184" data-name="Tracé 184" d="M552.977,376.52l-5.051-2.906.023,16.027-21.375,12.4,5.078,8.759,16.322-9.466.015,9.747-12.1,7.022,5.079,8.759,7.047-4.085.033,18.552,10.132-.02-.04-18.557,7.067,4.068,5.046-8.787-12.133-6.977-.02-9.742,16.362,9.4,5.048-8.779-21.428-12.314-.03-16.048Zm7.759,41.546L553.591,428.4l-6.937-10.471Z" transform="translate(-471.555 -259.433)" fill="#f4f5f8"/>
      <rect id="Rectangle_19" data-name="Rectangle 19" width="11.535" height="10.125" transform="translate(88.334 68.822) rotate(-60.09)" fill="#f4f5f8"/>
      <path id="Tracé_185" data-name="Tracé 185" d="M563.326,375.65l-.01-5.81-13.833,8.028-21.425-12.319-5.046,8.779,16.354,9.4-8.43,4.89L518.8,381.643l-5.048,8.779,7.065,4.06-16.05,9.307,5.076,8.764,16.058-9.3.01,8.146,10.124-.02-.025-13.994,8.437-4.887.035,18.866,10.124-.02-.05-24.719,13.873-8.038Zm-39.683,14.916,7.205,12.1-12.543-.727Z" transform="translate(-504.569 -271.593)" fill="#f4f5f8"/>
      <path id="Tracé_186" data-name="Tracé 186" d="M549.131,375.7l-5.076,2.949,13.9,7.99.05,24.719,10.124-.02-.035-18.866,8.453,4.855.023,14,10.132-.02-.015-8.146,16.08,9.242,5.048-8.782-16.08-9.239,7.045-4.091-5.081-8.762-12.105,7.022-8.45-4.86,16.322-9.461-5.076-8.767L563,377.86l-13.883-7.98Zm39.721,14.459,5.506,11.288-12.528.923Z" transform="translate(-445.087 -271.726)" fill="#f4f5f8"/>
      <path id="Tracé_187" data-name="Tracé 187" d="M549.086,381.337l.01,5.883,13.85-8.033,21.435,12.319,5.043-8.779-16.357-9.4,8.43-4.892,12.135,6.974,5.046-8.777-7.06-4.06,16.09-9.335-5.076-8.764-16.1,9.335-.015-8.146-10.124.018.02,13.991-8.432,4.89-.033-18.866-10.127.02.045,24.714-13.818,8.015Zm39.841-14.823-7.213-12.106,12.543.732Z" transform="translate(-445.09 -303.507)" fill="#f4f5f8"/>
      <path id="Tracé_188" data-name="Tracé 188" d="M557.63,362.345l.02,10.125-11.569,0-.02-10.125Z" transform="translate(-442.05 -276.443)" fill="#f4f5f8"/>
      <path id="Tracé_189" data-name="Tracé 189" d="M561.512,366.137l-15.276-8.784-15.248,8.837.035,17.624L546.3,392.6l15.253-8.842Zm-6.929,4.013.015,9.609-8.314,4.827-8.342-4.792-.015-9.622,8.319-4.817Z" transform="translate(-464.872 -284.001)" fill="#f4f5f8"/>
      <path id="Tracé_190" data-name="Tracé 190" d="M523.475,372.486l-.02-10.13,11.544,0,.024,10.13Z" transform="translate(-476.277 -276.434)" fill="#f4f5f8"/>
      <path id="Tracé_191" data-name="Tracé 191" d="M557.993,346.787l-.035-18.61-10.129.02.033,18.6-7.065-4.06-5.043,8.779,12.133,6.974.015,9.747-16.357-9.405-5.049,8.779,21.431,12.322.028,15.962L553,392.973l5.079,2.924-.03-15.98,21.385-12.395-5.083-8.764-16.322,9.463-.02-9.742,12.11-7.022-5.084-8.762Zm1.974,5.146-14.084-.141,7.145-10.328Z" transform="translate(-471.673 -328.177)" fill="#f4f5f8"/>
      <path id="Tracé_192" data-name="Tracé 192" d="M554.378,381.171l-8.76,5.082-5.8-10.037,8.76-5.077Z" transform="translate(-451.501 -263.127)" fill="#f4f5f8"/>
      <path id="Tracé_193" data-name="Tracé 193" d="M528.514,356.656l8.76-5.082,5.77,9.978-8.76,5.082Z" transform="translate(-468.618 -292.752)" fill="#f4f5f8"/>
      <path id="Tracé_194" data-name="Tracé 194" d="M563.4,381.249l5.038-2.921-13.843-7.955-.038-24.714-10.137.02.04,18.866-8.45-4.857-.025-13.994-10.13.015.013,8.151-16.13-9.277-5.046,8.784,16.13,9.272-7.047,4.085,5.081,8.764,12.105-7.022,8.45,4.857-16.327,9.468,5.086,8.759,21.375-12.4,13.863,7.965Zm-39.361-15.08-5.511-11.283,12.528-.928Z" transform="translate(-504.69 -303.336)" fill="#f4f5f8"/>
      <rect id="Rectangle_20" data-name="Rectangle 20" width="11.583" height="10.13" transform="matrix(0.498, -0.867, 0.867, 0.498, 59.914, 118.081)" fill="#f4f5f8"/>
      <path id="Tracé_195" data-name="Tracé 195" d="M539.059,355.112l1.92,1.1-1.91,3.315Z" transform="translate(-452.652 -287.393)" fill="#f4f5f8"/>
      <path id="Tracé_196" data-name="Tracé 196" d="M544.432,357.558l1.856,1.065-3.712,2.146Z" transform="translate(-447.325 -283.691)" fill="#f4f5f8"/>
      <path id="Tracé_197" data-name="Tracé 197" d="M548.339,361.474l0,2.2h-3.791Z" transform="translate(-444.333 -277.762)" fill="#f4f5f8"/>
      <path id="Tracé_198" data-name="Tracé 198" d="M548.28,366.374l.005,2.121-3.678-2.116Z" transform="translate(-444.25 -270.342)" fill="#f4f5f8"/>
      <path id="Tracé_199" data-name="Tracé 199" d="M528.057,368.586v-2.2l3.806-.01Z" transform="translate(-469.31 -270.339)" fill="#f4f5f8"/>
      <path id="Tracé_200" data-name="Tracé 200" d="M528.05,363.637l-.005-2.136,3.707,2.131Z" transform="translate(-469.328 -277.72)" fill="#f4f5f8"/>
      <path id="Tracé_201" data-name="Tracé 201" d="M530.045,358.673l1.92-1.11,1.92,3.314Z" transform="translate(-466.299 -283.682)" fill="#f4f5f8"/>
      <path id="Tracé_202" data-name="Tracé 202" d="M534.293,356.19l1.856-1.076.005,4.3Z" transform="translate(-459.867 -287.39)" fill="#f4f5f8"/>
      <path id="Tracé_203" data-name="Tracé 203" d="M540.918,375.06l-1.822,1.056,0-4.213Z" transform="translate(-452.601 -261.971)" fill="#f4f5f8"/>
      <path id="Tracé_204" data-name="Tracé 204" d="M546.326,372.012l-1.891,1.09-1.881-3.259Z" transform="translate(-447.358 -265.09)" fill="#f4f5f8"/>
      <path id="Tracé_205" data-name="Tracé 205" d="M536.208,376.219l-1.9-1.09,1.885-3.27Z" transform="translate(-459.838 -262.038)" fill="#f4f5f8"/>
      <path id="Tracé_206" data-name="Tracé 206" d="M531.918,373.062l-1.826-1.051,3.658-2.122Z" transform="translate(-466.228 -265.02)" fill="#f4f5f8"/>
    </g>
    <g id="Groupe_270" data-name="Groupe 270" transform="translate(780.585 545.542)">
      <path id="Tracé_207" data-name="Tracé 207" d="M574.831,430.064l.641-8.078,3.06,5.456c.221-.226.443-.448.659-.684l.035-.063a4.465,4.465,0,0,0,.181-3.417l.005-.01L572.3,402.987a4.473,4.473,0,1,1,8.44-2.964l4.774,13.576a5.618,5.618,0,0,0,1.34,1.87c1.82-3.354,3.19-6.353,3.869-7.894a11.07,11.07,0,0,1-3.123-13.481l4.7,2.255a5.865,5.865,0,0,0,10.562,5.1l-15.2-7.4,13.667-2.708,6.215,12.327.025.015-.01.018.025.045-.035-.02a11.067,11.067,0,0,1-12.447,5.946c-.782,1.493-2.268,4.44-3.746,7.962a5.745,5.745,0,0,0,2.4-.153l13.488-4.739A4.479,4.479,0,0,1,610.2,421.2l-20.447,7.173a4.422,4.422,0,0,0-2.4,2.137c-.063.372-.108.742-.148,1.1l6.172-1.021-5.906,5.554-8.458,1.4Z" transform="translate(-509.054 -391.344)" fill="#f4f5f8"/>
      <rect id="Rectangle_21" data-name="Rectangle 21" width="0.003" height="0.287" transform="translate(78.322 44.754)" fill="#f4f5f8"/>
      <rect id="Rectangle_22" data-name="Rectangle 22" width="0.283" height="0.002" transform="translate(62.686 77.568) rotate(-85.105)" fill="#f4f5f8"/>
      <path id="Tracé_208" data-name="Tracé 208" d="M588.687,393.906l-13.921-.608-4.256,13.066-.108.073a11.077,11.077,0,0,0,13.234,4.038c1,1.36,2.911,4.045,4.91,7.3a5.845,5.845,0,0,1-2.3.231l-14.142-2.668a4.479,4.479,0,0,0-1.657,8.8l21.126,3.967,0,.01a4.471,4.471,0,0,1,2.866,1.871l.045.065c.093.3.171.6.256.9l-6.258-.073,6.914,4.752a7.414,7.414,0,0,1-.661,2.982A7.317,7.317,0,0,1,592.833,441L584.8,438.57l3.975,4.837c-.334.148-.684.294-1.038.432a4.5,4.5,0,0,1-3.042-1.011l-16.437-14.117a4.474,4.474,0,0,0-5.828,6.791l10.843,9.31a5.666,5.666,0,0,1,1.33,2c-3.791.475-7.082.656-8.764.727a11.068,11.068,0,0,0-11.291-7.8v-.01l-.005.01h-.126l.013.179-7.439,11.474,9.091,10.263.015.176c.043,0,.083-.01.126-.013l.005,0v0a11.071,11.071,0,0,0,9.979-9.425c1.679-.186,4.96-.5,8.779-.6a5.761,5.761,0,0,1-.953,2.107l-9.373,10.916a4.474,4.474,0,1,0,6.791,5.828l14-16.3h.01a4.458,4.458,0,0,1,3.06-1.546l.073-.005c.309.068.609.146.915.226l-3.2,5.375,7.321-3.482,4.38-7.369-5.446-6.625,14.924,4.493a3.541,3.541,0,0,0-.078,1,3.615,3.615,0,0,0,.568,1.674l-14.092,6.708a7.261,7.261,0,0,1,2.248,2.057,7.351,7.351,0,0,1,1.1,2.844l-6.114,5.75,6.177-1.026c-.043.367-.088.737-.146,1.109a4.5,4.5,0,0,1-2.4,2.137l-20.442,7.173a4.474,4.474,0,1,0,2.964,8.443l13.486-4.734a5.624,5.624,0,0,1,2.4-.148c-1.483,3.517-2.967,6.459-3.746,7.95a11.09,11.09,0,0,0-12.435,5.923l-.136-.065,6.255,12.4,13.664-2.71-15.095-7.346a5.864,5.864,0,0,1,10.549,5.126l4.694,2.255a11.072,11.072,0,0,0-3.118-13.481c.676-1.546,2.047-4.541,3.869-7.9a5.778,5.778,0,0,1,1.35,1.876L603.767,496a4.476,4.476,0,0,0,8.447-2.962l-7.12-20.279.005-.015a4.465,4.465,0,0,1,.191-3.417l.035-.07c.211-.234.43-.455.646-.676l3.06,5.461.644-8.088-4.193-7.474-8.455,1.4,11.653-10.959a3.635,3.635,0,0,0,2.283.877L609.7,465.672a7.457,7.457,0,0,1,2.906-.92,7.345,7.345,0,0,1,3.009.468l1.926,8.171,2.2-5.858c.294.216.588.443.887.676a4.433,4.433,0,0,1,.644,3.148l-4,21.292a4.476,4.476,0,0,0,8.8,1.654l2.64-14.049a5.73,5.73,0,0,1,1.066-2.15c2.308,3.045,4.115,5.8,5.018,7.223a11.061,11.061,0,0,0-1.046,13.792l.252-.171,13.719.6,4.179-12.835.138-.093-.075-.1.06-.184-.128.091a11.083,11.083,0,0,0-13.086-3.847c-1-1.355-2.911-4.04-4.905-7.3a5.729,5.729,0,0,1,2.3-.231l14.142,2.662a4.474,4.474,0,1,0,1.649-8.794l-21.119-3.972-.01-.015A4.439,4.439,0,0,1,628,463.07l-.048-.07c-.1-.3-.173-.6-.256-.9l6.255.078-6.672-4.6-8.578-.1-3.015,8.023-3.713-15.8a3.685,3.685,0,0,0,2.009-1.277l13.061,8.993a6.65,6.65,0,0,1,2.564-5.348l-15.1-4.553a3.662,3.662,0,0,0,.279-1.674,3.5,3.5,0,0,0-.2-.908l14.235-6.778-4.379,7.371,5.44,6.625,7.764,2.331-3.972-4.835c.339-.148.681-.292,1.036-.422a4.4,4.4,0,0,1,3.045,1.011l16.44,14.112a4.474,4.474,0,1,0,5.828-6.791l-10.846-9.31a5.762,5.762,0,0,1-1.33-2c3.791-.475,7.075-.664,8.759-.732a11.086,11.086,0,0,0,11.427,7.8l-.01-.143-.382-5.058a5.865,5.865,0,0,1-.89-11.7l-.392-5.156,1.664,21.911,7.557-11.7-9.237-10.386.01.136a11.078,11.078,0,0,0-10.114,9.438c-1.674.188-4.955.5-8.772.606a5.756,5.756,0,0,1,.948-2.1l9.38-10.921A4.474,4.474,0,1,0,651,422.422l-14,16.307h-.015a4.452,4.452,0,0,1-3.055,1.546l-.073,0c-.314-.073-.614-.146-.913-.231l3.2-5.38-7.58,3.613a7.563,7.563,0,0,1-2.25-2.062,7.3,7.3,0,0,1-1.1-2.839L614.03,443.89a3.673,3.673,0,0,0-2.484-1.436l1.194-15.065a6.7,6.7,0,0,1-5.918.453l-1.918-8.171-2.2,5.858c-.3-.216-.591-.437-.89-.679a4.472,4.472,0,0,1-.644-3.148l4.008-21.29a4.475,4.475,0,0,0-8.794-1.657l-2.647,14.049a5.614,5.614,0,0,1-1.066,2.152c-2.308-3.04-4.113-5.805-5.018-7.223a11.067,11.067,0,0,0,1.046-13.795l-4.3,2.936a5.863,5.863,0,0,1-9.644,6.67ZM647.6,489.393l-9.629,6.665a5.858,5.858,0,0,1,9.629-6.665ZM561.1,450.341a5.86,5.86,0,0,1-5.27,6.275l-.887-11.681A5.862,5.862,0,0,1,561.1,450.341Zm45.661-22.778,3.525,14.972a3.657,3.657,0,0,0-2.376,1.717l-12.734-8.769,8.571.108Z" transform="translate(-546.988 -388.385)" fill="#f4f5f8"/>
    </g>
    <path id="Tracé_209" data-name="Tracé 209" d="M536.56,453.986,532,455.645l.136,4.847,4.156,3.05-3.555.784.933,4.188L543.9,466.3l1.262,2.823-2.248,1.051,2.18,4.759-7.238-2.884-6.476,2.76-.128,1.752h0l-.073,1.036,6,3.678,7.583-1.8-2.849,4.39,2.067,1.37-1.659,2.61-9.8-3.678-1.539,4,3.4,1.3-4.558,2.411-.84,4.777,4.269,2.308,4.719-2.072-1.1,3.467,4.09,1.287,3.205-9.958,3.075.314-.211,2.469,5.209.5-6.117,4.825-.85,6.989,1.458.986h0l.86.586,6.187-3.364,2.233-7.464,2.379,4.666,2.22-1.106,1.423,2.74-8.078,6.645,2.7,3.334,2.818-2.3-.191,5.146L563,519.775l4.133-2.539.566-5.121,2.454,2.685,3.158-2.9-7.022-7.754,1.813-2.5,2.034,1.418,3.029-4.266,1.124,7.708,5.627,4.229,1.581-.767h0l.938-.45.181-7.037-5.348-5.667,5.232.269.146-2.474,3.09.138,1.712,10.321,4.239-.671-.581-3.6,4.367,2.74,4.551-1.659-.131-4.852-4.156-3.05,3.555-.779L598.363,489l-10.222,2.2-1.267-2.818,2.248-1.051-2.18-4.762,7.238,2.886,6.476-2.758.128-1.76v.005l.073-1.041-6-3.673-7.583,1.793,2.849-4.385-2.067-1.37,1.664-2.607,9.79,3.678,1.539-4.008-3.4-1.29,4.558-2.411.837-4.779-4.267-2.308-4.719,2.072,1.1-3.469-4.09-1.282-3.208,9.958-3.072-.319.211-2.471-5.212-.49,6.119-4.827.85-6.987-1.458-.988h0l-.86-.583-6.182,3.359-2.24,7.464-2.376-4.661-2.22,1.1L570,453.687l8.078-6.64-2.7-3.334-2.823,2.3.186-5.151-3.713-3.112-4.133,2.539-.566,5.121-2.456-2.688-3.155,2.9,7.022,7.754-1.813,2.5-2.034-1.421-3.03,4.269-1.124-7.711-5.627-4.231-1.581.764v0l-.938.453-.184,7.037,5.347,5.667-5.229-.277-.151,2.481-3.085-.138-1.712-10.323-4.239.674.581,3.6Zm30.622,8.933-2.175-1.735,2.562-3.6,2.009,3.929Zm10.532,8.908-8.387,4.05,5.26-7.738-.568-1.184-1.312-.093-5.265,7.744.684-9.257,11.633-6.806Zm5.008,1.4-2.406-1.375.417-2.748,4.392.42Zm7.676,7.326-12.525,4.872-7.706-5.234,9.33.686.742-1.086-.573-1.182-9.335-.689,8.357-4.04Zm-6.826,10.139-4.41-.224-.005-2.776,2.585-1.011ZM564.855,494.6l2.17,1.735-2.562,3.593L562.454,496Zm1.32-2.245.684-9.285,4.07,8.422,1.313.1.737-1.091-4.078-8.43,7.676,5.219.083,13.473ZM554.318,485.7l8.382-4.055-5.254,7.739.568,1.189,1.312.088,5.265-7.743-.684,9.259-11.633,6.806Zm-5.016-1.4,2.411,1.38-.412,2.745L546.906,488Zm-7.668-7.326,12.525-4.875,7.7,5.24-9.325-.689-.742,1.086.573,1.184,9.335.686-8.357,4.038Zm6.826-10.139,4.407.226.005,2.771-2.582,1.016Zm6.919-10.082,10.476,8.412-.681,9.285-4.07-8.42-1.312-.1-.737,1.089,4.075,8.432-7.678-5.219Z" transform="translate(125.124 165.902)" fill="#f4f5f8"/>
    <g id="Groupe_271" data-name="Groupe 271" transform="translate(929.001 654.209)">
      <path id="Tracé_210" data-name="Tracé 210" d="M637.671,442.23l5.617-1.444-4.277,3.924-5.3,1.272Z" transform="translate(-533.31 -361.919)" fill="#f4f5f8"/>
      <path id="Tracé_211" data-name="Tracé 211" d="M638.816,449.129l4.061,4.144-5.539-1.743-3.752-3.948Z" transform="translate(-533.503 -351.628)" fill="#f4f5f8"/>
      <path id="Tracé_212" data-name="Tracé 212" d="M629.176,441.631l1.557-5.583,1.262,5.667-1.552,5.219Z" transform="translate(-540.18 -369.093)" fill="#f4f5f8"/>
      <path id="Tracé_213" data-name="Tracé 213" d="M639.593,444.731l5.564,1.552L639.5,447.54,634.3,446Z" transform="translate(-532.429 -355.945)" fill="#f4f5f8"/>
      <path id="Tracé_214" data-name="Tracé 214" d="M633.587,441.423l4.125-4.042-1.743,5.529-3.933,3.737Z" transform="translate(-535.851 -367.073)" fill="#f4f5f8"/>
      <path id="Tracé_215" data-name="Tracé 215" d="M643.958,448.482a9.147,9.147,0,1,1-11.029-6.758A9.144,9.144,0,0,1,643.958,448.482Z" transform="translate(-545.117 -360.884)" fill="#f4f5f8"/>
      <path id="Tracé_216" data-name="Tracé 216" d="M626.053,447.175l-5.559-1.547,5.662-1.262,5.2,1.547Z" transform="translate(-553.325 -356.498)" fill="#f4f5f8"/>
      <path id="Tracé_217" data-name="Tracé 217" d="M625.889,444.512l-4.061-4.144,5.534,1.748,3.751,3.948Z" transform="translate(-551.305 -362.552)" fill="#f4f5f8"/>
      <path id="Tracé_218" data-name="Tracé 218" d="M629.156,441.413l1.262,5.274-3.747-3.953-1.439-5.593Z" transform="translate(-546.151 -367.437)" fill="#f4f5f8"/>
      <path id="Tracé_219" data-name="Tracé 219" d="M627.2,451.114l-5.613,1.448,4.277-3.928,5.294-1.272Z" transform="translate(-551.669 -351.962)" fill="#f4f5f8"/>
      <path id="Tracé_220" data-name="Tracé 220" d="M631.631,455.14l-1.557,5.588-1.262-5.667,1.547-5.224Z" transform="translate(-540.73 -348.215)" fill="#f4f5f8"/>
      <path id="Tracé_221" data-name="Tracé 221" d="M635.561,453.234,637,458.827l-3.919-4.272-1.262-5.279Z" transform="translate(-536.185 -349.064)" fill="#f4f5f8"/>
      <path id="Tracé_222" data-name="Tracé 222" d="M628.936,454.374l-4.12,4.042,1.738-5.539,3.938-3.727Z" transform="translate(-546.781 -349.256)" fill="#f4f5f8"/>
      <path id="Tracé_223" data-name="Tracé 223" d="M622.115,430.305a5.132,5.132,0,0,0,1.612,10.107l5.966,6.285-9.644,2.293,2.5,5.77,12.05-2.891,3.791,3.99-13.951,3.306,2.547,5.694,16.3-3.839,13.561,14.285-10.831.7,4.3,10.021-8.794-2.607-6.675-15.545-6,1.438,5.091,11.859-5.9-1.75a5.134,5.134,0,1,0-3.623,6.753,5.013,5.013,0,0,0,1.845-.855l5.913,1.752-10.72,7.155,4.249,4.473,14.051-9.378,8.792,2.607-9.051,6.039,8.7,6.5-19.155,4.578-11.575-12.105-5.239,3.384,9.9,10.376-5.358,1.282-8.525-9L603,506.456l6.841,7.19-7.7,1.835a5.137,5.137,0,1,0,1.468,6.079l7.678-1.845-2.839,9.5,6.248.712,3.525-11.877,5.353-1.287-4.116,13.73,6.2.644,4.832-16.038,19.15-4.6-4.807,9.732,10.828,1.282-6.655,6.313-16.8-1.994-1.755,5.918,12.817,1.516-4.782,4.538a5.134,5.134,0,1,0,4.359,4.357l4.656-4.415.835,12.855,5.994-1.433-1.094-16.862L659.89,526l.709,10.856,9.971-4.282-5.607,18.876-16.269,3.977.3,6.227,13.936-3.384-1.571,5.277-12.05,2.894.385,6.275,9.634-2.333-2.288,7.718a5.155,5.155,0,1,0,5.926,2l2.348-7.93,6.811,7.208,3.741-5.056-8.53-8.993,1.566-5.277,9.835,10.429,3.655-5.053-11.477-12.2,5.594-18.886,6.024,9.031,6.527-8.737,2.134,8.918-10.119,13.559,4.244,4.473,7.723-10.341,1.37,5.725a5.137,5.137,0,1,0,5.911-1.777l-1.285-5.368,11.547,5.707,1.755-5.918-15.15-7.477-2.135-8.923,9.755,4.822,1.277-10.783,13.544,14.3-4.694,16.078,5.549,2.849,4.04-13.76,3.786,4-3.525,11.884,5.627,2.808,2.8-9.511,5.825,6.147a5.135,5.135,0,1,0,4.03-4.837l-5.317-5.6L747.4,549.3l-2.5-5.765-12.055,2.889-3.791-3.992L743,539.129l-2.549-5.689-16.3,3.834-13.559-14.283,10.833-.7-4.307-10.016,8.794,2.607,6.678,15.542,6-1.441L733.5,517.128l6.416,1.9a5.137,5.137,0,1,0,3.62-6.781,5.094,5.094,0,0,0-1.865.87l-6.409-1.9,10.72-7.15-4.244-4.473-14.054,9.373-8.794-2.607,9.051-6.039-8.7-6.5,19.155-4.581,11.573,12.1,5.244-3.379-9.893-10.381,5.353-1.275,8.528,8.991,5.244-3.467-6.838-7.183,8.161-1.956a5.134,5.134,0,1,0-1.468-6.074l-8.138,1.956,2.838-9.5-6.245-.711-3.525,11.884-5.352,1.285,4.108-13.735-6.2-.639L736.96,483.2l-19.152,4.6,4.8-9.737-10.823-1.28,6.652-6.31,16.8,1.989,1.752-5.913-12.814-1.516,4.478-4.244a5.139,5.139,0,1,0-4.287-4.432l-4.42,4.194-.835-12.857-6,1.441,1.1,16.857-6.66,6.313-.707-10.861-9.974,4.287,5.614-18.886,16.266-3.967-.309-6.23-13.936,3.384,1.571-5.285,12.05-2.886-.377-6.278-9.639,2.333,2.554-8.588a5.135,5.135,0,1,0-6.886-3.575,5.017,5.017,0,0,0,.87,1.865l-2.519,8.515-6.816-7.213-3.741,5.058,8.528,8.99-1.561,5.282-9.835-10.434-3.653,5.058,11.472,12.2-5.594,18.886-6.024-9.031-6.527,8.737-2.137-8.917,10.127-13.559-4.244-4.473-7.723,10.341-1.458-6.079a5.135,5.135,0,1,0-6.155.4l-.078.018,1.695,7.082-11.555-5.707-1.752,5.913,15.153,7.477,2.137,8.922-9.762-4.822-1.272,10.783-13.546-14.3,4.694-16.073-5.549-2.846-4.038,13.752-3.789-4,3.525-11.882-5.622-2.808-2.806,9.516-5.868-6.192a5.066,5.066,0,0,0-.053-2.117A5.141,5.141,0,0,0,622.115,430.305Zm45.538,39.215,6.579,3.256,2.549,10.617,4.286,4.674,1.7-6.114-2.544-10.6,4.4-5.9,4.055,6.089-3.1,10.494,1.37,6.185,4.551-4.457,3.11-10.454,6.728-2.894.47,7.326-7.925,7.51-1.9,6.054,6.142-1.582,7.912-7.5,7.311.862-3.246,6.562-10.637,2.557-4.669,4.289,6.132,1.707,10.607-2.534,5.868,4.377-6.107,4.075-10.466-3.11-6.19,1.38,4.438,4.528,10.454,3.1,2.909,6.763-7.309.47-7.532-7.934-6.049-1.906,1.591,6.172,7.5,7.917-.86,7.271-6.579-3.251-2.542-10.615-4.289-4.681-1.7,6.114,2.542,10.6-4.4,5.9-4.06-6.089,3.1-10.489-1.375-6.192-4.553,4.463-3.1,10.451-6.728,2.891-.47-7.321,7.92-7.517,1.906-6.046-6.15,1.576-7.909,7.5-7.306-.86,3.241-6.567,10.64-2.557,4.671-4.281-6.139-1.715L655.9,502.632l-5.868-4.38,6.109-4.07,10.469,3.1,6.192-1.375-4.44-4.533-10.454-3.1-2.911-6.763,7.306-.47,7.532,7.934,6.051,1.9-1.586-6.167-7.5-7.919Z" transform="translate(-593.778 -409.416)" fill="#f4f5f8"/>
    </g>
    <g id="Groupe_272" data-name="Groupe 272" transform="translate(862.114 394.888)">
      <path id="Tracé_224" data-name="Tracé 224" d="M631.592,388.164l-7.464,2.632-6.015-5.151,1.458-7.778,7.464-2.632,6.01,5.151Z" transform="translate(-558.57 -313.184)" fill="#f4f5f8"/>
      <path id="Tracé_225" data-name="Tracé 225" d="M619.088,375.891l-11.052-1.39,2.849,10.906-1.519.541,5.28,4.523,5.1-1.823,3.369,2.889L612.481,395.3l5.282,4.528L628.4,396.06l3.371,2.891-16.183,5.7,5.277,4.523,13.048-4.631-.7,3.2,7.095,6.077-12.636.246,11.7,4.787-8.82,3.115-.505,3.241-10.489-9.031L613,418.493l13.028,11.165-4.189,1.473-8.558-7.356-6.562,2.313,8.556,7.356-4.179,1.473L607,431.378l-6.557,2.313,4.106,3.54-2.077.732-1.267-3.6-6.771,9.154,11.014,2.886-.968-2.753,2.072-.732-.978,5.332,6.557-2.313.978-5.328,4.179-1.473-2.054,11.1,6.567-2.318,2.052-11.092,4.189-1.478-3.148,16.867,6.554-2.308,2.512-13.611,2.414,2.2,8.82-3.107-6.107,11.062,10-7.733-1.712,9.2,2.557,2.052-13.071,4.568-1.277,6.836,16.186-5.7-.812,4.37-10.655,3.728-1.277,6.843,10.652-3.736-.817,4.359-5.116,1.783-1.277,6.831,5.116-1.782-.42,2.278-3.286-.573,4.659,10.386,7.912-8.186-3.349-.583.417-2.21,4.123,3.51,1.277-6.836-4.123-3.5.81-4.362,8.583,7.329,1.282-6.836-8.583-7.331.814-4.367,13.036,11.163L672,461.11l-10.542-8.981,3.123-.993,1.725-9.187,6.519,10.818-1.7-12.523,7.1,6.079,3.065-1.187-2.579,13.606,5.28,4.52,3.153-16.87,3.371,2.891-2.092,11.092,5.285,4.523,2.092-11.087,3.369,2.881-1.016,5.322,5.277,4.523,1.016-5.322,1.529,1.307-1.843,2.1,11.3,1.413-2.854-10.906.9-.314-5.277-4.523-5.109,1.823-3.366-2.889,10.64-3.766-5.285-4.53-10.64,3.771-3.374-2.894,16.186-5.7-5.28-4.523-13.041,4.636.7-3.193-7.1-6.089,12.634-.239-11.7-4.794,8.819-3.112.5-3.246,10.494,9.036,6.554-2.308-13.033-11.168,4.194-1.476,8.555,7.354,6.564-2.313-8.558-7.354,4.178-1.473,4.105,3.54,6.554-2.308-4.105-3.54,2.077-.732,1.051,2.984,6.773-9.151-11.014-2.886,1.184,3.361-2.074.732.978-5.332-6.554,2.313-.978,5.33-4.178,1.476,2.052-11.1-6.559,2.313L699,403.944l-4.189,1.473,3.15-16.867-6.559,2.308L688.9,404.474l-2.416-2.2-8.82,3.1,6.1-11.062-9.994,7.733,1.715-9.192-2.559-2.057L686,386.227l1.277-6.833-16.186,5.7.814-4.365L682.557,377l1.275-6.846-10.65,3.736.814-4.359,5.116-1.783,1.277-6.826-5.116,1.777.443-2.353,3.422.6-4.664-10.386-7.912,8.191,3.213.558-.432,2.29-4.126-3.512-1.277,6.831,4.131,3.5-.815,4.362-8.583-7.326-1.282,6.838,8.583,7.326-.815,4.367-13.033-11.163-1.277,6.836,10.539,8.975-3.125,1-1.717,9.187L650.015,388l1.7,12.523-7.1-6.084-3.065,1.189,2.582-13.6-5.282-4.528L635.7,394.37l-3.374-2.894,2.092-11.087-5.282-4.528-2.092,11.092-3.369-2.886,1.016-5.322-5.28-4.523Zm93.319,79.31-2.446,2.791-1.581-1.355Zm-34.733-35.673-1.046-.427a15.42,15.42,0,0,0-2.549-7.243l.546-1,11.492-4.048,2.021,1.767-.465,2.549,1.958,1.69-.468,2.657Zm-7.389,14.5-.153-1.121a15.227,15.227,0,0,0,4.993-5.823l1.146-.02,9.244,7.92-.52,2.637-2.439.87-.483,2.544-2.534.918Zm-15.346.161a15.21,15.21,0,0,0,7.532,1.415l.6.975-2.24,11.967-2.544.875-1.974-1.684-2.446.855-2.062-1.735,2.24-11.977Zm-9.767-12.948,1.046.427a15.25,15.25,0,0,0,.822,3.784,14.946,14.946,0,0,0,1.727,3.454l-.551,1-11.484,4.05-2.024-1.772.468-2.542-1.959-1.695.465-2.657Zm7.331-8.5,11.08-3.9,8.918,7.64-2.162,11.545-11.072,3.9-8.918-7.64Zm15.409-6.167a15.308,15.308,0,0,0-7.542-1.41l-.583-.978,2.235-11.97,2.542-.867,1.974,1.677,2.446-.852,2.062,1.732-2.233,11.97Zm-24.606-7.764,9.252,7.925.151,1.124a15.268,15.268,0,0,0-4.988,5.82l-1.139.025-9.252-7.927.52-2.632,2.441-.867.48-2.549Zm-30.169-15.831,1.333,1.144-3.394,1.214Zm5.878-6.7-.623,3.266-1.277-1.1Z" transform="translate(-594.43 -350.554)" fill="#f4f5f8"/>
    </g>
    <path id="Tracé_226" data-name="Tracé 226" d="M538.465,422.143l.656,1.481-2.632-.277.528,1.2,2.637.286.626,1.418-4.563-.5.528,1.2,3.914.425-1.476,2.021,1.315.141.143-.2.186,1.194a1.047,1.047,0,0,1-.219.7,1.092,1.092,0,0,1-.588.42l-1.2.186.143-.2-.53-1.214-1.473,2.021-1.6-3.6-1.307-.136,1.855,4.193-1.539-.166-1.071-2.424-1.3-.136,1.066,2.419-1.609-.174-.123,1.131,1.612.176-1.559,2.137,1.3.141,1.561-2.137,1.544.163-2.71,3.706,1.3.143,2.331-3.175,1.008,2.29.779-1.071-.1-.226,1.126.435a1.039,1.039,0,0,1,.5.543,1.054,1.054,0,0,1,.073.719l-.442,1.136-.1-.226-1.315-.146,1.011,2.293-3.915-.42-.774,1.058,4.563.49-.913,1.255-2.632-.284-.775,1.056,2.63.289-.958,1.3.92.676.955-1.312L538.928,447l.774-1.063-1.074-2.421.918-1.252,1.85,4.2.777-1.058-1.586-3.6,2.484.264-.535-1.2-.244-.025.938-.759a1.151,1.151,0,0,1,1.375.141l.767.95-.246-.028-.782,1.066,2.486.267-2.315,3.183.531,1.2,2.705-3.708.629,1.418-1.564,2.137.53,1.2,1.561-2.135.654,1.478,1.043-.46-.654-1.481,2.632.282-.53-1.2-2.635-.284-.629-1.421,4.563.5-.528-1.2-3.912-.427,1.476-2.021-1.315-.136-.146.2-.186-1.194a1.031,1.031,0,0,1,.219-.7,1.046,1.046,0,0,1,.588-.422l1.207-.186-.146.2.528,1.207,1.478-2.014,1.6,3.6,1.307.141-1.861-4.2,1.544.166,1.068,2.421,1.3.141-1.066-2.421,1.609.173.123-1.131-1.612-.174,1.559-2.142-1.3-.141-1.561,2.14-1.544-.166,2.713-3.706-1.3-.141-2.328,3.175-1.011-2.288L551.071,433l.1.226-1.126-.437a1.036,1.036,0,0,1-.5-.541,1.047,1.047,0,0,1-.07-.717l.44-1.141.1.226,1.315.146-1.011-2.29,3.912.42.775-1.063-4.561-.488.913-1.255,2.632.287.774-1.061-2.63-.287.955-1.3-.923-.674-.95,1.307-1.076-2.419L549.369,423l1.071,2.424-.915,1.255-1.855-4.2-.772,1.058,1.586,3.6L546,426.867l.536,1.207.249.028-.94.754a1.04,1.04,0,0,1-.716.163,1.064,1.064,0,0,1-.659-.3l-.767-.95.246.025.784-1.063-2.489-.271,2.318-3.18-.53-1.2-2.705,3.708-.629-1.423,1.564-2.132-.533-1.2-1.559,2.137-.656-1.481Zm6.522,16.382v0a.689.689,0,0,1-.148-.5l.121-1.129,0,0a.687.687,0,0,1,.4-.566.67.67,0,0,1,.629.045l.965.7a.679.679,0,0,1,.269.43l.4,2.542-.07-.151-.39.528-.654-.07.065.146Zm-2.341-2.474h0a.677.677,0,0,1,.968.631l-.128,1.189a.653.653,0,0,1-.239.448l-2,1.617.1-.138-.654-.068-.261-.606-.1.131.915-2.366,0,0a.683.683,0,0,1,.357-.377Zm4.264-1.9,1.1-.485a.675.675,0,0,1,.505-.015l2.4.93-.166-.02.266.6-.392.533.163.018-2.509.39,0,0a.67.67,0,0,1-.5-.121l-.92-.669v-.005a.676.676,0,0,1,.06-1.154Zm-.488-1.27h-.005a.676.676,0,0,1-.965-.631l.128-1.194a.666.666,0,0,1,.239-.443L547.826,429l-.1.138.653.068.261.6.1-.128-.915,2.366,0,0a.667.667,0,0,1-.359.375Zm-7.975.352-.161-.018,2.509-.392,0,0a.664.664,0,0,1,.5.123l.918.669v.005a.673.673,0,0,1-.06,1.151l-1.094.485a.669.669,0,0,1-.508.015l-2.4-.928.171.02-.266-.6Zm3-4.354.068.156.39-.531.654.07-.063-.146,1.591,1.976v0a.66.66,0,0,1,.143.5l-.121,1.129,0,0a.67.67,0,0,1-.4.568.678.678,0,0,1-.629-.045l-.966-.7a.693.693,0,0,1-.266-.432Z" transform="translate(173.475 100.023)" fill="#f4f5f8"/>
    <path id="Tracé_227" data-name="Tracé 227" d="M584.847,375.731l-2.378-.191.385,2.358,1.2.365-1.066.5.219,1.358,1.292-.6,1.368,1.855,1.83.8-1.75.825-1.36-1.662-.985.465.548.739-1.164-.453-1.441.684h0v0l1.011,1.234,1.245.088-.81.435.692.84,1.938-.925,1.232,1.493-1.994-.06-2.029,1.094-.913-1.094-.779,1.134.749.908-1.24-.184-1.355,1.966,2.235.847.915-.86-.1,1.174,1.285.485.126-1.415,2.29-.261,1.6-1.182-.161,1.926-2.119.349-.088,1.086.91-.1-.97.779-.128,1.591h0l1.574-.259.7-1.038-.028.925,1.074-.184.168-2.14,1.911-.319-1.048,1.7-.07,2.3-1.4.244.6,1.242,1.159-.2-.777.983,1.023,2.16,1.85-1.516-.287-1.219.965.674,1.066-.87-1.164-.82.92-2.112-.224-1.984,1.589,1.106-.759,2.009.9.618.365-.84.194,1.232,1.312.9h0l.566-1.493-.548-1.119.782.483.382-1.023-1.77-1.217.676-1.813.948,1.757,1.959,1.214-.49,1.335,1.37.1.412-1.1.463,1.164,2.378.191-.385-2.358-1.2-.362,1.063-.5-.219-1.355-1.292.6-1.37-1.853-1.828-.8,1.75-.822,1.36,1.659.986-.463-.548-.737,1.164.448,1.441-.681,0,0h0l-1.011-1.232-1.242-.093.807-.43-.691-.842-1.938.923-1.229-1.491,1.991.055,2.026-1.091.918,1.094.774-1.134-.749-.908,1.242.184L607,381.038l-2.235-.845-.915.857.1-1.172-1.285-.488-.128,1.415-2.288.264-1.606,1.182.163-1.928,2.119-.347.091-1.084-.913.1.97-.779.128-1.589v0h0l-1.574.261-.7,1.033.025-.92-1.071.181-.171,2.139-1.906.319,1.046-1.7.07-2.3,1.4-.246-.593-1.234-1.159.194.779-.986-1.026-2.157-1.85,1.513.287,1.222-.965-.671-1.066.867,1.167.82-.92,2.112.221,1.981-1.589-1.1.757-2.009-.892-.618-.367.84-.191-1.229-1.312-.908h0v0l-.563,1.493.546,1.119-.782-.48-.38,1.016,1.765,1.219-.674,1.813-.945-1.757-1.961-1.209.49-1.337-1.37-.106-.41,1.1Zm11.846-.88-2.238-.473,1.466-1.415ZM595.969,377l-1.78-.377,1.169-1.126Zm6.1,14.9.442,1.989-2.009-.324Zm-1.82-1.33.354,1.586-1.6-.261Zm-10.627,5.317,2.235.478-1.466,1.413Zm.719-2.14,1.78.377-1.169,1.124ZM594.35,382.4l.07.52-.6-.556-.777.244.254-.395.722-3.221.591-.186.455.422Zm2.4.45-.548-.018-.86.935-.792-.727.87-.945-.055-.525.649-.113,1.076-1.174.6.136.186.593-1.066,1.156Zm-6.366,2.64-.178.8.586.543-.432-.023-3.17.993-.458-.417.136-.606,3.1-.968Zm-5.345,3.3-1.554-.468,1.011-1.27Zm6.582-4.827,1.984-.621,1.529,1.405-.458,2.029-1.981.618-1.526-1.4Zm4.287,1.272.178-.787-.606-.556.493.02,3.13-.976.458.415-.136.606-3.123.978Zm5.317-3.374,1.551.468-1.008,1.267Zm2.75,1.282-.684-2.18,1.951.583Zm-4.689,4.141-1.526-.339-.624.284-.264-.483-1.239-.279.234-1.046,1.257.282.425-.312.422.5,1.551.349.186.591Zm-1.187,2.632-.594.183-2.413-2.22-.443-.186.762-.236.181-.8.221.43,2.419,2.228Zm-4.01.234-.558-.392.287-.468-.38-1.217,1.023-.319.385,1.229.483.214-.224.616.475,1.516-.42.455-.606-.136Zm-2.147-1.828-.065-.493.594.546.772-.241-.244.382-.724,3.231-.591.186-.455-.422Zm-1.858-.41.865-.94.789.727-.87.948.058.53-.654.113-1.068,1.169-.609-.138-.181-.591,1.063-1.156.063-.676Zm-7.8-.427.681,2.182-1.951-.588ZM587,383.454l1.536.344.613-.282.259.475,1.245.282-.236,1.043-1.25-.279-.432.317-.427-.508-1.544-.349-.186-.588Zm1.189-2.632.591-.181,2.381,2.19.5.209-.787.241-.178.787-.2-.392-2.441-2.25Zm2.516-1.413.42-.453.6.136.473,1.5.553.392-.289.465.382,1.212-1.026.319-.38-1.219-.488-.216.229-.621Zm-4.935-.842,1.6.259-1.247,1.322Zm-1.888-1.745,2.014.327-1.569,1.662Z" transform="translate(230.292 110.541)" fill="#f4f5f8"/>
    <path id="Tracé_228" data-name="Tracé 228" d="M519.647,392.028l-2.378-.189.385,2.358,1.2.365-1.064.5.219,1.358,1.292-.6,1.368,1.855,1.83.8-1.752.825-1.36-1.662-.983.463.548.739-1.164-.45-1.443.684h0v0l1.013,1.232,1.245.091-.809.432.691.84,1.938-.923,1.232,1.493-1.994-.06-2.029,1.094-.913-1.094-.779,1.134.749.908-1.239-.184L514.093,406l2.235.845.915-.857-.1,1.172,1.285.485.126-1.413,2.288-.261,1.607-1.182-.161,1.923-2.119.349-.088,1.086.91-.1-.97.779-.128,1.591h0l1.571-.261.7-1.036-.028.923,1.073-.181.168-2.139,1.911-.319-1.048,1.7-.07,2.3-1.4.246.593,1.242,1.159-.2-.774.983,1.023,2.16,1.848-1.516-.284-1.219.965.674,1.066-.87-1.164-.82.92-2.112-.224-1.984,1.589,1.106-.759,2.006.9.618.364-.84.191,1.234,1.315.9h0l.563-1.493-.546-1.119.782.48.382-1.021-1.773-1.217.679-1.813.948,1.757,1.958,1.214-.49,1.335,1.37.1.412-1.1.46,1.164,2.381.194-.387-2.358-1.2-.362,1.063-.5-.219-1.355-1.292.6-1.37-1.85-1.828-.8,1.75-.822,1.36,1.659.986-.463-.548-.739,1.164.45,1.441-.681,0,0h0l-1.011-1.234-1.245-.09.81-.432-.694-.842-1.936.925-1.229-1.491,1.991.055,2.026-1.091.915,1.094.777-1.134-.749-.908,1.24.184,1.355-1.966-2.233-.845-.915.857.1-1.172-1.285-.49-.128,1.418-2.288.261-1.607,1.184.163-1.928,2.117-.347.093-1.084-.915.1.973-.779.128-1.589v0h0l-1.574.259-.7,1.036.025-.92-1.071.181-.171,2.14-1.908.319,1.046-1.7.073-2.3,1.4-.246-.593-1.237-1.159.2.779-.986-1.028-2.157-1.848,1.513.284,1.219-.963-.669-1.066.867,1.167.82-.923,2.112.224,1.981-1.591-1.1.759-2.011-.892-.616-.367.84-.191-1.229-1.312-.908h0v0l-.563,1.491.546,1.121-.782-.483-.38,1.018,1.765,1.219-.676,1.813-.945-1.76-1.958-1.207.488-1.338-1.368-.106-.412,1.1Zm11.846-.877-2.237-.475,1.466-1.413Zm-.724,2.142-1.78-.375,1.169-1.126Zm6.1,14.9.445,1.989-2.011-.324Zm-1.818-1.33.352,1.586-1.6-.261Zm-10.627,5.317,2.235.475-1.466,1.415Zm.716-2.142,1.78.38-1.167,1.124Zm4.01-11.339.07.52-.6-.556-.777.244.254-.395.719-3.221.593-.186.453.422Zm2.4.447-.548-.015-.86.935-.792-.727.87-.945-.055-.526.646-.113,1.079-1.174.6.136.186.593-1.066,1.156Zm-6.366,2.642-.179.8.586.541-.432-.02-3.17.993-.458-.417.136-.606,3.1-.968Zm-5.345,3.3-1.554-.468,1.011-1.27Zm6.582-4.827,1.981-.621,1.531,1.405-.458,2.029-1.981.618-1.526-1.405Zm4.287,1.272.178-.787-.608-.558.5.023,3.13-.975.455.415-.133.606-3.123.978Zm5.317-3.374,1.551.465-1.011,1.27Zm2.748,1.282-.681-2.182,1.951.586Zm-4.686,4.141-1.526-.342-.624.287-.264-.483-1.24-.279.234-1.046,1.257.282.425-.312.422.5,1.551.352.186.588Zm-1.189,2.632-.591.181-2.413-2.22-.445-.184.764-.239.178-.8.224.43,2.418,2.227Zm-4.007.231-.558-.392.287-.465-.38-1.217,1.023-.319.382,1.229.485.214-.224.616.473,1.511-.42.458-.6-.138Zm-2.147-1.825-.065-.493.593.546.772-.241-.244.38-.724,3.231-.591.186-.455-.422Zm-1.858-.41.865-.94.79.727-.873.948.06.531-.653.113L524,406.759l-.606-.138-.181-.588,1.063-1.157.063-.676Zm-7.8-.427.684,2.18-1.953-.586Zm4.721-4.033,1.539.342.613-.279.256.475,1.245.282-.234,1.043-1.25-.279-.432.317-.427-.51-1.544-.347-.188-.591Zm1.192-2.632.591-.181,2.381,2.19.5.209-.787.241-.178.787-.2-.392-2.441-2.25Zm2.517-1.413.42-.453.6.133.473,1.506.551.392-.287.465.38,1.212-1.023.319-.38-1.219-.488-.216.226-.621Zm-4.935-.845,1.6.261-1.247,1.322Zm-1.888-1.742,2.014.327-1.569,1.662Z" transform="translate(102.571 89.834)" fill="#f4f5f8"/>
    <path id="Tracé_229" data-name="Tracé 229" d="M578.065,456.747l-2.378-.189.385,2.356,1.2.367-1.063.5.219,1.358,1.292-.6,1.368,1.853,1.83.8-1.752.825-1.36-1.662-.983.463.548.739-1.164-.45-1.443.684h0v0l1.013,1.232,1.245.088-.81.435.691.84,1.936-.923,1.234,1.493-1.994-.063-2.029,1.1-.913-1.1-.779,1.134.749.91-1.24-.183-1.355,1.966,2.235.845.915-.857-.1,1.172,1.282.485.128-1.413,2.288-.261,1.607-1.184-.161,1.926-2.12.349-.088,1.083.91-.1-.97.782-.128,1.591h0l1.574-.261.7-1.036-.028.923,1.073-.181.169-2.142,1.911-.319-1.049,1.7-.07,2.3-1.4.246.593,1.242,1.159-.2-.774.983,1.023,2.16,1.848-1.518-.284-1.217.965.674,1.066-.87-1.164-.82.92-2.112-.224-1.984,1.589,1.1-.759,2.009.9.618.365-.84.191,1.232,1.315.905h0l.563-1.493-.546-1.119.782.48.38-1.021-1.77-1.217L590,471.55l.948,1.757,1.958,1.214-.49,1.335,1.37.1.412-1.1.46,1.164,2.381.191-.387-2.356-1.2-.365,1.063-.5-.219-1.355-1.292.593-1.37-1.848-1.828-.8,1.75-.825,1.36,1.662.985-.463-.548-.739,1.164.45,1.441-.684,0,0h0l-1.011-1.232-1.245-.09.81-.432-.694-.842-1.936.923-1.229-1.488,1.991.055,2.026-1.094.915,1.1.777-1.134-.749-.908,1.24.183,1.355-1.966-2.233-.845-.918.855.1-1.169-1.285-.49-.128,1.418-2.288.261-1.606,1.184.163-1.931,2.117-.344.093-1.084-.915.1.973-.782.128-1.586v0h0l-1.574.259-.7,1.033.028-.918-1.073.178-.168,2.142-1.908.319,1.046-1.7.073-2.3,1.4-.249-.593-1.234-1.159.194.779-.983-1.028-2.16-1.848,1.516.284,1.219-.965-.669-1.063.865,1.167.822-.923,2.109.224,1.981-1.591-1.1.759-2.011-.892-.616-.367.84-.191-1.229-1.312-.91h0v0l-.563,1.493.546,1.121-.782-.483-.38,1.016,1.765,1.222-.676,1.81-.945-1.757-1.958-1.207.488-1.337-1.368-.106-.412,1.1Zm11.847-.877-2.238-.475,1.466-1.413Zm-.724,2.142-1.78-.375,1.169-1.129Zm6.1,14.9.445,1.989-2.011-.324Zm-1.818-1.33.352,1.584-1.6-.259ZM582.841,476.9l2.235.475-1.466,1.416Zm.717-2.142,1.78.38-1.167,1.124Zm4.01-11.339.068.52-.6-.556-.777.244.254-.4.719-3.218.593-.186.453.422Zm2.4.448-.551-.018-.857.935-.792-.727.87-.945-.058-.525.649-.111,1.079-1.174.6.133.183.6-1.063,1.156Zm-6.366,2.642-.178.8.586.543-.432-.023-3.17,1-.458-.417.136-.606,3.1-.968Zm-5.345,3.3-1.554-.468,1.011-1.27Zm6.582-4.827,1.981-.621,1.531,1.405-.457,2.029-1.981.618-1.526-1.405Zm4.287,1.27.178-.784-.608-.558.5.023,3.13-.978.455.415-.133.608-3.122.975Zm5.317-3.371,1.551.465-1.011,1.27Zm2.748,1.28-.681-2.18,1.951.586ZM592.5,468.3l-1.526-.342-.624.284-.264-.48-1.24-.279.234-1.046,1.257.282.425-.312.422.5,1.551.352.186.588Zm-1.189,2.632-.591.181-2.414-2.22-.445-.183.764-.239.178-.8.224.43,2.419,2.228Zm-4.008.231-.558-.392.287-.465-.38-1.219,1.023-.319.382,1.232.485.214-.224.616.473,1.511-.42.458-.6-.138Zm-2.147-1.825-.065-.493.593.543.772-.239-.244.38-.724,3.228-.591.188-.455-.422Zm-1.858-.41.865-.94.789.727-.872.948.06.53-.654.113-1.071,1.167-.606-.138-.181-.588,1.064-1.156.063-.676Zm-7.8-.427.684,2.18-1.954-.586Zm4.722-4.035,1.539.344.613-.279.256.473,1.245.284-.234,1.043-1.25-.282-.432.317-.427-.508-1.544-.349-.189-.588Zm1.192-2.63.591-.184,2.381,2.19.5.209-.787.244-.179.787-.2-.395-2.441-2.248Zm2.517-1.413.42-.455.6.136.473,1.506.551.392-.287.465.38,1.212-1.023.319-.38-1.219-.488-.216.226-.621Zm-4.935-.845,1.6.261-1.247,1.322Zm-1.888-1.742,2.014.327-1.569,1.662Z" transform="translate(194.225 258.822)" fill="#f4f5f8"/>
    <path id="Tracé_230" data-name="Tracé 230" d="M609.812,404.128l3.074-4.385,1.164,5.229,5.335.471-3.945,3.619,2.259,4.856-5.11-1.606-3.076,4.382-1.164-5.227L603.016,411l3.945-3.621-2.259-4.854Z" transform="translate(416.159 153.399)" fill="#f4f5f8"/>
  </g>
</svg>
