<svg id="Group_131" data-name="Group 131" xmlns="http://www.w3.org/2000/svg" width="154.812" height="160.417" viewBox="0 0 154.812 160.417">
  <g id="Group_1" data-name="Group 1">
    <circle id="beige_circle_bg" data-name="beige circle bg" cx="77.406" cy="77.406" r="77.406" fill="#ffeed6"/>
    <g id="bear_brown" data-name="bear brown" transform="translate(23.499 21.085)">
      <path id="Path_41" data-name="Path 41" d="M139.891,115.726s-5.364-10.358-10.728-4.254c0,0-7.306-3.884-8.878,3.422V122.2l-5.086-2.312s0-12.3-5.086-19.7l4.162-2.22s3.422,2.312,5.364,1.11,1.11-6.2,1.11-6.2,11.93-17.756,10.358-26.172-11.56-9.618-14.334-7.306a9.852,9.852,0,0,0-2.589,12.3,26.935,26.935,0,0,1-6.659,10.543S98,73.278,91.8,76.33a2.021,2.021,0,0,0-.462.277c1.572-1.757,2.867-3.144,3.514-3.7C97.535,70.6,107.893,53.58,89.12,49.88l-1.942-6.2s6.751-15.352-3.422-19.7c0,0-2.4,23.86-44.205,46.148l3.7,5.826s-7.768,15.259,7.768,17.294c-1.757-.092-9.9.555-9.9,21.363,0,0-5.549,3.514,0,7.861v15.537s-14.057,0-15.629,8.878,19.7,3.977,19.7,3.977,8.416,6.011,11.56,2.22a7.715,7.715,0,0,0,0-8.416s6.566,5.086,9.9,7.861c4.162,3.422,12.855,10.08,21.363,9.248,8.6-.74,10.635-7.213,11.375-12.207a33.75,33.75,0,0,0,10.265-5.641c3.514-2.682,10.635,0,11.745,1.85s20.808,13.5,23.86-28.484C145.255,117.206,142.573,113.414,139.891,115.726ZM64.8,92.051a40.81,40.81,0,0,1,8.046-1.665c5.826-.555,12.577-7.213,17.2-12.207C87.917,81.786,89.489,88.537,64.8,92.051Z" transform="translate(-25.41 -23.986)" fill="#da814d"/>
      <path id="Path_42" data-name="Path 42" d="M138.8,61.586l1.017,9.618S149.805,66.857,138.8,61.586Z" transform="translate(-33.937 -26.813)" fill="#da814d"/>
    </g>
    <g id="bear_beige" data-name="bear beige" transform="translate(58.073 64.366)">
      <path id="Path_43" data-name="Path 43" d="M92.488,102.466a23.453,23.453,0,0,0-18.219,27.1c2.682,12.3,4.624-3.514,9.063-.462,1.11.74,7.213-3.052,9.525,0,3.884,5.086,4.162,15.629,4.162,15.629,10.913,0,16.092-7.583,16.092-19.421C113.3,113.286,103.031,100.246,92.488,102.466Z" transform="translate(-63.63 -73.15)" fill="#ffd192"/>
      <path id="Path_44" data-name="Path 44" d="M90.544,80.5c1.572-4.809-6.2-9.71-6.2-9.71s-11.93,3.052-17.664,7.028a8.518,8.518,0,0,0-3.422,9.9C67.054,91.409,84.44,93.259,90.544,80.5Z" transform="translate(-62.795 -70.786)" fill="#ffd192"/>
    </g>
    <path id="blue_hat" data-name="blue hat" d="M25.942,58.4S-2.819,33.156,21.411,13.828c0,0,22.1-22.75,46.7,8.046h0s2.959-11.93,11.468-8.046c0,0,11.56,5.086-6.2,26.542A123.888,123.888,0,0,1,29.179,73.94C22.15,77.454,6.151,70.148,25.942,58.4" transform="translate(-0.88 -1.528)" fill="#4f89c8"/>
    <g id="red" transform="translate(24.507 15.814)">
      <path id="Path_45" data-name="Path 45" d="M27.24,57.5l-.74-.37,5.549,8.878S52.579,57.96,62.66,44.735s10.358-17.2,10.358-17.2l-8.046-9.248A81.773,81.773,0,0,1,27.24,57.5Z" transform="translate(-26.5 -18.286)" fill="#dd192b"/>
      <path id="Path_46" data-name="Path 46" d="M134.09,26.486l-23.49,13.5,3.884,35.6,5.641-2.774s-3.422-10.543,4.9-13.132c8.323-2.5,12.485,6.474,12.485,6.474Z" transform="translate(-32.824 -18.903)" fill="#dd192b"/>
      <path id="Path_47" data-name="Path 47" d="M130.629,25.925,115,21.486l.462,4.624Z" transform="translate(-33.155 -18.527)" fill="#dd192b"/>
      <ellipse id="Ellipse_1" data-name="Ellipse 1" cx="5.179" cy="3.052" rx="5.179" ry="3.052" transform="matrix(0.975, -0.221, 0.221, 0.975, 19.974, 58.924)" fill="#dd192b"/>
      <ellipse id="Ellipse_2" data-name="Ellipse 2" cx="5.179" cy="3.052" rx="5.179" ry="3.052" transform="translate(57.9 44.359) rotate(-49.112)" fill="#dd192b"/>
      <circle id="Ellipse_3" data-name="Ellipse 3" cx="2.035" cy="2.035" r="2.035" transform="translate(70.192 108.294)" fill="#dd192b"/>
    </g>
    <g id="white_highlight" data-name="white highlight" transform="translate(23.86 4.4)">
      <path id="Path_48" data-name="Path 48" d="M95.516,77.875l-.185,3.514a20.394,20.394,0,0,1,18.958,3.884A19.454,19.454,0,0,0,97.273,76.3c5.271-5.179,11.93-14.519,3.607-22.473-4.9-4.532-6.659-2.867-6.659-2.867L92,44.675s10.265-11.005-1.85-18.589l-1.757,4.9s4.716,8.046-1.295,14.242l3.514,8.693s22.473,1.942,1.942,22.565v3.792S93.759,79.355,95.516,77.875Z" transform="translate(-30.41 -7.458)" fill="#fff"/>
      <path id="Path_49" data-name="Path 49" d="M84.424,90.117c4.809-6.289,4.809-7.676,4.809-7.676l-1.017-.555a26.178,26.178,0,0,1-9.71,7.676c-4.347,1.85-9.341,1.11-11.93,1.48-4.069.555-14.7,8.971-23.675-.74,0,0,6.011,11.93,21.733,5.364C64.54,95.758,79.615,96.405,84.424,90.117Z" transform="translate(-27.086 -11.654)" fill="#fff"/>
      <path id="Path_50" data-name="Path 50" d="M63.254,23.184l1.2-2.4-.185.647,8.323,8.416,1.48-4.9L65.844,17.82l.37-.832C43.741-3.82,25.8,11.162,25.8,11.162,48.55,2.469,63.254,23.184,63.254,23.184Z" transform="translate(-25.8 -5.944)" fill="#fff"/>
      <path id="Path_51" data-name="Path 51" d="M81.593,19.963c2.5,1.572,3.329,10.82-20.993,35.975,0,0,19.236-11.93,25.432-28.391v.74a18.644,18.644,0,0,0,1.85-8.046,26.127,26.127,0,0,0,.185-2.682,9.211,9.211,0,0,0-.925-1.017A5.209,5.209,0,0,0,84,13.767C78.634,12.01,72.16,20.61,72.16,20.61L76.876,25.6C77.616,21.72,79,18.483,81.593,19.963Z" transform="translate(-28.417 -6.514)" fill="#fff"/>
      <path id="Path_52" data-name="Path 52" d="M65.794,25.586,60.8,32.43l8.138,7.953,4.994-6.844Z" transform="translate(-28.432 -7.421)" fill="#fff"/>
      <path id="Path_53" data-name="Path 53" d="M59.725,108.984c-.462-1.2-2.589,39.3-7.953,44.39,0,0,6.381,6.566-5.271,2.959,0,0,4.9,4.9,9.525,3.792,0,0,7.676-1.295,1.942-6.566C57.968,153.559,63.979,119.157,59.725,108.984Z" transform="translate(-27.357 -13.69)" fill="#fff"/>
      <path id="Path_54" data-name="Path 54" d="M45.748,149.974s-3.422-2.774-12.115-.462S25.032,161.164,30.3,162C27.437,159.037,36.13,149.511,45.748,149.974Z" transform="translate(-25.865 -16.671)" fill="#fff"/>
      <path id="Path_55" data-name="Path 55" d="M98.267,106.361c-7.953-1.942-15.167,5.826-15.167,5.826,11.005-6.2,24.137-1.387,27.189,15.352C110.382,127.539,111.861,109.782,98.267,106.361Z" transform="translate(-30.109 -13.471)" fill="#fff"/>
      <path id="Path_56" data-name="Path 56" d="M112.6,102.886c11.283,15.629,5.734,35.235,5.734,35.235C129.616,118.515,112.6,102.886,112.6,102.886Z" transform="translate(-32.327 -13.234)" fill="#fff"/>
      <path id="Path_57" data-name="Path 57" d="M152.2,122.587a4.6,4.6,0,0,0-5.641-.647,6.3,6.3,0,0,0-6.936-5.456c-5.456.462-3.792,1.572-3.422,1.757-.647-.37-4.994-2.22-7.4,4.439,1.295-2.774,5.919-3.977,9.525,1.757,0,0-.092-4.162,2.959-3.237a7.577,7.577,0,0,1,5.086,6.936,3.231,3.231,0,0,1,4.254-1.387,3.335,3.335,0,0,1,1.387,1.387c2.959,3.977-10.728,26.172-21.548,25.34,0,0,7.491,7.676,16.184-6.1C151.55,140.25,155.342,125.084,152.2,122.587Z" transform="translate(-33.545 -14.253)" fill="#fff"/>
      <path id="Path_58" data-name="Path 58" d="M96.915,140.12c.462-9.8-8.971-13.41-11.283-8.416a5.334,5.334,0,0,0-5.826.185c-3.237,2.035-1.48,6.659-1.48,6.659a5.711,5.711,0,0,0-5.826,5.364s5.086-3.792,8.6-1.572c0,0-4.254-5.271-.74-7.213a6.661,6.661,0,0,1,7.121,1.017s3.7-5.826,6.2,6.011c0,0-1.295,3.7,3.144,10.635,2.959,4.532,1.665,13.965-4.994,15.722,0,0,14.889-3.329,10.45-15.537C102.556,152.882,96.452,149.923,96.915,140.12Z" transform="translate(-29.312 -15.232)" fill="#fff"/>
      <path id="Path_59" data-name="Path 59" d="M136.4,66.337a7.289,7.289,0,0,0-2.959-6.1l3.977,1.665L134.18,26.386l-3.422,2.774c-.462-.832-1.665-2.682-3.7-2.5H112.725L113,30.27l-.832.185.185,2.682-.555,1.11.37,3.7,17.2-7.676h0L132.053,59.4a9.391,9.391,0,0,0-2.312-.555h-.925c-10.265,0-8.878,9.063-8.046,10.543,1.11-6.844,10.265-9.063,11.837-3.514,2.589,9.063-9.063,25.525-9.063,25.525s1.942,4.994.832,6.936c0,0,3.144.74,2.867-2.035a14.129,14.129,0,0,0-.647-3.329C126.5,93.157,139.267,75.308,136.4,66.337Z" transform="translate(-32.267 -7.481)" fill="#fff"/>
    </g>
    <g id="blue_outline" data-name="blue outline" transform="translate(9.217 2.463)">
      <path id="Path_60" data-name="Path 60" d="M80.9,60.176a3.216,3.216,0,0,0,3.884-2.4,2.12,2.12,0,0,1-1.665-.185,2.153,2.153,0,0,1-.925-2.867,1.457,1.457,0,0,1,.647-.647h-.092a.556.556,0,0,0-.37-.092,3.216,3.216,0,0,0-3.884,2.4A3.166,3.166,0,0,0,80.9,60.176Z" transform="translate(-15.114 -7.613)" fill="#0e2543"/>
      <path id="Path_61" data-name="Path 61" d="M60.251,72.852a3.16,3.16,0,0,0,3.329-3.144,2.027,2.027,0,0,1-2.774-.277,2.1,2.1,0,0,1,.092-3.052h-.462v-.092A3.258,3.258,0,0,0,57.2,69.43,3.172,3.172,0,0,0,60.251,72.852Z" transform="translate(-13.518 -8.544)" fill="#0e2543"/>
      <circle id="Ellipse_4" data-name="Ellipse 4" cx="0.647" cy="0.647" r="0.647" transform="translate(60.979 74.121)" fill="#0e2543"/>
      <circle id="Ellipse_5" data-name="Ellipse 5" cx="0.647" cy="0.647" r="0.647" transform="translate(60.342 76.703)" fill="#0e2543"/>
      <circle id="Ellipse_6" data-name="Ellipse 6" cx="0.555" cy="0.555" r="0.555" transform="translate(58.758 75.226)" fill="#0e2543"/>
      <circle id="Ellipse_7" data-name="Ellipse 7" cx="0.647" cy="0.647" r="0.647" transform="translate(72.848 71.045)" fill="#0e2543"/>
      <circle id="Ellipse_8" data-name="Ellipse 8" cx="0.647" cy="0.647" r="0.647" transform="translate(71.231 69.674)" fill="#0e2543"/>
      <circle id="Ellipse_9" data-name="Ellipse 9" cx="0.555" cy="0.555" r="0.555" transform="translate(73.473 69.128)" fill="#0e2543"/>
      <path id="Path_62" data-name="Path 62" d="M88.792,41.086h0c-.092,0-.092,0-.092.092Z" transform="translate(-15.887 -6.649)" fill="#0e2543"/>
      <path id="Path_63" data-name="Path 63" d="M24.868,43.05h0a1.416,1.416,0,0,0,.647-.462,1.455,1.455,0,0,0,.092-2.035l-.092-.092c-7.4-6.474-4.9-12.855-4.809-13.04a1.533,1.533,0,0,0-.74-1.942h-.092a1.652,1.652,0,0,0-2.035.832c-.185.37-3.514,8.416,5.549,16.369A1.808,1.808,0,0,0,24.868,43.05Z" transform="translate(-10.502 -5.469)" fill="#0e2543"/>
      <path id="Path_64" data-name="Path 64" d="M29.211,52.326l-.092-.185a5.65,5.65,0,0,0,1.295-.647,3.448,3.448,0,0,0,1.572-2.959,5.381,5.381,0,0,0-2.774-4.069,1.539,1.539,0,1,0-1.665,2.589c1.11.74,1.48,1.387,1.48,1.665a.577.577,0,0,1-.277.462c-.185.092-.277.185-.37.185a2.16,2.16,0,0,1-1.11-.925,1.539,1.539,0,0,0-2.589,1.665,5.73,5.73,0,0,0,3.237,2.22A3.047,3.047,0,0,0,29.211,52.326Z" transform="translate(-11.054 -6.885)" fill="#0e2543"/>
      <path id="Path_65" data-name="Path 65" d="M80.92,49.414c1.757-.74,2.4.37,2.589.74a1.686,1.686,0,0,0,1.942.925h.092a1.592,1.592,0,0,0,.832-2.127h0a5.2,5.2,0,0,0-6.659-2.5,1.717,1.717,0,0,0-.925,2.127A1.767,1.767,0,0,0,80.92,49.414Z" transform="translate(-15.135 -7.024)" fill="#0e2543"/>
      <path id="Path_66" data-name="Path 66" d="M85.178,163.591c2.589,2.589,7.676,4.9,10.265,2.312s3.422-9.525.925-12.115-7.676-.555-10.265,2.035S82.681,160.909,85.178,163.591Z" transform="translate(-15.509 -15.034)" fill="#0e2543"/>
      <path id="Path_67" data-name="Path 67" d="M82,153.149a2.219,2.219,0,0,0,1.11-.647,4.526,4.526,0,0,0-4.069-7.121,2.22,2.22,0,0,0-1.11.647,4.009,4.009,0,0,0-.555,4.162A4.175,4.175,0,0,0,82,153.149Z" transform="translate(-15.009 -14.488)" fill="#0e2543"/>
      <path id="Path_68" data-name="Path 68" d="M86.249,145.862a3.681,3.681,0,0,0,2.867,1.017,3.243,3.243,0,0,0,1.295-.555h0a4.207,4.207,0,0,0,1.11-4.347,4.57,4.57,0,0,0-4.532-3.792,3.242,3.242,0,0,0-1.295.555,4.207,4.207,0,0,0-1.11,4.347A5.757,5.757,0,0,0,86.249,145.862Z" transform="translate(-15.563 -13.951)" fill="#0e2543"/>
      <path id="Path_69" data-name="Path 69" d="M136.756,140.486c-3.329,0-5.456,1.2-5.456,4.532s1.942,7.953,5.271,7.953c3.237-.092,8.138-4.069,8.138-7.306C144.71,142.336,140.086,140.486,136.756,140.486Z" transform="translate(-19.091 -14.124)" fill="#0e2543"/>
      <path id="Path_70" data-name="Path 70" d="M134.386,133.479a2.64,2.64,0,0,0,1.2,0,4.076,4.076,0,0,0-.462-7.4,2.64,2.64,0,0,0-1.2,0,3.726,3.726,0,0,0-2.127,3.144A3.881,3.881,0,0,0,134.386,133.479Z" transform="translate(-19.125 -13.036)" fill="#0e2543"/>
      <path id="Path_71" data-name="Path 71" d="M144.282,125.88a2.64,2.64,0,0,0-1.2,0,3.807,3.807,0,0,0-2.589,3.144,5.341,5.341,0,0,0,.185,2.959,3.116,3.116,0,0,0,1.942,1.942,2.639,2.639,0,0,0,1.2,0,3.807,3.807,0,0,0,2.589-3.144A4.036,4.036,0,0,0,144.282,125.88Z" transform="translate(-19.773 -13.021)" fill="#0e2543"/>
      <path id="Path_72" data-name="Path 72" d="M143.354,112.64a5.7,5.7,0,0,0-5.179-.37c-.462-2.774-1.85-4.716-4.069-5.456a6.289,6.289,0,0,0-6.659,1.295,3.428,3.428,0,0,0-3.237-1.017,8.463,8.463,0,0,0-6.659,7.028,24.789,24.789,0,0,0-.185,3.7,2.561,2.561,0,0,0-.832-.092,23.824,23.824,0,0,0-2.4-10.635,64.815,64.815,0,0,0-4.069-6.936.34.34,0,0,0,.277-.092l2.127-2.312a5.555,5.555,0,0,0,6.474,0c2.589-1.85,1.85-4.069,1.2-5.919,2.22-3.144,11.005-14.612,11.005-24.137a5.842,5.842,0,0,0,3.329-1.942,6.086,6.086,0,0,0,1.387-4.809,5.428,5.428,0,0,0-4.716-5.086l-3.052-30.8a1.714,1.714,0,0,0-.185-.647,2.452,2.452,0,0,0-.462-.555,4.152,4.152,0,0,0-3.329-2.127c-1.48-.185-11.652-2.22-16.739-3.237h-.37a1.638,1.638,0,0,0-1.572,1.665l.185,3.792v.092h-.555a.748.748,0,0,0-.74.832l.185,2.774h-.092c-.37.092-.74.462-.647.832l.277,2.959-.185.092a.809.809,0,0,0-.555.832l.37,3.329-1.387.74a1.615,1.615,0,0,0-.832,1.665l3.514,35.7a1.23,1.23,0,0,0,.277.74v.092a1.6,1.6,0,0,0,1.572,1.48V76.2a2.7,2.7,0,0,0,.832-.185l2.774-1.665a17.3,17.3,0,0,1-3.977,3.329c-4.254-4.347-8.323-5.364-11.19-5.364,4.716-5.826,6.659-12.67,4.439-17.664a15.086,15.086,0,0,0-10.913-8.231l-1.757-3.7A14.385,14.385,0,0,0,89.623,28.3a8.968,8.968,0,0,0-5.271-5.549,18.125,18.125,0,0,0,.185-4.347A8.017,8.017,0,0,0,81.3,12.114a8.388,8.388,0,0,0-7.676-.74,11.807,11.807,0,0,0-6.289,6.381C54.3,3.236,42.088,2.5,33.672,4.9A34.89,34.89,0,0,0,17.766,15.166c-5.826,6.751-8.416,13.78-7.676,20.9.925,9.525,7.491,17.294,13.41,22.75-4.347,1.572-7.213,4.347-8.046,7.861A8.54,8.54,0,0,0,18.043,75c2.127,1.942,6.1,2.22,11.468.647l-.092.092a49.623,49.623,0,0,0,8.971-3.792l1.757,3.329a13.515,13.515,0,0,0,2.035,13.78,9.528,9.528,0,0,0,2.4,2.312c-2.682,2.4-6.659,8.138-6.1,21.085a6.584,6.584,0,0,0-2.4,4.809,5.87,5.87,0,0,0,2.312,4.716v13.872c-3.884-.277-8.508.277-12.022,3.514-3.422,3.144-4.439,6.844-2.774,9.71,2.035,3.514,8.323,5.826,20.068,2.312a13.619,13.619,0,0,0,7.953,2.589,11.194,11.194,0,0,0,3.884-1.2c2.589-1.572,2.589-2.774,2.589-3.884a5.954,5.954,0,0,0-.647-2.589c2.774,2.22,8.508,6.844,9.9,7.861,4.254,3.144,9.525,8.231,19.328,7.583a13.484,13.484,0,0,0,12.207-8.878,11.469,11.469,0,0,0,1.017-4.254,25.4,25.4,0,0,0,8.323-5.456,7.586,7.586,0,0,1,9.988,2.312l.092.092a.286.286,0,0,1,.092.185l.277.277a10.138,10.138,0,0,0,8.046,3.144c3.884.092,7.583-3.144,10.265-6.936a57.118,57.118,0,0,0,8.786-20.531C146.221,117.079,145.481,114.027,143.354,112.64ZM105.345,45.592l20.346-10.82.185,2.127-20.346,10.82ZM125.505,32.46,105.067,43.28,104.6,39.3l20.068-10.45a1.562,1.562,0,0,1,.462-.185Zm-19.7,17.479,20.346-10.82.185,2.127-20.346,10.82Zm4.162,17.016c.092,1.017.277,1.942.462,2.959l-2.4,1.295-1.757-16.924,20.346-10.728L128.095,59a10.894,10.894,0,0,0-3.7-2.682,11.608,11.608,0,0,0-10.45.925A10.852,10.852,0,0,0,109.969,66.955Zm22.38-2.312a5.52,5.52,0,0,1-1.387.832v-.092a8.762,8.762,0,0,0-.647-2.682c.925-.555,1.295-.832,1.295-1.665v-.185L131.424,59C132.534,59.926,134.661,62.331,132.349,64.643Zm-23.49-40.691V22.194c2.5.462,6.844,1.295,10.265,1.942H108.859C108.766,24.136,108.859,24.044,108.859,23.951Zm-2.774,1.85h9.525l-9.433,1.757Zm-.832,3.514,10.08-1.85-9.9,3.7Zm-.277,3.792,12.3-4.532L105.16,35.142ZM70.2,27.1A63.686,63.686,0,0,1,54.111,48.644,82.077,82.077,0,0,1,32.655,62.516c-1.48-1.11-3.514-2.682-5.641-4.624,28.114-18.773,35.42-32.461,37.362-38.1A53.144,53.144,0,0,1,70.2,27.1ZM13.327,35.881c-.647-6.289,1.757-12.485,6.936-18.5A32.7,32.7,0,0,1,34.6,8.23c9.34-2.682,18.5.277,27.282,8.878-.37,2.127-4.347,16.831-37.177,38.564C19.43,50.586,14.159,43.742,13.327,35.881ZM20.078,72.6a5.057,5.057,0,0,1-1.572-5.086c.647-2.774,3.514-5.086,7.768-6.1q1.665,1.387,3.052,2.5a17.567,17.567,0,0,1-4.9.832,1.624,1.624,0,0,0-.277,3.237,17.565,17.565,0,0,0,5.364-.832h0c1.11-.37,2.22-.74,3.329-1.2h.092c.277-.092.647-.277.925-.37a.947.947,0,0,0,.555-.462A82.163,82.163,0,0,0,65.3,41.245,51.724,51.724,0,0,0,72.329,29.87l.092-.092c2.867-5.734,2.589-8.6,2.4-8.878a1.706,1.706,0,0,0-1.85-1.387h0c-1.48.185-1.295,1.942-1.295,1.942A11.384,11.384,0,0,1,71.5,23.3c-.555-.832-1.2-1.572-1.757-2.312a.323.323,0,0,1,.092-.185,8.629,8.629,0,0,1,4.809-5.919,5.238,5.238,0,0,1,4.809.462,5.266,5.266,0,0,1,1.757,3.884c.37,3.7-.832,14.057-19.328,31.351C37.187,73.706,22.575,74.816,20.078,72.6ZM43.29,76.11a1.589,1.589,0,0,0,0-1.572l-2.035-4.162a128.283,128.283,0,0,0,23.12-17.571C73.439,44.3,78.618,37.269,81.392,31.72a4.694,4.694,0,0,1,.832,1.665A3.21,3.21,0,0,1,81.3,35.7a1.627,1.627,0,0,0,.277,2.312,1.823,1.823,0,0,0,1.387.277,1.07,1.07,0,0,0,.647-.462,6.178,6.178,0,0,0,1.665-4.809,7.43,7.43,0,0,0-2.5-4.532c.37-.832.555-1.572.832-2.312a5.908,5.908,0,0,1,3.052,3.607,11.049,11.049,0,0,1-2.589,11.837,1.555,1.555,0,0,0-.277,1.757l2.589,5.364a1.67,1.67,0,0,0,1.295.925,12.5,12.5,0,0,1,9.248,6.474c2.22,5.179-1.85,13.687-9.063,19.236a10.075,10.075,0,0,0-.092-3.422c-.832-.647-3.329,10.265-8.786,13.04a23.457,23.457,0,0,1-9.34,2.22A24.151,24.151,0,0,0,61.6,88.965c-5.919,2.589-13.595,2.589-17.016-1.85A10.163,10.163,0,0,1,43.29,76.11Zm92.11,64.366a13.889,13.889,0,0,1-8.138,5.919c-2.22.277-9.34-1.387-8.323-10.543-1.017-.185-1.295,2.127-1.572,3.144a5.979,5.979,0,0,0-.37,1.85,11.535,11.535,0,0,0-6.844-.092c1.11-1.757,1.387-3.144,1.017-3.329-.832-.555-2.22,1.017-2.774,1.942A15.462,15.462,0,0,1,99.7,146.3a11.174,11.174,0,0,0-2.4-5.456c-.74-.925-1.295-1.665-1.757-2.312,16.554-5.641,14.057-22.1,12.855-27.282a22.494,22.494,0,0,0-9.988-14.8,16.524,16.524,0,0,0-13.687-1.017c-15.352,4.9-17.294,17.2-15.907,24.507a20.83,20.83,0,0,0,1.85,6.2,9.567,9.567,0,0,0-7.121.832,1.478,1.478,0,0,0-.37,2.035h0a1.462,1.462,0,0,0,2.035.37A6.706,6.706,0,0,1,69,128.824a6.687,6.687,0,0,0-2.312,3.144c-2.127,5.641,1.2,17.479,8.508,20.068.832.277-2.5-3.052-4.532-9.248-3.237-9.618.37-11.56,1.2-11.837,1.85-.647,4.994,2.959,4.994,1.942a5.385,5.385,0,0,0-1.572-3.514c0-.185.092-.462,0-.647-.277-1.48-.37-4.069,1.942-4.9,4.162-1.572,6.1,3.977,6.289,3.792a2.547,2.547,0,0,0,.832-2.4,6.268,6.268,0,0,0-1.2-2.5,3.341,3.341,0,0,1,2.5-.277,5.812,5.812,0,0,1,3.514,4.994,3.322,3.322,0,0,0-.925.647,4.827,4.827,0,0,0-1.2,3.884,3.921,3.921,0,0,0,1.572,2.867,3.139,3.139,0,0,0,1.757.462c.74,2.312,2.312,4.532,5.364,8.138a7.963,7.963,0,0,1,1.017,8.416,14.443,14.443,0,0,1-4.439,4.994.7.7,0,0,0-.37.185A9.727,9.727,0,0,1,85,158.6a20.721,20.721,0,0,1-4.624-1.48c-1.942-1.2-3.237-2.682-4.069-2.22-.277.185.092,1.017.925,2.035-8.138-4.532-18.126-13.317-20.808-15.352.925-6.659,2.589-19.976,2.867-29.686a1.89,1.89,0,0,0,.832-.462c3.144-4.069,2.589-8.231,1.85-8.231-.555,0-1.2,2.035-2.589,4.347a20.06,20.06,0,0,0-.832-5.826h0a1.592,1.592,0,0,0-2.127-.832c-.832.277,4.162-1.665-3.607,43.558-.092.092-.185.185-.185.277a1.8,1.8,0,0,0,.832,2.4,2.921,2.921,0,0,1,1.572,2.035c0,.185,0,.74-1.017,1.387-3.237,2.035-8.6-2.589-8.6-2.589a1.769,1.769,0,0,0-1.757-.37c-9.525,3.144-15.352,1.942-16.739-.37-.74-1.295,0-3.237,2.035-5.086,5.826-5.364,14.889-2.589,14.889-2.589a1.874,1.874,0,0,0,2.312-1.2c.092-.37-1.665-1.295-4.347-1.942V121.056a1.647,1.647,0,0,0-.925-1.48,2.532,2.532,0,0,1-1.48-2.312,3.393,3.393,0,0,1,1.572-2.589,1.666,1.666,0,0,0,.832-1.48c-.832-14.982,4.624-19.328,6.011-20.068,4.716,1.665,10.635.925,15.259-1.017.555-.185,1.11-.37,1.757-.555L68.815,98.4a1.719,1.719,0,0,0,1.387.832h.462v.277a1.7,1.7,0,0,0,.925-.647L75.843,92.2a5.139,5.139,0,0,0,8.6-4.162l8.6,1.295a1.673,1.673,0,0,0,1.572-.647,1.553,1.553,0,0,0,.185-1.665L90.64,78.33a1.277,1.277,0,0,0-.277-.37l1.387-1.11h.092a18.946,18.946,0,0,1,17.109,7.676c1.2,1.572,1.387-2.035.185-3.514A13.353,13.353,0,0,0,113.39,76.2a7.636,7.636,0,0,0,5.179,2.959c1.572.185-5.826-3.977-5.549-11.837a9.305,9.305,0,0,1,3.052-6.936,8.494,8.494,0,0,1,7.028-.555,7.563,7.563,0,0,1,4.162,6.381c1.757,9.618-9.34,24.6-9.34,24.785a1.664,1.664,0,0,0-.092,1.942s1.295,2.035-.277,3.052c-1.48,1.017-3.422-.462-3.422-.462a1.819,1.819,0,0,0-2.035-.185l-3.514,1.942a2.018,2.018,0,0,0-.462.37,63.56,63.56,0,0,0-6.381-6.844c-1.295-.74-1.48,1.942.185,3.237a30.446,30.446,0,0,1,8.786,36.9c-.277.555,4.162-2.867,5.549-9.433a1.84,1.84,0,0,1,1.48.647c.185,2.867,0,8.138.832,8.416.185.092.37.092.555.185.74,0,2.127-6.289,1.757-9.063a26.861,26.861,0,0,1,.37-6.659,4.428,4.428,0,0,1,3.237-3.977,3.871,3.871,0,0,1,2.035,1.017c.092.092.092.185.185.185,1.665,1.757,2.682,4.9,3.329,4.716.462-.092.277-2.682-.555-5.179l.092-.092a2.6,2.6,0,0,1,3.422-1.11c3.422,1.017,4.9,8.508,5.086,7.491a16.8,16.8,0,0,0,.277-2.959,2.267,2.267,0,0,1,2.959.832c.185.277,1.017,1.11,1.017,4.069a.7.7,0,0,1-.37-.092,2.852,2.852,0,0,0-1.757,0,4.468,4.468,0,0,0-2.589,2.589,3.66,3.66,0,0,0,.185,2.959,2.8,2.8,0,0,0,1.757,1.295,2.851,2.851,0,0,0,1.757,0v.092l.092-.092A48.3,48.3,0,0,1,135.4,140.476ZM79.635,120.5a5.986,5.986,0,0,0-3.607.092,6.7,6.7,0,0,0-3.422,3.144,20.161,20.161,0,0,1-1.387-5.641h-.185c-.832-6.566,1.48-16.554,14.427-20.623a13.771,13.771,0,0,1,11.745.832,20.2,20.2,0,0,1,8.786,13.225c1.387,6.1,2.774,20.068-11.653,24.97a10.883,10.883,0,0,1-1.2-4.809,44.935,44.935,0,0,0-.647-5.086,9.141,9.141,0,0,0-6.011-7.676A6.3,6.3,0,0,0,79.635,120.5Z" transform="translate(-9.967 -3.849)" fill="#0e2543"/>
      <path id="Path_73" data-name="Path 73" d="M64.806,79.449c1.387,1.757,7.676,4.532,14.889,1.387a12.848,12.848,0,0,1-.555,5.919,21.646,21.646,0,0,1-6.474.462c-6.844-.832-11.653-2.4-11.468-1.757.185.555,2.127,3.329,8.231,4.254a21.643,21.643,0,0,0,10.543-.74,1.078,1.078,0,0,0,.647-.185h0c2.867-1.11,4.717-2.774,5.179-4.439-1.017.555-2.127,1.017-3.144,1.48a12,12,0,0,0,.092-6.751C87,75.195,87.094,67.889,84.6,64.652c-2.774-3.7-8.138-3.7-13.317-.74a20.215,20.215,0,0,0-6.751,6.659A7.5,7.5,0,0,0,64.806,79.449Z" transform="translate(-13.819 -8.205)" fill="#0e2543"/>
    </g>
    <g id="white_highlitghts_above_outline" data-name="white highlitghts above outline" transform="translate(55.858 48.922)">
      <path id="Path_74" data-name="Path 74" d="M83.589,54.271l-.462-.185a4.272,4.272,0,0,0-.647.647,2.254,2.254,0,0,0,.832,2.959,1.966,1.966,0,0,0,1.757.092A3.223,3.223,0,0,0,83.589,54.271Z" transform="translate(-62.041 -54.086)" fill="#fff"/>
      <path id="Path_75" data-name="Path 75" d="M61.14,66.586a2.117,2.117,0,0,0-.74,1.572,2.21,2.21,0,0,0,.462,1.295,2.183,2.183,0,0,0,3.052.277v-.092A3.26,3.26,0,0,0,61.14,66.586Z" transform="translate(-60.4 -55.026)" fill="#fff"/>
      <ellipse id="Ellipse_10" data-name="Ellipse 10" cx="2.035" cy="2.775" rx="2.035" ry="2.775" transform="translate(23.672 100.026) rotate(-55.932)" fill="#fff"/>
      <ellipse id="Ellipse_11" data-name="Ellipse 11" cx="1.11" cy="1.85" rx="1.11" ry="1.85" transform="translate(16.22 86.705) rotate(-26.514)" fill="#fff"/>
      <ellipse id="Ellipse_12" data-name="Ellipse 12" cx="1.11" cy="1.85" rx="1.11" ry="1.85" transform="translate(22.947 80.396) rotate(-26.532)" fill="#fff"/>
      <ellipse id="Ellipse_13" data-name="Ellipse 13" cx="1.11" cy="1.85" rx="1.11" ry="1.85" transform="translate(31.308 78.791) rotate(-4.38)" fill="#fff"/>
      <ellipse id="Ellipse_14" data-name="Ellipse 14" cx="1.85" cy="2.59" rx="1.85" ry="2.59" transform="matrix(0.977, -0.211, 0.211, 0.977, 67.192, 83.422)" fill="#fff"/>
      <ellipse id="Ellipse_15" data-name="Ellipse 15" cx="1.017" cy="1.665" rx="1.017" ry="1.665" transform="translate(67.596 68.073) rotate(-0.311)" fill="#fff"/>
      <ellipse id="Ellipse_16" data-name="Ellipse 16" cx="1.017" cy="1.665" rx="1.017" ry="1.665" transform="translate(75.457 67.888) rotate(-0.311)" fill="#fff"/>
      <ellipse id="Ellipse_17" data-name="Ellipse 17" cx="1.017" cy="1.665" rx="1.017" ry="1.665" transform="matrix(1, -0.006, 0.006, 1, 82.023, 70.57)" fill="#fff"/>
      <path id="Path_76" data-name="Path 76" d="M87.2,97.9c1.387.092,1.572-2.22,1.295-2.959-.277-.647-.925-2.127-1.942-1.757s-.37,1.942-.092,2.682C86.833,96.6,86.555,97.805,87.2,97.9Z" transform="translate(-62.325 -57.022)" fill="#fff"/>
      <path id="Path_77" data-name="Path 77" d="M94.262,86.674c-1.2.832,1.2,3.514,1.48,4.347S93.8,92.037,93.8,92.777c0,.647,3.144.647,4.439.185,1.295-.555-.647-2.589-2.127-5.086C95.742,86.859,95.095,86.211,94.262,86.674Z" transform="translate(-62.912 -56.525)" fill="#fff"/>
      <circle id="Ellipse_18" data-name="Ellipse 18" cx="1.017" cy="1.017" r="1.017" transform="translate(19.985 19)" fill="#fff"/>
      <path id="Path_78" data-name="Path 78" d="M79.974,65.061c-1.017,1.017.647,2.035,1.572,3.144a3.759,3.759,0,0,1,.832,2.959,1.046,1.046,0,0,0,1.017,1.11,1.742,1.742,0,0,0,.74-.185c.74-.647,1.017-2.127.092-4.254S80.991,64.044,79.974,65.061Z" transform="translate(-61.848 -54.888)" fill="#fff"/>
    </g>
  </g>
</svg>
