<svg id="Groupe_930" data-name="Groupe 930" xmlns="http://www.w3.org/2000/svg" xmlns:xlink="http://www.w3.org/1999/xlink" width="22.26" height="18.495" viewBox="0 0 22.26 18.495">
  <defs>
    <clipPath id="clip-path">
      <rect id="Rectangle_667" data-name="Rectangle 667" width="22.26" height="18.495" fill="#edf7f3"/>
    </clipPath>
  </defs>
  <g id="Groupe_929" data-name="Groupe 929" clip-path="url(#clip-path)">
    <path id="Tracé_3538" data-name="Tracé 3538" d="M15.32,4.615H4.2L6.714,2.1A1.229,1.229,0,0,0,4.976.359L.36,4.974A1.234,1.234,0,0,0,.2,5.165l-.014.022,0,.008a1.242,1.242,0,0,0-.094.183L.083,5.4l0,.009a1.217,1.217,0,0,0-.056.2l-.005.027v.01A1.233,1.233,0,0,0,0,5.833v.024a1.23,1.23,0,0,0,.017.191v.01l0,.023a1.235,1.235,0,0,0,.056.2l0,.013.008.02a1.232,1.232,0,0,0,.094.183l.007.011.013.019a1.228,1.228,0,0,0,.154.188l4.616,4.616A1.229,1.229,0,0,0,6.714,9.591L4.2,7.073H15.32a4.482,4.482,0,0,1,0,8.964H5.736a1.229,1.229,0,1,0,0,2.458H15.32a6.94,6.94,0,1,0,0-13.879" transform="translate(0 0.001)" fill="#edf7f3"/>
  </g>
</svg>
