<svg xmlns="http://www.w3.org/2000/svg" width="81.69" height="81.703" viewBox="0 0 81.69 81.703">
  <path id="Path_897" data-name="Path 897" d="M257.664,531.01a2.336,2.336,0,0,1-2.379-2.285v-9.889l-9.486,6.874a2.438,2.438,0,0,1-3.331-.447,2.223,2.223,0,0,1,.465-3.2l12.35-8.952v-6.744l-9.473,6.867a2.453,2.453,0,0,1-2.494.225,2.272,2.272,0,0,1-1.4-2.44l1.71-10.8-6.517,3.461-2.262,14.259a2.364,2.364,0,0,1-2.711,1.914,2.3,2.3,0,0,1-1.994-2.6l1.708-10.782-9.432,5a2.427,2.427,0,0,1-3.234-.9,2.234,2.234,0,0,1,.932-3.1l9.156-4.85-10.943-3.995a2.256,2.256,0,0,1-1.378-2.948,2.4,2.4,0,0,1,3.063-1.322l14.708,5.361,6.3-3.341-10.933-3.995a2.333,2.333,0,0,1,0-4.383l10.933-4-6.315-3.336-14.693,5.36a2.412,2.412,0,0,1-3.063-1.325,2.259,2.259,0,0,1,1.378-2.948l10.92-3.995-9.151-4.85a2.241,2.241,0,0,1-.937-3.107,2.43,2.43,0,0,1,3.232-.9l9.445,4.988-1.718-10.8a2.3,2.3,0,0,1,1.994-2.606,2.377,2.377,0,0,1,2.713,1.915l2.267,14.277,6.512,3.446-1.715-10.79a2.259,2.259,0,0,1,1.105-2.3,2.458,2.458,0,0,1,2.782.059l9.483,6.869V467.21l-12.342-8.934a2.228,2.228,0,0,1-.467-3.2,2.448,2.448,0,0,1,3.331-.449l9.47,6.861v-9.879a2.333,2.333,0,0,1,2.376-2.3h0a2.336,2.336,0,0,1,2.379,2.285v9.891l9.486-6.877a2.44,2.44,0,0,1,3.334.447,2.228,2.228,0,0,1-.467,3.2l-12.35,8.952v6.744l9.473-6.869a2.458,2.458,0,0,1,2.5-.22,2.274,2.274,0,0,1,1.391,2.438l-1.71,10.8,6.517-3.459,2.262-14.262a2.374,2.374,0,0,1,2.711-1.914,2.3,2.3,0,0,1,1.994,2.6l-1.708,10.782,9.411-5a2.433,2.433,0,0,1,3.234.9,2.239,2.239,0,0,1-.932,3.1L286,477.7l10.943,3.995a2.259,2.259,0,0,1,1.378,2.948,2.4,2.4,0,0,1-3.063,1.325l-14.708-5.36-6.3,3.344,10.933,3.992a2.333,2.333,0,0,1,.036,4.373l-10.8,4.084,6.162,3.26,14.7-5.376a2.407,2.407,0,0,1,3.063,1.322,2.259,2.259,0,0,1-1.376,2.948l-10.923,3.995,9.154,4.85a2.239,2.239,0,0,1,.937,3.1,2.43,2.43,0,0,1-3.232.9l-9.445-4.988,1.718,10.8a2.3,2.3,0,0,1-1.994,2.606,2.364,2.364,0,0,1-2.711-1.915L278.2,503.631l-5.955-3.15,1.613,10.509a2.3,2.3,0,0,1-2.006,2.593,2.617,2.617,0,0,1-.35.023,2.435,2.435,0,0,1-1.986-.4l-9.483-6.869v6.752l12.342,8.934a2.229,2.229,0,0,1,.467,3.2,2.451,2.451,0,0,1-3.331.449l-9.47-6.861V528.7a2.333,2.333,0,0,1-2.376,2.3Zm2.356-30.376,8.352,6.05L267,497.734l-6.984-3.691Zm-11.155-3.2-1.4,8.868,7.8-5.657v-6.6Zm13.695-7.27,6.42,3.4,8.9-3.367-9.1-3.318Zm-25.069.015,9.006,3.29,6.213-3.3-6.211-3.288Zm11.357-7.27,6.407,3.385V479.7l-7.821-5.654Zm11.16-3.216v6.6l6.382-3.392,1.4-8.868Z" transform="translate(-216.799 -449.308)" fill="#fff"/>
</svg>
