<svg id="Component_26_2" data-name="Component 26 – 2" xmlns="http://www.w3.org/2000/svg" width="60" height="60" viewBox="0 0 60 60">
  <circle class="nav-bg" data-name="Ellipse 72" cx="25.958" cy="25.958" r="25.958" transform="translate(4 4)" fill="#fff"/>
  <g id="Group_195" data-name="Group 195">
    <path data-name="Path 589" d="M178.817,148.817a30,30,0,1,0,30,30A30,30,0,0,0,178.817,148.817Zm0,54.833a24.833,24.833,0,1,1,24.834-24.834A24.862,24.862,0,0,1,178.817,203.65Z" transform="translate(-148.817 -148.817)" fill="#fb414d"/>
  </g>
  <path class="nav-border" data-name="Path 590" d="M338.338,322.26l-6.012,6.012-6.012-6.012a2.866,2.866,0,1,0-4.053,4.053l6.012,6.012-6.012,6.012a2.866,2.866,0,0,0,0,4.053h0a2.866,2.866,0,0,0,4.053,0l6.012-6.012,6.012,6.012a2.866,2.866,0,0,0,4.053-4.053l-6.012-6.012,6.012-6.012a2.866,2.866,0,0,0,0-4.053h0A2.866,2.866,0,0,0,338.338,322.26Z" transform="translate(-302.325 -302.326)" fill="#fb414d"/>
</svg>
