<svg xmlns="http://www.w3.org/2000/svg" width="219.465" height="146.596" viewBox="0 0 219.465 146.596">
  <g id="Groupe_267" data-name="Groupe 267" transform="translate(-1132.72 -545.057)">
    <g id="Groupe_265" data-name="Groupe 265" transform="translate(1138.466 545.057)">
      <path id="Tracé_172" data-name="Tracé 172" d="M1263.657,668.341H1226.87v-7.007h36.788a5.261,5.261,0,0,0,5.255-5.255v-98.1a5.261,5.261,0,0,0-5.255-5.255H1226.87l-75.281-.659h-.047a5.256,5.256,0,0,0-5.255,5.255V594.03h-7.007V557.32a12.262,12.262,0,0,1,12.26-12.263h.109l75.251.659h36.757a12.276,12.276,0,0,1,12.263,12.263v98.1A12.276,12.276,0,0,1,1263.657,668.341Z" transform="translate(-1139.28 -545.057)" fill="#fff"/>
      <path id="Tracé_173" data-name="Tracé 173" d="M1331.805,702.852a24.525,24.525,0,1,1,24.525-24.525A24.553,24.553,0,0,1,1331.805,702.852Zm0-42.043a17.518,17.518,0,1,0,17.518,17.518A17.538,17.538,0,0,0,1331.805,660.809Z" transform="translate(-1160.129 -558.553)" fill="#fff"/>
      <rect id="Rectangle_18" data-name="Rectangle 18" width="30.902" height="7.007" transform="translate(119.753 116.271)" fill="#fff"/>
      <path id="Tracé_174" data-name="Tracé 174" d="M1359.6,672.4h-8.759v-7.007h8.759a5.261,5.261,0,0,0,5.255-5.255v-33.38a5.245,5.245,0,0,0-1.381-3.551l-33.633-36.691a5.273,5.273,0,0,0-3.875-1.7H1291.28V577.8h34.686a12.294,12.294,0,0,1,9.039,3.977l33.634,36.691a12.23,12.23,0,0,1,3.223,8.286v33.38A12.276,12.276,0,0,1,1359.6,672.4Z" transform="translate(-1158.144 -549.121)" fill="#fff"/>
      <path id="Tracé_175" data-name="Tracé 175" d="M1371.337,628.838h-43.795a12.277,12.277,0,0,1-12.263-12.263V593.8h7.007v22.773a5.261,5.261,0,0,0,5.255,5.255h43.795Z" transform="translate(-1161.122 -551.106)" fill="#fff"/>
    </g>
    <g id="Groupe_266" data-name="Groupe 266" transform="translate(1132.72 590.507)">
      <path id="Tracé_176" data-name="Tracé 176" d="M1214.669,645.684h-25.738v-7.007h25.738a.877.877,0,0,0,.876-.876v-13.83a.877.877,0,0,0-.876-.876H1140.6a.877.877,0,0,0-.876.876V637.8a.877.877,0,0,0,.876.876h25.738v7.007H1140.6a7.893,7.893,0,0,1-7.883-7.883v-13.83a7.892,7.892,0,0,1,7.883-7.883h74.066a7.892,7.892,0,0,1,7.883,7.883V637.8A7.893,7.893,0,0,1,1214.669,645.684Z" transform="translate(-1132.72 -599.322)" fill="#fff"/>
      <path id="Tracé_177" data-name="Tracé 177" d="M1208.207,703.669H1149.2a7.893,7.893,0,0,1-7.883-7.883V641.877h26.092v7.007h-19.085v46.9a.877.877,0,0,0,.876.876h59.007a.877.877,0,0,0,.876-.876v-46.9H1190v-7.007h26.092v53.909A7.893,7.893,0,0,1,1208.207,703.669Z" transform="translate(-1133.787 -602.523)" fill="#fff"/>
      <path id="Tracé_178" data-name="Tracé 178" d="M1196.7,700.469h-29.6v-84.38h29.6Zm-22.589-7.007h15.582V623.1h-15.582Z" transform="translate(-1136.987 -599.322)" fill="#fff"/>
      <path id="Tracé_179" data-name="Tracé 179" d="M1174.883,620.724a20.819,20.819,0,0,1-12.7-4.676,10.516,10.516,0,0,1,0-15.972,12.742,12.742,0,0,1,16.726,0h0a17.408,17.408,0,0,1,5.431,11.9,8.413,8.413,0,0,1-2.687,6.509A9.982,9.982,0,0,1,1174.883,620.724Zm-4.337-16.753a5.584,5.584,0,0,0-3.706,1.34,3.519,3.519,0,0,0,0,5.5c2.72,2.421,8.813,3.632,10.154,2.44a1.983,1.983,0,0,0,.338-1.274,10.574,10.574,0,0,0-3.08-6.667h0A5.585,5.585,0,0,0,1170.546,603.971Z" transform="translate(-1135.92 -596.947)" fill="#fff"/>
      <path id="Tracé_180" data-name="Tracé 180" d="M1189.457,620.724a9.982,9.982,0,0,1-6.77-2.236,8.413,8.413,0,0,1-2.687-6.509,17.411,17.411,0,0,1,5.431-11.9,12.74,12.74,0,0,1,16.726,0,10.515,10.515,0,0,1,0,15.971h0A20.819,20.819,0,0,1,1189.457,620.724Zm4.337-16.753a5.584,5.584,0,0,0-3.706,1.34,10.581,10.581,0,0,0-3.081,6.668,1.983,1.983,0,0,0,.338,1.274c1.342,1.194,7.433-.019,10.154-2.44h0a3.518,3.518,0,0,0,0-5.5A5.58,5.58,0,0,0,1193.794,603.971Z" transform="translate(-1138.588 -596.947)" fill="#fff"/>
    </g>
  </g>
</svg>
