<svg xmlns="http://www.w3.org/2000/svg" width="20" height="25" viewBox="0 0 20 25">
  <g id="Group_328" data-name="Group 328" transform="translate(-48.004)">
    <g id="Group_327" data-name="Group 327" transform="translate(48.004)">
      <path id="Path_775" data-name="Path 775" d="M58.339,0C51.592,0,48,4.391,48,9.179c0,2.22,1.222,4.989,3.177,5.867.3.136.458.078.525-.2.058-.213.315-1.236.44-1.719a.447.447,0,0,0-.1-.434,5.75,5.75,0,0,1-1.165-3.455,6.677,6.677,0,0,1,7.062-6.582c3.846,0,6.537,2.538,6.537,6.167,0,4.1-2.137,6.939-4.914,6.939a2.223,2.223,0,0,1-2.319-2.741c.438-1.8,1.3-3.745,1.3-5.047a1.926,1.926,0,0,0-1.976-2.133c-1.565,0-2.834,1.574-2.834,3.686a5.322,5.322,0,0,0,.468,2.249s-1.548,6.35-1.836,7.536a17.122,17.122,0,0,0,.114,5.539.162.162,0,0,0,.3.077,19.783,19.783,0,0,0,2.548-4.874c.191-.714.974-3.61.974-3.61a4.232,4.232,0,0,0,3.588,1.738C64.6,18.182,68,13.974,68,8.752,67.987,3.745,63.768,0,58.339,0Z" transform="translate(-48.004)" fill="#fff"/>
    </g>
  </g>
</svg>
