<svg xmlns="http://www.w3.org/2000/svg" width="31.084" height="28.841" viewBox="0 0 31.084 28.841">
  <path id="Icon_awesome-shopping-cart" data-name="Icon awesome-shopping-cart" d="M28.5,16.973,31.051,5.257a1.339,1.339,0,0,0-1.263-1.652H8.592L8.1,1.081A1.31,1.31,0,0,0,6.828,0H1.3A1.324,1.324,0,0,0,0,1.352v.9A1.324,1.324,0,0,0,1.3,3.605H5.066L8.857,22.951a3.179,3.179,0,0,0-1.518,2.736,3.09,3.09,0,0,0,3.022,3.154,3.09,3.09,0,0,0,3.022-3.154,3.213,3.213,0,0,0-.908-2.253H23.789a3.213,3.213,0,0,0-.908,2.253,3.025,3.025,0,1,0,6.044,0,3.169,3.169,0,0,0-1.7-2.839l.3-1.367a1.339,1.339,0,0,0-1.263-1.652H11.771l-.353-1.8h15.82A1.308,1.308,0,0,0,28.5,16.973Z" fill="#fff"/>
</svg>
