<svg xmlns="http://www.w3.org/2000/svg" width="195.417" height="191.442" viewBox="0 0 195.417 191.442">
  <g id="Groupe_285" data-name="Groupe 285" transform="translate(-525.52 -116.727)">
    <path id="Tracé_236" data-name="Tracé 236" d="M750.309,699.375H713.091a12.973,12.973,0,0,0-9.512,4.147,12.973,12.973,0,0,0-9.512-4.147H627.345v-92.88h62.9a9.849,9.849,0,0,1,9.838,9.838V693.08a3.5,3.5,0,0,0,6.994,0V616.333a9.849,9.849,0,0,1,9.838-9.838h62.9v71.059a3.5,3.5,0,1,0,6.994,0V603a3.5,3.5,0,0,0-3.5-3.5h-66.4a16.811,16.811,0,0,0-13.335,6.578,16.81,16.81,0,0,0-13.335-6.578h-66.4a3.5,3.5,0,0,0-3.5,3.5v99.873a3.5,3.5,0,0,0,3.5,3.5h70.219a6.022,6.022,0,0,1,6.015,6.015,3.5,3.5,0,0,0,6.994,0,6.021,6.021,0,0,1,6.015-6.015h37.218a3.5,3.5,0,1,0,0-6.994Z" transform="translate(-82.522 -420.108)" fill="#fff"/>
    <path id="Tracé_237" data-name="Tracé 237" d="M1650.219,1198.68l-9.4-9.4,5.835-5.836a3.5,3.5,0,0,0-1.036-5.661l-46.092-20.771a3.5,3.5,0,0,0-4.625,4.625l20.771,46.092a3.5,3.5,0,0,0,5.661,1.036l6.034-6.033,9.4,9.4a3.5,3.5,0,0,0,4.946,0l8.506-8.506a3.5,3.5,0,0,0,0-4.946Zm-10.979,6.033-9.4-9.4a3.5,3.5,0,0,0-4.946,0l-4.926,4.926-14.9-33.056,33.056,14.9-4.728,4.728a3.5,3.5,0,0,0,0,4.946l9.4,9.4Z" transform="translate(-930.306 -904.987)" fill="#fff"/>
    <path id="Tracé_238" data-name="Tracé 238" d="M667.777,791.21h-34.13a3.477,3.477,0,0,0-.686.068l-1.4.28a3.5,3.5,0,0,0-2.811,3.429,6.862,6.862,0,0,1-6.854,6.854h-1.958a6.862,6.862,0,0,1-6.854-6.854,3.5,3.5,0,0,0-3.5-3.5H536.011a3.5,3.5,0,0,1-3.5-3.5v-92.32a3.5,3.5,0,1,0-6.994,0v92.32a10.5,10.5,0,0,0,10.491,10.491h70.527a13.873,13.873,0,0,0,13.4,10.351H621.9A13.873,13.873,0,0,0,635.367,798.2h32.409a3.5,3.5,0,1,0,0-6.994Z" transform="translate(0 -500.754)" fill="#fff"/>
    <path id="Tracé_239" data-name="Tracé 239" d="M866.9,908.229a3.5,3.5,0,0,0,0-6.994h-23.22a3.5,3.5,0,0,0,0,6.994Z" transform="translate(-273.821 -682.676)" fill="#fff"/>
    <path id="Tracé_240" data-name="Tracé 240" d="M819.508,1006.842H781.181a3.5,3.5,0,1,0,0,6.994h38.327a3.5,3.5,0,0,0,0-6.994Z" transform="translate(-219.432 -774.575)" fill="#fff"/>
    <path id="Tracé_241" data-name="Tracé 241" d="M819.508,1112.448H781.181a3.5,3.5,0,1,0,0,6.994h38.327a3.5,3.5,0,0,0,0-6.994Z" transform="translate(-219.432 -866.473)" fill="#fff"/>
    <path id="Tracé_242" data-name="Tracé 242" d="M819.508,1218.055H781.181a3.5,3.5,0,0,0,0,6.994h38.327a3.5,3.5,0,0,0,0-6.994Z" transform="translate(-219.432 -958.372)" fill="#fff"/>
    <path id="Tracé_243" data-name="Tracé 243" d="M1940.7,767.431a3.5,3.5,0,0,0,3.5-3.5V695.673a3.5,3.5,0,1,0-6.994,0v68.261A3.5,3.5,0,0,0,1940.7,767.431Z" transform="translate(-1228.442 -500.754)" fill="#fff"/>
    <path id="Tracé_244" data-name="Tracé 244" d="M1238.091,143.864a3.5,3.5,0,0,0,3.5-3.5V120.224a3.5,3.5,0,0,0-6.994,0v20.143A3.5,3.5,0,0,0,1238.091,143.864Z" transform="translate(-617.034)" fill="#fff"/>
    <path id="Tracé_245" data-name="Tracé 245" d="M775.115,376.846,792.453,387.1a3.5,3.5,0,0,0,3.56-6.02l-17.337-10.254a3.5,3.5,0,0,0-3.56,6.02Z" transform="translate(-215.702 -220.692)" fill="#fff"/>
    <path id="Tracé_246" data-name="Tracé 246" d="M1001.924,256.537a3.5,3.5,0,0,0,5.578-4.22l-6.431-8.5a3.5,3.5,0,1,0-5.578,4.22Z" transform="translate(-408.353 -109.386)" fill="#fff"/>
    <path id="Tracé_247" data-name="Tracé 247" d="M1565.717,387.587a3.483,3.483,0,0,0,1.777-.487l17.337-10.254a3.5,3.5,0,0,0-3.56-6.02l-17.337,10.254a3.5,3.5,0,0,0,1.783,6.508Z" transform="translate(-902.129 -220.691)" fill="#fff"/>
    <path id="Tracé_248" data-name="Tracé 248" d="M1426.245,257.215a3.5,3.5,0,0,0,4.9-.679l6.431-8.5a3.5,3.5,0,0,0-5.578-4.22l-6.431,8.5A3.5,3.5,0,0,0,1426.245,257.215Z" transform="translate(-782.601 -109.385)" fill="#fff"/>
  </g>
</svg>
