<svg xmlns="http://www.w3.org/2000/svg" width="14" height="25" viewBox="0 0 14 25">
  <g id="Group_325" data-name="Group 325" transform="translate(-22.077)">
    <path id="Path_772" data-name="Path 772" d="M35.55.005,32.192,0c-3.773,0-6.211,2.415-6.211,6.153V8.989H22.605a.519.519,0,0,0-.528.51v4.11a.519.519,0,0,0,.528.51h3.376V24.49a.519.519,0,0,0,.528.51h4.405a.519.519,0,0,0,.528-.51V14.119H35.39a.519.519,0,0,0,.528-.51l0-4.11a.5.5,0,0,0-.155-.36.538.538,0,0,0-.374-.15H31.442v-2.4c0-1.156.285-1.743,1.845-1.743h2.262a.519.519,0,0,0,.528-.51V.515A.519.519,0,0,0,35.55.005Z" transform="translate(0)" fill="#fff"/>
  </g>
</svg>
