<svg id="Component_45_1" data-name="Component 45 – 1" xmlns="http://www.w3.org/2000/svg" width="48" height="48" viewBox="0 0 49.456 47.31">
  <g id="Group_262" data-name="Group 262" transform="translate(0 4.132)">
    <path id="Path_646" data-name="Path 646" d="M84.044,684.376l13.206-9.595a.134.134,0,0,0-.079-.242H80.465a.134.134,0,0,1-.127-.092l-5.163-15.889a.134.134,0,0,0-.254,0h0a2.185,2.185,0,0,0-.066-.551.345.345,0,0,0-.626-.082,7.879,7.879,0,0,0-.464,2.162c-.174.893-.408,1.773-.649,2.649-.418,1.523-.915,3.028-1.278,4.565-.142.6-.257,1.258-.385,1.927a.147.147,0,0,1,0,.016l-1.271,3.913a.148.148,0,0,1-.014.031,4.76,4.76,0,0,1-.782.968.217.217,0,0,0-.063.214.134.134,0,0,1-.129.168H52.926a.134.134,0,0,0-.079.242l13.1,9.516a.134.134,0,0,1,.051.141,68.351,68.351,0,0,1-2.336,7.119,23.668,23.668,0,0,0-1.826,7.263.13.13,0,0,1-.006.035l-.579,1.783a.134.134,0,0,0,.206.149l13.516-9.82a.134.134,0,0,1,.157,0l13.516,9.82a.134.134,0,0,0,.206-.149l-3.255-10.018a.126.126,0,0,1,0-.021c-.293-2.093-1.281-4.016-1.6-6.095A.134.134,0,0,1,84.044,684.376Z" transform="translate(-52.792 -657.76)" fill="#fbca11"/>
  </g>
  <g id="Group_263" data-name="Group 263">
    <path id="Path_647" data-name="Path 647" d="M95.08,676.578c-3.812-.041-7.613.2-11.423.233-1.2.009-2.4.091-3.605.127a11.472,11.472,0,0,1-3.061-.085c-.131-2.767-2.005-5.119-2.717-7.738-.862-3.169-2.609-6.117-2.971-9.414-.054-.494-.822-.7-.935-.127a62.048,62.048,0,0,1-5.61,16.816c-2.5.315-5.031.183-7.545.333-3.277.2-6.577.141-9.858.133a.531.531,0,0,0-.372.9c2,1.956,4.682,2.849,6.986,4.363a33.2,33.2,0,0,1,3.568,3.126,41.93,41.93,0,0,0,3.5,2.835c-.393,1.268-.642,2.591-1.015,3.866-.44,1.507-.958,2.991-1.473,4.474-1,2.869-2.054,5.724-2.785,8.677a.532.532,0,0,0,.884.514,57.346,57.346,0,0,1,6.9-5.723q1.869-1.349,3.825-2.573c1.106-.694,2.317-1.245,3.4-1.969l.01-.008c4.759,3.775,10.12,6.692,14.953,10.366.481.366.939-.31.741-.741-2.531-5.505-3.542-11.548-5.85-17.135a1.477,1.477,0,0,0,.908-.48,19.746,19.746,0,0,1,1.606-1.2c1.148-.8,2.329-1.55,3.483-2.342,2.954-2.029,5.807-4.214,8.71-6.315A.5.5,0,0,0,95.08,676.578ZM85.912,683c-1.159.791-2.344,1.542-3.5,2.34-.66.456-2.067,1.158-2.165,2.06-.219-.03-.452.125-.357.4,1.83,5.21,2.876,10.684,4.869,15.834-4.333-3.149-9.026-5.785-13.224-9.124a.6.6,0,0,0-.722-.021.421.421,0,0,0-.438-.068,18.683,18.683,0,0,0-3.355,1.849c-1.372.847-2.706,1.757-4.017,2.7a62.848,62.848,0,0,0-5.736,4.6c.663-2.319,1.465-4.595,2.243-6.877.507-1.485.987-2.979,1.409-4.491a18.623,18.623,0,0,0,.825-4.048.573.573,0,0,0-.041-.9,39.118,39.118,0,0,1-3.42-2.755c-1.128-.994-2.18-2.115-3.385-3.012-1.9-1.416-4.19-2.192-6.1-3.576,2.8-.01,5.607-.039,8.409-.175,2.537-.123,5.316.148,7.769-.6a.414.414,0,0,0,.242-.532,30.464,30.464,0,0,0,3.642-7.694,63.037,63.037,0,0,0,1.942-6.854c.612,2.233,1.627,4.348,2.309,6.57a35.436,35.436,0,0,0,1.489,4.1,11.879,11.879,0,0,1,1.316,4.356.554.554,0,0,0,.9.406,9.4,9.4,0,0,0,2.613.23c1.31.01,2.62-.049,3.93-.062,3.409-.037,6.85-.267,10.264-.152C91.044,679.317,88.522,681.223,85.912,683Z" transform="translate(-46.466 -658.866)" fill="#032d40"/>
    <path id="Path_648" data-name="Path 648" d="M82.385,702.54a.83.83,0,0,1-.5-.18c-2.252-1.712-4.665-3.288-7-4.813-2.591-1.693-5.267-3.442-7.753-5.394-.544.349-1.119.662-1.677.967-.506.276-1.03.562-1.519.869-1.3.818-2.585,1.679-3.806,2.559a56.322,56.322,0,0,0-6.854,5.686.865.865,0,0,1-1.059.14.9.9,0,0,1-.436-1c.626-2.528,1.5-5.016,2.344-7.422q.226-.643.45-1.287l.019-.054c.5-1.437,1.017-2.922,1.449-4.4.17-.582.318-1.188.46-1.775.148-.607.3-1.233.48-1.845-1.009-.732-2.07-1.6-3.319-2.706-.371-.33-.74-.683-1.1-1.026a17.712,17.712,0,0,0-2.43-2.069c-.827-.543-1.726-1.017-2.595-1.475a18.405,18.405,0,0,1-4.445-2.932.9.9,0,0,1,.626-1.525h0l1.55.006c2.721.012,5.535.025,8.286-.138.979-.058,1.973-.074,2.934-.09,1.447-.023,2.941-.048,4.4-.218a61.791,61.791,0,0,0,5.487-16.549.757.757,0,0,1,.789-.637.91.91,0,0,1,.866.8,22.679,22.679,0,0,0,1.672,5.683A36.4,36.4,0,0,1,71,665.385a19.061,19.061,0,0,0,1.2,2.991,13.693,13.693,0,0,1,1.509,4.544,9.534,9.534,0,0,0,2.093.045c.213-.011.413-.021.612-.027.464-.014.938-.035,1.4-.055.726-.032,1.476-.066,2.218-.072,1.632-.013,3.293-.066,4.9-.117,2.138-.068,4.35-.139,6.532-.116a.815.815,0,0,1,.8.572.9.9,0,0,1-.337,1.006c-1,.722-2.006,1.466-2.981,2.186-1.865,1.377-3.793,2.8-5.736,4.134-.533.366-1.08.729-1.609,1.079-.617.409-1.256.833-1.872,1.261l-.07.049a18.608,18.608,0,0,0-1.507,1.125l-.01.009a2.486,2.486,0,0,1-.64.445c.992,2.472,1.754,5.055,2.493,7.557a67.961,67.961,0,0,0,3.193,9.175,1.03,1.03,0,0,1-.3,1.184A.779.779,0,0,1,82.385,702.54ZM67.2,691.282l.172.136c2.518,2,5.257,3.788,7.907,5.519,2.344,1.531,4.767,3.115,7.04,4.843.057.043.071.033.1.012a.3.3,0,0,0,.092-.31,68.5,68.5,0,0,1-3.23-9.273c-.688-2.329-1.4-4.73-2.289-7.032.663,2.016,1.232,4.072,1.786,6.072.792,2.86,1.61,5.817,2.695,8.62l.447,1.154-1-.727c-1.818-1.321-3.735-2.575-5.589-3.787-2.559-1.673-5.2-3.4-7.647-5.347a.236.236,0,0,0-.292,0Zm-9.453-6.713c-.205.666-.375,1.363-.539,2.038-.145.594-.294,1.208-.469,1.806-.437,1.5-.957,2.992-1.46,4.437l-.019.054q-.224.645-.451,1.289c-.839,2.39-1.707,4.862-2.324,7.356a.169.169,0,0,0,.087.192.143.143,0,0,0,.185-.023,57,57,0,0,1,6.941-5.76c1.233-.89,2.527-1.76,3.845-2.586.508-.318,1.041-.61,1.557-.891.611-.333,1.243-.678,1.819-1.063l.023-.017.177-.118-.175-.152c-.009-.008-.023-.02-.076,0a14.379,14.379,0,0,0-2.714,1.457c-.192.121-.383.242-.573.359-1.242.767-2.549,1.645-4,2.683a62.186,62.186,0,0,0-5.7,4.568l-.95.867.354-1.237c.572-2,1.256-4,1.919-5.93q.165-.482.33-.965c.579-1.7,1.025-3.117,1.4-4.471l.036-.129A18.018,18.018,0,0,0,57.75,684.569Zm9.789,5.81a.955.955,0,0,1,.6.211c2.416,1.922,5.048,3.643,7.592,5.307,1.535,1,3.113,2.035,4.646,3.113-.9-2.493-1.608-5.067-2.3-7.567-.655-2.365-1.332-4.811-2.156-7.156a.644.644,0,0,1,.1-.635.676.676,0,0,1,.306-.21c.26-.767,1.168-1.339,1.851-1.77.15-.094.292-.184.4-.261.628-.434,1.274-.86,1.9-1.273.527-.348,1.072-.707,1.6-1.069h0c1.582-1.08,3.16-2.227,4.687-3.335.7-.506,1.41-1.024,2.126-1.538-1.825-.025-3.67.032-5.465.088-1.211.038-2.462.077-3.69.09-.513.005-1.037.018-1.543.03-.783.019-1.594.039-2.394.032h-.287a9.143,9.143,0,0,1-2.273-.2.975.975,0,0,1-.8,0,.877.877,0,0,1-.51-.784,11.409,11.409,0,0,0-1.253-4.149l-.032-.071a35.993,35.993,0,0,1-1.5-4.14c-.307-1-.69-2-1.06-2.965-.291-.759-.589-1.535-.854-2.323-.5,2.031-1.041,3.869-1.644,5.586a31.3,31.3,0,0,1-3.6,7.661.829.829,0,0,1-.087.429.722.722,0,0,1-.432.364,19.887,19.887,0,0,1-5.713.579c-.744,0-1.448.008-2.145.041-2.321.113-4.608.154-7.215.17.633.38,1.294.723,1.94,1.058a22.815,22.815,0,0,1,3.164,1.866,25.945,25.945,0,0,1,2.25,1.963c.378.356.768.724,1.159,1.069a38.831,38.831,0,0,0,3.388,2.73.894.894,0,0,1,.391.683.983.983,0,0,1-.2.66,18.8,18.8,0,0,1-.8,3.87l-.036.128c-.382,1.368-.832,2.8-1.415,4.511q-.165.483-.331.966c-.524,1.528-1.061,3.1-1.544,4.671,1.419-1.231,3-2.471,4.81-3.769,1.461-1.048,2.781-1.935,4.038-2.711.188-.116.377-.235.567-.355a14.906,14.906,0,0,1,2.857-1.527.814.814,0,0,1,.572,0A.975.975,0,0,1,67.539,690.379ZM43.723,673.587a.16.16,0,0,0-.144.106.147.147,0,0,0,.027.167,17.574,17.574,0,0,0,4.276,2.808c.884.466,1.8.948,2.655,1.511a18.261,18.261,0,0,1,2.535,2.152c.352.337.715.686,1.076,1.007a41.323,41.323,0,0,0,3.47,2.81l.2.143.053-.048a.26.26,0,0,0,.078-.2.17.17,0,0,0-.081-.134,39.43,39.43,0,0,1-3.452-2.781c-.4-.352-.8-.725-1.177-1.085a25.348,25.348,0,0,0-2.185-1.908,22.216,22.216,0,0,0-3.065-1.8,23.636,23.636,0,0,1-3.03-1.769l-.9-.656,1.117,0c3.114-.012,5.733-.046,8.392-.175.714-.035,1.457-.039,2.177-.042a19.356,19.356,0,0,0,5.5-.547.1.1,0,0,0,.006-.034l-.078.01a43.036,43.036,0,0,1-4.666.246c-.953.016-1.939.032-2.9.089-2.774.165-5.6.152-8.332.14l-1.548-.006Zm44.259-.127c.676,0,1.352.009,2.024.032l1.082.037-.884.626c-1.009.714-2.027,1.454-3.012,2.169-1.531,1.112-3.113,2.261-4.7,3.348h0c-.534.365-1.082.726-1.611,1.075-.621.41-1.264.834-1.885,1.264-.125.086-.273.18-.43.279-.6.381-1.518.956-1.579,1.52l0,.02c.261-.03.384-.136.672-.383l.01-.009a19.2,19.2,0,0,1,1.566-1.17l.07-.049c.623-.434,1.265-.859,1.886-1.271.526-.349,1.071-.71,1.6-1.073,1.933-1.327,3.856-2.747,5.716-4.119.977-.721,1.987-1.467,2.987-2.19a.178.178,0,0,0,.07-.194c-.01-.03-.027-.063-.108-.064h0c-2.166-.023-4.37.048-6.5.116-1.61.051-3.275.1-4.916.117-.729.006-1.472.039-2.191.071-.46.02-.936.042-1.406.056-.193.006-.393.016-.6.026l-.229.011h.2c.789.007,1.592-.013,2.37-.032.509-.012,1.034-.025,1.553-.031,1.221-.013,2.469-.052,3.676-.089C84.906,673.508,86.446,673.46,87.983,673.46ZM67.146,656.913l.384,1.4c.329,1.2.786,2.393,1.229,3.548.375.978.763,1.989,1.076,3.012a35.329,35.329,0,0,0,1.473,4.057l.032.071a11.953,11.953,0,0,1,1.315,4.421.148.148,0,0,0,.087.147.227.227,0,0,0,.219-.015l.06-.047-.011,0-.013-.27a12.231,12.231,0,0,0-1.46-4.55,19.6,19.6,0,0,1-1.245-3.109,35.845,35.845,0,0,0-1.264-3.6,23.225,23.225,0,0,1-1.718-5.869.17.17,0,0,0-.092-.122.148.148,0,0,0-.106-.022.145.145,0,0,0-.016.048,65.61,65.61,0,0,1-4.646,14.894,37.945,37.945,0,0,0,2.442-5.762,62.38,62.38,0,0,0,1.931-6.815Z" transform="translate(-42.836 -655.231)" fill="#032d40"/>
  </g>
  <g id="Group_264" data-name="Group 264" transform="translate(15.796 33.931)">
    <path id="Path_649" data-name="Path 649" d="M224.439,1031.5a7.06,7.06,0,0,1-1.995,1.264c-.758.448-1.524.883-2.3,1.3-.173.092-.021.343.152.26.707-.34,1.4-.7,2.1-1.07.342-.182.682-.368,1.022-.553a4.1,4.1,0,0,1,1.345-.644C225.5,1031.982,224.9,1030.884,224.439,1031.5Z" transform="translate(-219.701 -1030.947)" fill="#032d40"/>
    <path id="Path_650" data-name="Path 650" d="M216.582,1031.069a.523.523,0,0,1-.467-.291.494.494,0,0,1,.215-.672c.71-.376,1.458-.8,2.287-1.287.173-.1.374-.2.586-.31a4.006,4.006,0,0,0,1.3-.859h0a.7.7,0,0,1,.847-.279.811.811,0,0,1,.466.841.691.691,0,0,1-.673.572,2.44,2.44,0,0,0-.869.4c-.116.072-.226.139-.334.2l-.129.07q-.447.244-.9.484c-.8.426-1.469.768-2.109,1.077A.521.521,0,0,1,216.582,1031.069Zm.089-.319h0Z" transform="translate(-216.058 -1027.32)" fill="#032d40"/>
  </g>
  <g id="Group_265" data-name="Group 265" transform="translate(21.698 33.269)">
    <path id="Path_651" data-name="Path 651" d="M281.536,1020.323a1.243,1.243,0,0,0-.132-.167.3.3,0,0,0-.425,0,1.234,1.234,0,0,0-.133.167.4.4,0,1,0,.69,0Z" transform="translate(-280.786 -1020.068)" fill="#032d40"/>
  </g>
  <g id="Group_266" data-name="Group 266" transform="translate(33.04 30.369)">
    <path id="Path_652" data-name="Path 652" d="M405.213,988.266a.048.048,0,0,0,0,.1A.048.048,0,0,0,405.213,988.266Z" transform="translate(-405.167 -988.266)" fill="#032d40"/>
  </g>
  <g id="Group_267" data-name="Group 267" transform="translate(31.228 30.45)">
    <path id="Path_653" data-name="Path 653" d="M391.518,999.316c-.265-1.031-.619-2.033-.966-3.039-.342-.99-.572-2.038-.95-3.011a.158.158,0,0,0-.31.042,9.509,9.509,0,0,0,.576,2.855c.316,1.118.7,2.208.956,3.344C390.927,999.958,391.634,999.766,391.518,999.316Z" transform="translate(-388.925 -992.791)" fill="#032d40"/>
    <path id="Path_654" data-name="Path 654" d="M387.51,996.49a.729.729,0,0,1-.21-.03.67.67,0,0,1-.466-.511c-.162-.722-.384-1.444-.6-2.143-.118-.385-.241-.784-.353-1.182-.043-.151-.088-.3-.134-.46a7.822,7.822,0,0,1-.455-2.508.515.515,0,0,1,.429-.5.529.529,0,0,1,.585.336c.221.568.393,1.163.56,1.739.123.426.251.866.395,1.284l.08.231c.318.919.646,1.87.9,2.836h0a.7.7,0,0,1-.191.69A.779.779,0,0,1,387.51,996.49Zm.021-.718a.009.009,0,0,0,0,0h0Zm.009-.007v.006l.341-.095Z" transform="translate(-385.29 -989.151)" fill="#032d40"/>
  </g>
  <g id="Group_268" data-name="Group 268" transform="translate(33.627 38.622)">
    <path id="Path_655" data-name="Path 655" d="M412.536,1079.125l0-.01,0-.012s0,0,0-.008a.3.3,0,0,0-.3-.3h-.008l-.008,0-.013,0a.477.477,0,1,0,.333.333Z" transform="translate(-411.603 -1078.769)" fill="#032d40"/>
  </g>
  <g id="Group_269" data-name="Group 269" transform="translate(35.595 20.937)">
    <path id="Path_656" data-name="Path 656" d="M439.854,886.865a16.217,16.217,0,0,0-4.645,3.432.121.121,0,0,0,.171.171,56.869,56.869,0,0,1,4.744-3.14A.268.268,0,0,0,439.854,886.865Z" transform="translate(-434.993 -886.645)" fill="#032d40"/>
    <path id="Path_657" data-name="Path 657" d="M433.478,888.86a.3.3,0,0,1-.225-.5,16.508,16.508,0,0,1,4.7-3.473.436.436,0,0,1,.6.161.444.444,0,0,1-.141.614c-.505.331-1.026.652-1.53.964a30.6,30.6,0,0,0-3.2,2.166A.317.317,0,0,1,433.478,888.86Zm4.646-3.657a18.013,18.013,0,0,0-4.093,2.851c.859-.635,1.769-1.2,2.654-1.743.5-.309,1.021-.63,1.521-.958a.082.082,0,0,0,.028-.122.074.074,0,0,0-.111-.028Z" transform="translate(-433.176 -884.823)" fill="#032d40"/>
  </g>
  <g id="Group_270" data-name="Group 270" transform="translate(35.523 21.339)">
    <path id="Path_658" data-name="Path 658" d="M436.106,891.243a4.916,4.916,0,0,0-1.619.938c-.2.153-.028.482.2.349a12.812,12.812,0,0,0,1.59-.986C436.427,891.427,436.268,891.2,436.106,891.243Z" transform="translate(-434.215 -891.055)" fill="#032d40"/>
    <path id="Path_659" data-name="Path 659" d="M432.757,890.928a.355.355,0,0,1-.3-.165.4.4,0,0,1,.093-.543,5.04,5.04,0,0,1,1.681-.969h0a.372.372,0,0,1,.424.2.331.331,0,0,1-.087.419,9.7,9.7,0,0,1-1.283.814l-.33.187A.4.4,0,0,1,432.757,890.928Zm1.557-1.32a4.807,4.807,0,0,0-1.536.9c-.019.015-.021.024-.021.032a.041.041,0,0,0,.007.022l.011-.006c.11-.063.221-.126.333-.189A9.7,9.7,0,0,0,434.314,889.607Z" transform="translate(-432.391 -889.239)" fill="#032d40"/>
  </g>
</svg>
