<svg id="Component_60_1" data-name="Component 60 – 1" xmlns="http://www.w3.org/2000/svg" width="92" height="92.001" viewBox="0 0 92 92.001">
  <path id="Path_1497" data-name="Path 1497" d="M693.915,1071.5l-32.909,19.312a2.315,2.315,0,0,1-3.487-2V1050.19a2.315,2.315,0,0,1,3.487-2l32.909,19.312a2.316,2.316,0,0,1,0,3.995Z" transform="translate(-626.096 -1023.501)" fill="#fb414d"/>
  <g id="Group_843" data-name="Group 843">
    <g id="Group_842" data-name="Group 842" transform="translate(0 0)">
      <path id="Path_1498" data-name="Path 1498" d="M452.242,848.185a46.146,46.146,0,1,0,3.615,17.906A45.836,45.836,0,0,0,452.242,848.185ZM409.858,906.8a40.707,40.707,0,1,1,40.708-40.707A40.754,40.754,0,0,1,409.858,906.8Z" transform="translate(-363.857 -820.09)" fill="#fb414d"/>
    </g>
  </g>
</svg>
