<svg class="burger" data-name="Component 18 – 2" xmlns="http://www.w3.org/2000/svg" width="55" height="30" viewBox="0 0 55 30">
  <path class="bline-1" data-name="Path 582" d="M214.3,382.17h-49.68a2.636,2.636,0,0,1-2.66-2.6h0a2.636,2.636,0,0,1,2.66-2.6H214.3a2.636,2.636,0,0,1,2.66,2.6h0A2.636,2.636,0,0,1,214.3,382.17Z" transform="translate(-161.958 -364.574)" fill="#fff"/>
  <path class="bline-2" data-name="Path 583" d="M286.831,272.17H246.625a2.636,2.636,0,0,1-2.66-2.6h0a2.636,2.636,0,0,1,2.66-2.6h40.207a2.636,2.636,0,0,1,2.66,2.6h0A2.636,2.636,0,0,1,286.831,272.17Z" transform="translate(-234.491 -266.978)" fill="#fff"/>
  <path class="bline-3" data-name="Path 584" d="M360.243,492.17H329.625a2.636,2.636,0,0,1-2.66-2.6h0a2.636,2.636,0,0,1,2.66-2.6h30.618a2.636,2.636,0,0,1,2.66,2.6h0A2.636,2.636,0,0,1,360.243,492.17Z" transform="translate(-307.902 -462.17)" fill="#fff"/>
</svg>
