<svg id="Group_326" data-name="Group 326" xmlns="http://www.w3.org/2000/svg" width="25" height="25" viewBox="0 0 25 25">
  <path id="Path_773" data-name="Path 773" d="M17.188,0H7.813A7.813,7.813,0,0,0,0,7.813v9.375A7.813,7.813,0,0,0,7.813,25h9.375A7.813,7.813,0,0,0,25,17.188V7.813A7.813,7.813,0,0,0,17.188,0Zm5.469,17.188a5.475,5.475,0,0,1-5.469,5.469H7.813a5.475,5.475,0,0,1-5.469-5.469V7.813A5.475,5.475,0,0,1,7.813,2.344h9.375a5.475,5.475,0,0,1,5.469,5.469Z" fill="#fff"/>
  <path id="Path_774" data-name="Path 774" d="M134.173,128a6.173,6.173,0,1,0,6.173,6.173A6.173,6.173,0,0,0,134.173,128Zm0,10.031a3.858,3.858,0,1,1,3.858-3.858A3.864,3.864,0,0,1,134.173,138.031Z" transform="translate(-121.673 -121.673)" fill="#fff"/>
  <circle id="Ellipse_74" data-name="Ellipse 74" cx="0.823" cy="0.823" r="0.823" transform="translate(18.402 4.953)" fill="#fff"/>
</svg>
