<svg xmlns="http://www.w3.org/2000/svg" width="37.97" height="27.029" viewBox="0 0 37.97 27.029">
  <g id="Group_198" data-name="Group 198" transform="translate(-1480.478 -123.379)">
    <g id="Group_194" data-name="Group 194" transform="translate(1480.478 123.379)">
      <g id="Group_192" data-name="Group 192" transform="translate(5.35 0)">
        <path id="Path_585" data-name="Path 585" d="M126.215,101.6A7.788,7.788,0,1,1,134,93.809,7.8,7.8,0,0,1,126.215,101.6Zm0-11.453a3.665,3.665,0,1,0,3.665,3.665A3.669,3.669,0,0,0,126.215,90.144Z" transform="translate(-118.427 -86.021)" fill="#fff"/>
      </g>
      <g id="Group_193" data-name="Group 193" transform="translate(0 11.453)">
        <path id="Path_586" data-name="Path 586" d="M120.04,151.6a2.062,2.062,0,0,1-2.062-2.062,9.391,9.391,0,1,0-18.783,0,2.062,2.062,0,1,1-4.123,0,13.515,13.515,0,1,1,27.029,0A2.061,2.061,0,0,1,120.04,151.6Z" transform="translate(-95.072 -136.021)" fill="#fff"/>
      </g>
    </g>
    <path id="Path_587" data-name="Path 587" d="M2684.233-613.81l3.549,3.549,3.549-3.549" transform="translate(-1175.711 749.481)" fill="none" stroke="#fff" stroke-linecap="round" stroke-linejoin="round" stroke-width="4"/>
  </g>
</svg>
