<svg xmlns="http://www.w3.org/2000/svg" width="49" height="49" viewBox="0 0 49 49">
  <g id="Group_837" data-name="Group 837" transform="translate(-1249 -997)">
    <circle id="Ellipse_77" data-name="Ellipse 77" cx="24.5" cy="24.5" r="24.5" transform="translate(1249 997)" fill="#fff"/>
    <g id="Group_836" data-name="Group 836" transform="translate(1093.865 789.485)">
      <path id="Path_1498" data-name="Path 1498" d="M196.73,231.848a17.955,17.955,0,0,0-1.418-1.555,25.017,25.017,0,0,0-3.415-2.821,23.182,23.182,0,0,0-5.286-2.728,20.7,20.7,0,0,0-7.01-1.229,19.063,19.063,0,0,0-6.712,1.218,21.013,21.013,0,0,0-5,2.715,21.483,21.483,0,0,0-4.553,4.436,1.077,1.077,0,0,0,0,1.261,21.486,21.486,0,0,0,4.553,4.436,21.006,21.006,0,0,0,5,2.715,19.059,19.059,0,0,0,6.712,1.218,20.7,20.7,0,0,0,7.01-1.229,23.181,23.181,0,0,0,5.286-2.729,25.022,25.022,0,0,0,3.415-2.821,17.963,17.963,0,0,0,1.418-1.555A1.077,1.077,0,0,0,196.73,231.848Zm-24.771,4.085a8.734,8.734,0,0,0,1.365,2.228,18.922,18.922,0,0,1-4.163-2.32,20.911,20.911,0,0,1-2.355-2,1.859,1.859,0,0,1,0-2.645,20.923,20.923,0,0,1,2.355-2,18.922,18.922,0,0,1,4.163-2.32,8.79,8.79,0,0,0-1.365,9.063Zm8.089,3.208a6.625,6.625,0,1,1,6.626-6.626A6.633,6.633,0,0,1,180.048,239.141Zm13.021-5.247a23.133,23.133,0,0,1-2.392,1.889,21.483,21.483,0,0,1-3.615,2.015,8.774,8.774,0,0,0,0-10.566,21.484,21.484,0,0,1,3.615,2.015,23.133,23.133,0,0,1,2.392,1.889A1.859,1.859,0,0,1,193.069,233.894Z" transform="translate(0)" fill="#fb414d"/>
      <circle id="Ellipse_76" data-name="Ellipse 76" cx="3.309" cy="3.309" r="3.309" transform="translate(176.739 229.206)" fill="#fb414d"/>
    </g>
  </g>
</svg>
