<svg xmlns="http://www.w3.org/2000/svg" width="13.445" height="16.556" viewBox="0 0 13.445 16.556">
  <g id="book-2-svgrepo-com" transform="translate(-3.5 -1.5)">
    <path id="Tracé_1" data-name="Tracé 1" d="M4,6.667c0-2.2,0-3.3.683-3.983S6.467,2,8.667,2h3.111c2.2,0,3.3,0,3.983.683s.683,1.783.683,3.983V12.89c0,2.2,0,3.3-.683,3.983s-1.783.683-3.983.683H8.667c-2.2,0-3.3,0-3.983-.683S4,15.09,4,12.89Z" fill="none" stroke="#fff" stroke-width="1"/>
    <path id="Tracé_2" data-name="Tracé 2" d="M16.366,16H7.032a5.849,5.849,0,0,0-1.382.079A2.334,2.334,0,0,0,4,17.729" transform="translate(0 -3.11)" fill="none" stroke="#fff" stroke-width="1"/>
    <path id="Tracé_3" data-name="Tracé 3" d="M8,7h6.223" transform="translate(-0.889 -1.111)" fill="none" stroke="#fff" stroke-linecap="round" stroke-width="1"/>
    <path id="Tracé_4" data-name="Tracé 4" d="M8,10.5h3.889" transform="translate(-0.889 -1.888)" fill="none" stroke="#fff" stroke-linecap="round" stroke-width="1"/>
    <path id="Tracé_5" data-name="Tracé 5" d="M16.945,19H8" transform="translate(-0.889 -3.777)" fill="none" stroke="#fff" stroke-linecap="round" stroke-width="1"/>
  </g>
</svg>
