<?xml version="1.0" encoding="utf-8"?>
<!-- Generator: Adobe Illustrator 25.0.0, SVG Export Plug-In . SVG Version: 6.00 Build 0)  -->
<svg version="1.1" id="Component_59_1" xmlns="http://www.w3.org/2000/svg" xmlns:xlink="http://www.w3.org/1999/xlink" x="0px"
	 y="0px" viewBox="0 0 52 27" style="enable-background:new 0 0 52 27;" xml:space="preserve">
<style type="text/css">
	.st0{fill:#FFFFFF;}
</style>
<g>
	<path class="st0" d="M19.2,12.6c1.1-1.3,1.7-3,1.7-4.8c0-4.3-3.5-7.8-7.8-7.8C8.8,0,5.3,3.5,5.3,7.8c0,1.9,0.7,3.7,1.9,5.1
		C2.9,15.2,0,19.7,0,25c0,0,0,0.1,0,0.1c0,1.1,1,2,2.1,2c1.1,0,2-1,2-2.1c0-5.2,4.2-9.4,9.4-9.4s9.4,4.2,9.4,9.4
		c0,1.1,0.9,2.1,2.1,2.1c0,0,0,0,0,0c1.1,0,2.1-0.9,2.1-2.1c0-0.1,0-0.2,0-0.2C27,19.4,23.8,14.8,19.2,12.6z M9.5,7.8
		c0-2,1.6-3.7,3.7-3.7v0c2,0,3.7,1.6,3.7,3.7c0,0,0,0,0,0c0,1.7-1.2,3.2-2.9,3.6c-0.2,0-0.4,0-0.5,0c-0.3,0-0.6,0-0.9,0.1
		C10.8,11.1,9.5,9.6,9.5,7.8z"/>
	<path class="st0" d="M50.6,10.9c-0.8-0.8-2-0.8-2.8,0L45.6,13l-2.1-2.1c-0.8-0.8-2-0.8-2.8,0c-0.8,0.8-0.8,2,0,2.8l3.5,3.5
		c0.4,0.4,0.9,0.6,1.4,0.6s1-0.2,1.4-0.6l3.5-3.5C51.3,12.9,51.3,11.7,50.6,10.9z"/>
</g>
</svg>
