<svg id="Component_59_1" data-name="Component 59 – 1" xmlns="http://www.w3.org/2000/svg" width="32" height="32" viewBox="0 0 32 32">
  <path id="Path_1248" data-name="Path 1248" d="M462.649,461.293V449.244a3.177,3.177,0,0,0-3.161-3.186h-2.839v-2.95l.724-.87a3.654,3.654,0,0,0,.725-3.413,6.726,6.726,0,0,0-1.585-3.316,1.233,1.233,0,0,0-1.894.16c-2.009,2.885-1.607,5.363-.652,6.607l.79.871v2.912h-4.811v-2.95l.724-.87a3.653,3.653,0,0,0,.725-3.413,6.717,6.717,0,0,0-1.584-3.316,1.219,1.219,0,0,0-.983-.367,1.233,1.233,0,0,0-.912.526c-2.008,2.885-1.607,5.362-.653,6.607l.79.871v2.912h-4.811v-2.95l.724-.87a3.653,3.653,0,0,0,.725-3.413,6.726,6.726,0,0,0-1.585-3.316,1.233,1.233,0,0,0-1.894.16c-2.008,2.885-1.607,5.362-.653,6.607l.79.871v2.912h-2.839a3.177,3.177,0,0,0-3.161,3.186v12.049a2.953,2.953,0,0,0,.576,5.844h26.146a2.953,2.953,0,0,0,.576-5.844Zm-6.976-23.719a6.631,6.631,0,0,1,.579,1.663,1.853,1.853,0,0,1-.3,1.738l-.289.347-.221-.243C455.078,440.574,454.762,439.31,455.673,437.574Zm-6.7,0a6.625,6.625,0,0,1,.578,1.663,1.852,1.852,0,0,1-.3,1.738l-.289.347-.221-.243C448.375,440.573,448.06,439.31,448.97,437.574Zm-6.7,0a6.638,6.638,0,0,1,.578,1.663,1.852,1.852,0,0,1-.3,1.738l-.29.347-.221-.243C441.672,440.574,441.357,439.31,442.267,437.575Zm16.12,11.984a4.18,4.18,0,0,0-2.134,1.365c-.423.405-1,.961-1.338.979h-.009c-.225,0-.676-.5-.976-.825l-.025-.027a3.792,3.792,0,0,0-2.207-1.489c-.963-.119-1.664.617-2.343,1.328-1.067,1.119-1.627,1.562-2.51,1.114a5.821,5.821,0,0,1-1.751-1.413,2.37,2.37,0,0,0-1.74-1.036c-.74,0-1.223.578-1.689,1.137-.663.794-1.154,1.308-1.908,1.217a4.055,4.055,0,0,1-2.514-1.705v-.958a1.275,1.275,0,0,1,1.269-1.279h20.976a1.275,1.275,0,0,1,1.268,1.279v1.4A3.179,3.179,0,0,0,458.387,449.558Zm-15.274,2.361c.077-.093.2-.234.3-.346.1.1.225.236.292.309a7.554,7.554,0,0,0,2.291,1.824,3.273,3.273,0,0,0,1.485.381c1.451,0,2.528-1.129,3.241-1.876a5.612,5.612,0,0,1,.794-.747,3.33,3.33,0,0,1,1,.875,3.332,3.332,0,0,0,2.509,1.467,4.271,4.271,0,0,0,2.538-1.5,4.126,4.126,0,0,1,1.079-.855,6.926,6.926,0,0,1,2.12,2v3.414H437.243v-4a4.877,4.877,0,0,0,2.287.932A4.033,4.033,0,0,0,443.113,451.919Zm-5.87,9.317v-2.541h23.513v2.541Zm25.864,2.95a1.04,1.04,0,0,1-1.035,1.043H435.927a1.043,1.043,0,0,1,0-2.086h26.146A1.04,1.04,0,0,1,463.108,464.186Z" transform="translate(-433 -435.137)" fill="#7940b1"/>
</svg>
