<svg id="Group_184" data-name="Group 184" xmlns="http://www.w3.org/2000/svg" width="305" height="102" viewBox="0 0 304.602 101.799">
  <circle id="beige_circle_bg" data-name="beige circle bg" cx="49.121" cy="49.121" r="49.121" fill="#ffeed6"/>
  <g id="bear_brown" data-name="bear brown" transform="translate(14.913 13.381)">
    <path id="Path_369" data-name="Path 369" d="M98.059,81.018s-3.4-6.573-6.808-2.7c0,0-4.636-2.465-5.634,2.171v4.636l-3.228-1.467s0-7.805-3.228-12.5L81.8,69.75s2.171,1.467,3.4.7.7-3.932.7-3.932,7.571-11.268,6.573-16.608-7.336-6.1-9.1-4.636a6.252,6.252,0,0,0-1.643,7.805,17.093,17.093,0,0,1-4.225,6.69s-6.045-5.693-9.977-3.756a1.283,1.283,0,0,0-.293.176c1-1.115,1.819-2,2.23-2.347,1.7-1.467,8.275-12.266-3.639-14.613L64.607,35.3s4.284-9.742-2.171-12.5c0,0-1.526,15.141-28.052,29.285l2.347,3.7s-4.93,9.683,4.93,10.974c-1.115-.059-6.28.352-6.28,13.557,0,0-3.521,2.23,0,4.988v9.859s-8.92,0-9.918,5.634,12.5,2.524,12.5,2.524,5.341,3.815,7.336,1.408a4.9,4.9,0,0,0,0-5.341s4.167,3.228,6.28,4.988c2.641,2.171,8.158,6.4,13.557,5.869,5.458-.469,6.749-4.578,7.219-7.747a21.418,21.418,0,0,0,6.514-3.58c2.23-1.7,6.749,0,7.453,1.174s13.2,8.568,15.141-18.076C101.463,81.957,99.761,79.55,98.059,81.018ZM50.4,65.994a25.9,25.9,0,0,1,5.106-1.056c3.7-.352,7.981-4.578,10.916-7.747C65.077,59.479,66.074,63.764,50.4,65.994Z" transform="translate(-25.41 -22.8)" fill="#da814d"/>
    <path id="Path_370" data-name="Path 370" d="M138.8,60.4l.646,6.1S145.784,63.745,138.8,60.4Z" transform="translate(-72.255 -38.334)" fill="#da814d"/>
  </g>
  <g id="bear_beige" data-name="bear beige" transform="translate(36.853 40.846)">
    <path id="Path_371" data-name="Path 371" d="M85.7,101.189a14.883,14.883,0,0,0-11.561,17.2c1.7,7.805,2.934-2.23,5.751-.293.7.469,4.578-1.937,6.045,0,2.465,3.228,2.641,9.918,2.641,9.918,6.925,0,10.212-4.812,10.212-12.324C98.9,108.055,92.386,99.78,85.7,101.189Z" transform="translate(-67.382 -82.585)" fill="#ffd192"/>
    <path id="Path_372" data-name="Path 372" d="M80.4,75.762c1-3.052-3.932-6.162-3.932-6.162S68.9,71.537,65.263,74.06a5.405,5.405,0,0,0-2.171,6.28C65.5,82.687,76.531,83.861,80.4,75.762Z" transform="translate(-62.795 -69.6)" fill="#ffd192"/>
  </g>
  <path id="blue_hat" data-name="blue hat" d="M20.739,37.973S2.487,21.951,17.863,9.686c0,0,14.026-14.437,29.637,5.106h0s1.878-7.571,7.277-5.106c0,0,7.336,3.228-3.932,16.843a78.618,78.618,0,0,1-28.052,21.3c-4.46,2.23-14.613-2.406-2.054-9.859" transform="translate(-4.835 -1.88)" fill="#4f89c8"/>
  <g id="red" transform="translate(15.552 10.036)">
    <path id="Path_373" data-name="Path 373" d="M26.969,41.983l-.469-.235,3.521,5.634s13.029-5.106,19.425-13.5S56.02,22.969,56.02,22.969L50.914,17.1A51.893,51.893,0,0,1,26.969,41.983Z" transform="translate(-26.5 -17.1)" fill="#dd192b"/>
    <path id="Path_374" data-name="Path 374" d="M125.507,25.3,110.6,33.868l2.465,22.595,3.58-1.761s-2.171-6.69,3.11-8.334c5.282-1.585,7.923,4.108,7.923,4.108Z" transform="translate(-61.244 -20.488)" fill="#dd192b"/>
    <path id="Path_375" data-name="Path 375" d="M124.918,23.117,115,20.3l.293,2.934Z" transform="translate(-63.062 -18.422)" fill="#dd192b"/>
    <ellipse id="Ellipse_53" data-name="Ellipse 53" cx="3.286" cy="1.937" rx="3.286" ry="1.937" transform="matrix(0.975, -0.221, 0.221, 0.975, 12.676, 37.393)" fill="#dd192b"/>
    <ellipse id="Ellipse_54" data-name="Ellipse 54" cx="3.287" cy="1.937" rx="3.287" ry="1.937" transform="translate(36.743 28.15) rotate(-49.112)" fill="#dd192b"/>
    <circle id="Ellipse_55" data-name="Ellipse 55" cx="1.291" cy="1.291" r="1.291" transform="translate(44.544 68.723)" fill="#dd192b"/>
  </g>
  <g id="white_highlight" data-name="white highlight" transform="translate(15.141 2.792)">
    <path id="Path_376" data-name="Path 376" d="M92.441,57.765l-.117,2.23a12.942,12.942,0,0,1,12.031,2.465,12.345,12.345,0,0,0-10.8-5.693c3.345-3.286,7.571-9.214,2.289-14.261-3.11-2.876-4.225-1.819-4.225-1.819L90.21,36.7s6.514-6.984-1.174-11.8l-1.115,3.11s2.993,5.106-.822,9.038l2.23,5.517s14.261,1.232,1.232,14.32v2.406S91.325,58.7,92.441,57.765Z" transform="translate(-51.125 -13.079)" fill="#fff"/>
    <path id="Path_377" data-name="Path 377" d="M69.251,85.923C72.3,81.932,72.3,81.052,72.3,81.052l-.646-.352a16.612,16.612,0,0,1-6.162,4.871c-2.758,1.174-5.927.7-7.571.939-2.582.352-9.331,5.693-15.024-.469,0,0,3.815,7.571,13.791,3.4C56.633,89.5,66.2,89.914,69.251,85.923Z" transform="translate(-32.864 -36.132)" fill="#fff"/>
    <path id="Path_378" data-name="Path 378" d="M49.568,15.7l.763-1.526-.117.411L55.5,19.924l.939-3.11-5.223-4.519.235-.528C37.185-1.438,25.8,8.069,25.8,8.069,40.237,2.552,49.568,15.7,49.568,15.7Z" transform="translate(-25.8 -4.758)" fill="#fff"/>
    <path id="Path_379" data-name="Path 379" d="M73.922,16.426c1.585,1,2.113,6.866-13.322,22.829,0,0,12.207-7.571,16.139-18.017v.469A11.831,11.831,0,0,0,77.913,16.6a16.581,16.581,0,0,0,.117-1.7,5.845,5.845,0,0,0-.587-.646,3.305,3.305,0,0,0-2-1.761c-3.4-1.115-7.512,4.343-7.512,4.343l2.993,3.169C71.4,17.541,72.279,15.487,73.922,16.426Z" transform="translate(-40.177 -7.892)" fill="#fff"/>
    <path id="Path_380" data-name="Path 380" d="M63.969,24.4,60.8,28.743l5.164,5.047,3.169-4.343Z" transform="translate(-40.259 -12.872)" fill="#fff"/>
    <path id="Path_381" data-name="Path 381" d="M54.892,107.788c-.293-.763-1.643,24.942-5.047,28.17,0,0,4.049,4.167-3.345,1.878,0,0,3.11,3.11,6.045,2.406,0,0,4.871-.822,1.232-4.167C53.777,136.076,57.592,114.244,54.892,107.788Z" transform="translate(-34.352 -47.316)" fill="#fff"/>
    <path id="Path_382" data-name="Path 382" d="M38.773,148.282s-2.171-1.761-7.688-.293-5.458,7.395-2.113,7.923C27.153,154.034,32.67,147.989,38.773,148.282Z" transform="translate(-26.156 -63.689)" fill="#fff"/>
    <path id="Path_383" data-name="Path 383" d="M92.725,105.061c-5.047-1.232-9.625,3.7-9.625,3.7,6.984-3.932,15.317-.88,17.254,9.742C100.413,118.5,101.352,107.232,92.725,105.061Z" transform="translate(-49.472 -46.114)" fill="#fff"/>
    <path id="Path_384" data-name="Path 384" d="M112.6,101.7c7.16,9.918,3.639,22.36,3.639,22.36C123.4,111.618,112.6,101.7,112.6,101.7Z" transform="translate(-61.66 -44.807)" fill="#fff"/>
    <path id="Path_385" data-name="Path 385" d="M143.648,119.157a2.919,2.919,0,0,0-3.58-.411,4,4,0,0,0-4.4-3.463c-3.463.293-2.406,1-2.171,1.115-.411-.235-3.169-1.408-4.695,2.817.822-1.761,3.756-2.524,6.045,1.115,0,0-.059-2.641,1.878-2.054a4.809,4.809,0,0,1,3.228,4.4,2.051,2.051,0,0,1,2.7-.88,2.117,2.117,0,0,1,.88.88c1.878,2.524-6.808,16.608-13.674,16.08,0,0,4.754,4.871,10.27-3.873C143.237,130.366,145.643,120.741,143.648,119.157Z" transform="translate(-68.352 -50.409)" fill="#fff"/>
    <path id="Path_386" data-name="Path 386" d="M87.993,135.041c.293-6.221-5.693-8.51-7.16-5.341a3.385,3.385,0,0,0-3.7.117c-2.054,1.291-.939,4.225-.939,4.225a3.624,3.624,0,0,0-3.7,3.4s3.228-2.406,5.458-1c0,0-2.7-3.345-.47-4.578a4.227,4.227,0,0,1,4.519.646s2.347-3.7,3.932,3.815c0,0-.822,2.347,2,6.749,1.878,2.876,1.056,8.862-3.169,9.977,0,0,9.449-2.113,6.632-9.859C91.573,143.14,87.7,141.262,87.993,135.041Z" transform="translate(-45.093 -55.788)" fill="#fff"/>
    <path id="Path_387" data-name="Path 387" d="M127.411,50.553a4.626,4.626,0,0,0-1.878-3.873l2.524,1.056L126,25.2l-2.171,1.761a2.619,2.619,0,0,0-2.347-1.585h-9.1l.176,2.289-.528.117.117,1.7-.352.7.235,2.347,10.916-4.871h0l1.7,18.486a5.959,5.959,0,0,0-1.467-.352H122.6c-6.514,0-5.634,5.751-5.106,6.69.7-4.343,6.514-5.751,7.512-2.23,1.643,5.751-5.751,16.2-5.751,16.2s1.232,3.169.528,4.4c0,0,2,.469,1.819-1.291a8.967,8.967,0,0,0-.411-2.113C121.131,67.572,129.23,56.246,127.411,50.553Z" transform="translate(-61.329 -13.203)" fill="#fff"/>
  </g>
  <g id="blue_outline" data-name="blue outline" transform="translate(5.849 1.563)">
    <path id="Path_388" data-name="Path 388" d="M79.992,56.7a2.041,2.041,0,0,0,2.465-1.526,1.345,1.345,0,0,1-1.056-.117,1.367,1.367,0,0,1-.587-1.819.925.925,0,0,1,.411-.411h-.059a.353.353,0,0,0-.235-.059,2.041,2.041,0,0,0-2.465,1.526A2.009,2.009,0,0,0,79.992,56.7Z" transform="translate(-38.246 -23.342)" fill="#0e2543"/>
    <path id="Path_389" data-name="Path 389" d="M59.135,69.267a2.006,2.006,0,0,0,2.113-2,1.286,1.286,0,0,1-1.761-.176,1.332,1.332,0,0,1,.059-1.937h-.293V65.1a2.068,2.068,0,0,0-2.054,2A2.013,2.013,0,0,0,59.135,69.267Z" transform="translate(-29.478 -28.458)" fill="#0e2543"/>
    <circle id="Ellipse_56" data-name="Ellipse 56" cx="0.411" cy="0.411" r="0.411" transform="translate(38.697 47.036)" fill="#0e2543"/>
    <circle id="Ellipse_57" data-name="Ellipse 57" cx="0.411" cy="0.411" r="0.411" transform="translate(38.292 48.675)" fill="#0e2543"/>
    <circle id="Ellipse_58" data-name="Ellipse 58" cx="0.352" cy="0.352" r="0.352" transform="translate(37.288 47.738)" fill="#0e2543"/>
    <circle id="Ellipse_59" data-name="Ellipse 59" cx="0.411" cy="0.411" r="0.411" transform="translate(46.229 45.084)" fill="#0e2543"/>
    <circle id="Ellipse_60" data-name="Ellipse 60" cx="0.411" cy="0.411" r="0.411" transform="translate(45.203 44.215)" fill="#0e2543"/>
    <circle id="Ellipse_61" data-name="Ellipse 61" cx="0.352" cy="0.352" r="0.352" transform="translate(46.625 43.868)" fill="#0e2543"/>
    <path id="Path_390" data-name="Path 390" d="M88.759,39.9h0c-.059,0-.059,0-.059.059Z" transform="translate(-42.494 -18.047)" fill="#0e2543"/>
    <path id="Path_391" data-name="Path 391" d="M22.026,35.409h0a.9.9,0,0,0,.411-.293.923.923,0,0,0,.059-1.291l-.059-.059c-4.695-4.108-3.11-8.158-3.052-8.275a.973.973,0,0,0-.469-1.232h-.059a1.048,1.048,0,0,0-1.291.528c-.117.235-2.23,5.341,3.521,10.388A1.147,1.147,0,0,0,22.026,35.409Z" transform="translate(-12.91 -11.561)" fill="#0e2543"/>
    <path id="Path_392" data-name="Path 392" d="M27.463,48.176l-.059-.117a3.586,3.586,0,0,0,.822-.411,2.188,2.188,0,0,0,1-1.878,3.415,3.415,0,0,0-1.761-2.582.977.977,0,1,0-1.056,1.643c.7.47.939.88.939,1.056a.366.366,0,0,1-.176.293c-.117.059-.176.117-.235.117a1.37,1.37,0,0,1-.7-.587.977.977,0,0,0-1.643,1.056,3.636,3.636,0,0,0,2.054,1.408A1.934,1.934,0,0,0,27.463,48.176Z" transform="translate(-15.941 -19.339)" fill="#0e2543"/>
    <path id="Path_393" data-name="Path 393" d="M80.109,47c1.115-.469,1.526.235,1.643.469a1.07,1.07,0,0,0,1.232.587h.059a1.01,1.01,0,0,0,.528-1.35h0a3.3,3.3,0,0,0-4.225-1.585,1.09,1.09,0,0,0-.587,1.35A1.121,1.121,0,0,0,80.109,47Z" transform="translate(-38.363 -20.103)" fill="#0e2543"/>
    <path id="Path_394" data-name="Path 394" d="M84.63,158.385c1.643,1.643,4.871,3.11,6.514,1.467s2.171-6.045.587-7.688-4.871-.352-6.514,1.291S83.045,156.683,84.63,158.385Z" transform="translate(-40.418 -64.112)" fill="#0e2543"/>
    <path id="Path_395" data-name="Path 395" d="M80.177,149.1a1.408,1.408,0,0,0,.7-.411,2.872,2.872,0,0,0-2.582-4.519,1.409,1.409,0,0,0-.7.411,2.544,2.544,0,0,0-.352,2.641A2.649,2.649,0,0,0,80.177,149.1Z" transform="translate(-37.668 -61.108)" fill="#0e2543"/>
    <path id="Path_396" data-name="Path 396" d="M85.57,141.871a2.336,2.336,0,0,0,1.819.646,2.058,2.058,0,0,0,.822-.352h0a2.67,2.67,0,0,0,.7-2.758A2.9,2.9,0,0,0,86.04,137a2.058,2.058,0,0,0-.822.352,2.67,2.67,0,0,0-.7,2.758A3.653,3.653,0,0,0,85.57,141.871Z" transform="translate(-40.714 -58.162)" fill="#0e2543"/>
    <path id="Path_397" data-name="Path 397" d="M134.763,139.3c-2.113,0-3.463.763-3.463,2.876s1.232,5.047,3.345,5.047c2.054-.059,5.164-2.582,5.164-4.636C139.81,140.474,136.875,139.3,134.763,139.3Z" transform="translate(-60.093 -59.112)" fill="#0e2543"/>
    <path id="Path_398" data-name="Path 398" d="M133.424,129.564a1.675,1.675,0,0,0,.763,0,2.587,2.587,0,0,0-.293-4.695,1.675,1.675,0,0,0-.763,0,2.365,2.365,0,0,0-1.35,2A2.463,2.463,0,0,0,133.424,129.564Z" transform="translate(-60.28 -53.132)" fill="#0e2543"/>
    <path id="Path_399" data-name="Path 399" d="M142.852,124.669a1.675,1.675,0,0,0-.763,0,2.416,2.416,0,0,0-1.643,2,3.39,3.39,0,0,0,.117,1.878,1.978,1.978,0,0,0,1.232,1.232,1.675,1.675,0,0,0,.763,0,2.416,2.416,0,0,0,1.643-2A2.561,2.561,0,0,0,142.852,124.669Z" transform="translate(-63.839 -53.049)" fill="#0e2543"/>
    <path id="Path_400" data-name="Path 400" d="M94.613,71.7a3.619,3.619,0,0,0-3.286-.235A4.033,4.033,0,0,0,88.744,68a3.991,3.991,0,0,0-4.225.822,2.175,2.175,0,0,0-2.054-.646,5.371,5.371,0,0,0-4.225,4.46,15.73,15.73,0,0,0-.117,2.347,1.625,1.625,0,0,0-.528-.059,15.118,15.118,0,0,0-1.526-6.749,41.129,41.129,0,0,0-2.582-4.4.216.216,0,0,0,.176-.059l1.35-1.467a3.525,3.525,0,0,0,4.108,0c1.643-1.174,1.174-2.582.763-3.756,1.408-2,6.984-9.273,6.984-15.317a3.707,3.707,0,0,0,2.113-1.232,3.862,3.862,0,0,0,.88-3.052,3.445,3.445,0,0,0-2.993-3.228L84.93,16.124a1.088,1.088,0,0,0-.117-.411,1.556,1.556,0,0,0-.293-.352,2.635,2.635,0,0,0-2.113-1.35c-.939-.117-7.395-1.408-10.622-2.054h-.235a1.04,1.04,0,0,0-1,1.056l.117,2.406v.059h-.352a.475.475,0,0,0-.469.528l.117,1.761h-.059c-.235.059-.469.293-.411.528l.176,1.878-.117.059a.513.513,0,0,0-.352.528l.235,2.113-.88.469a1.025,1.025,0,0,0-.528,1.056l2.23,22.653a.78.78,0,0,0,.176.469v.059a1.018,1.018,0,0,0,1,.939v.059a1.713,1.713,0,0,0,.528-.117L73.72,47.4A10.98,10.98,0,0,1,71.2,49.517c-2.7-2.758-5.282-3.4-7.1-3.4,2.993-3.7,4.225-8.04,2.817-11.209a9.573,9.573,0,0,0-6.925-5.223l-1.115-2.347a9.128,9.128,0,0,0,1.643-9.155,5.691,5.691,0,0,0-3.345-3.521,11.5,11.5,0,0,0,.117-2.758,5.088,5.088,0,0,0-2.054-3.991,5.323,5.323,0,0,0-4.871-.469,7.492,7.492,0,0,0-3.991,4.049C38.1,2.274,30.351,1.8,25.01,3.33A22.141,22.141,0,0,0,14.916,9.845c-3.7,4.284-5.341,8.744-4.871,13.263.587,6.045,4.754,10.974,8.51,14.437-2.758,1-4.578,2.758-5.106,4.988a5.42,5.42,0,0,0,1.643,5.282c1.35,1.232,3.873,1.408,7.277.411l-.059.059A31.491,31.491,0,0,0,28,45.879l1.115,2.113a8.577,8.577,0,0,0,1.291,8.744A6.047,6.047,0,0,0,31.935,58.2c-1.7,1.526-4.225,5.164-3.873,13.381a4.178,4.178,0,0,0-1.526,3.052A3.725,3.725,0,0,0,28,77.628v8.8a9.946,9.946,0,0,0-7.629,2.23c-2.171,2-2.817,4.343-1.761,6.162,1.291,2.23,5.282,3.7,12.735,1.467A8.643,8.643,0,0,0,36.4,97.934a7.1,7.1,0,0,0,2.465-.763c1.643-1,1.643-1.761,1.643-2.465a3.778,3.778,0,0,0-.411-1.643c1.761,1.409,5.4,4.343,6.28,4.988,2.7,2,6.045,5.223,12.266,4.812a8.557,8.557,0,0,0,7.747-5.634,7.278,7.278,0,0,0,.646-2.7,16.116,16.116,0,0,0,5.282-3.463,4.814,4.814,0,0,1,6.338,1.467l.059.059a.182.182,0,0,1,.059.117l.176.176a6.434,6.434,0,0,0,5.106,2c2.465.059,4.812-2,6.514-4.4a36.247,36.247,0,0,0,5.575-13.029C96.432,74.518,95.963,72.581,94.613,71.7ZM70.493,29.153,83.4,22.286l.117,1.35L70.61,30.5Zm12.794-8.334-12.97,6.866-.293-2.524L82.758,18.53a.991.991,0,0,1,.293-.117Zm-12.5,11.092L83.7,25.045l.117,1.35L70.9,33.261Zm2.641,10.8c.059.646.176,1.232.293,1.878l-1.526.822-1.115-10.74,12.911-6.808.939,9.8a6.913,6.913,0,0,0-2.347-1.7,7.366,7.366,0,0,0-6.632.587A6.887,6.887,0,0,0,73.427,42.709Zm14.2-1.467a3.5,3.5,0,0,1-.88.528v-.059a5.56,5.56,0,0,0-.411-1.7c.587-.352.822-.528.822-1.056v-.117l-.117-1.174C87.747,38.249,89.1,39.775,87.629,41.242ZM72.723,15.42V14.3c1.585.293,4.343.822,6.514,1.232H72.723C72.664,15.537,72.723,15.479,72.723,15.42Zm-1.761,1.174h6.045l-5.986,1.115Zm-.528,2.23,6.4-1.174L70.551,20Zm-.176,2.406,7.805-2.876-7.688,4.167ZM48.192,17.415A40.415,40.415,0,0,1,37.98,31.089a52.086,52.086,0,0,1-13.615,8.8c-.939-.7-2.23-1.7-3.58-2.934,17.841-11.913,22.477-20.6,23.71-24.179a33.725,33.725,0,0,1,3.7,4.636ZM12.1,22.991c-.411-3.991,1.115-7.923,4.4-11.737a20.753,20.753,0,0,1,9.1-5.81c5.927-1.7,11.737.176,17.313,5.634-.235,1.35-2.758,10.681-23.592,24.473C15.972,32.322,12.627,27.979,12.1,22.991Zm4.284,23.3a3.209,3.209,0,0,1-1-3.228c.411-1.761,2.23-3.228,4.93-3.873q1.056.88,1.937,1.585a11.148,11.148,0,0,1-3.11.528,1.031,1.031,0,0,0-.176,2.054,11.147,11.147,0,0,0,3.4-.528h0c.7-.235,1.408-.469,2.113-.763h.059c.176-.059.411-.176.587-.235a.6.6,0,0,0,.352-.293,52.14,52.14,0,0,0,19.6-15.141,32.823,32.823,0,0,0,4.46-7.219l.059-.059c1.819-3.639,1.643-5.458,1.526-5.634a1.083,1.083,0,0,0-1.174-.88h0c-.939.117-.822,1.232-.822,1.232a7.225,7.225,0,0,1-.117,1.174c-.352-.528-.763-1-1.115-1.467a.2.2,0,0,1,.059-.117,5.476,5.476,0,0,1,3.052-3.756,3.324,3.324,0,0,1,3.052.293,3.342,3.342,0,0,1,1.115,2.465c.235,2.347-.528,8.92-12.266,19.895C27.24,46.994,17.968,47.7,16.383,46.289Zm14.73,2.23a1.008,1.008,0,0,0,0-1l-1.291-2.641A81.408,81.408,0,0,0,44.494,33.73c5.751-5.4,9.038-9.859,10.8-13.381a2.979,2.979,0,0,1,.528,1.056,2.037,2.037,0,0,1-.587,1.467,1.033,1.033,0,0,0,.176,1.467,1.157,1.157,0,0,0,.88.176.679.679,0,0,0,.411-.293,3.921,3.921,0,0,0,1.056-3.052A4.715,4.715,0,0,0,56.173,18.3c.235-.528.352-1,.528-1.467a3.749,3.749,0,0,1,1.937,2.289,7.011,7.011,0,0,1-1.643,7.512.987.987,0,0,0-.176,1.115l1.643,3.4a1.06,1.06,0,0,0,.822.587,7.934,7.934,0,0,1,5.869,4.108c1.408,3.286-1.174,8.686-5.751,12.207a6.394,6.394,0,0,0-.059-2.171c-.528-.411-2.113,6.514-5.575,8.275a14.886,14.886,0,0,1-5.927,1.408,15.326,15.326,0,0,0-5.106,1.115c-3.756,1.643-8.627,1.643-10.8-1.174A6.449,6.449,0,0,1,31.114,48.52ZM89.566,89.366A8.814,8.814,0,0,1,84.4,93.122c-1.409.176-5.927-.88-5.282-6.69-.646-.117-.822,1.35-1,2a3.794,3.794,0,0,0-.235,1.174,7.32,7.32,0,0,0-4.343-.059c.7-1.115.88-2,.646-2.113-.528-.352-1.408.646-1.761,1.232a9.812,9.812,0,0,1-5.517,4.4A7.091,7.091,0,0,0,65.387,89.6c-.469-.587-.822-1.056-1.115-1.467,10.505-3.58,8.92-14.026,8.158-17.313a14.275,14.275,0,0,0-6.338-9.39,10.486,10.486,0,0,0-8.686-.646C47.663,63.9,46.431,71.7,47.311,76.337a13.218,13.218,0,0,0,1.174,3.932,6.071,6.071,0,0,0-4.519.528.938.938,0,0,0-.235,1.291h0a.928.928,0,0,0,1.291.235,4.256,4.256,0,0,1,2.406-.352,4.244,4.244,0,0,0-1.467,2c-1.35,3.58.763,11.092,5.4,12.735.528.176-1.585-1.937-2.876-5.869-2.054-6.1.235-7.336.763-7.512,1.174-.411,3.169,1.878,3.169,1.232a3.417,3.417,0,0,0-1-2.23c0-.117.059-.293,0-.411-.176-.939-.235-2.582,1.232-3.11,2.641-1,3.873,2.524,3.991,2.406a1.616,1.616,0,0,0,.528-1.526,3.978,3.978,0,0,0-.763-1.585,2.12,2.12,0,0,1,1.585-.176,3.688,3.688,0,0,1,2.23,3.169,2.108,2.108,0,0,0-.587.411,3.063,3.063,0,0,0-.763,2.465,2.488,2.488,0,0,0,1,1.819,1.992,1.992,0,0,0,1.115.293c.469,1.467,1.467,2.876,3.4,5.164a5.053,5.053,0,0,1,.646,5.341,9.165,9.165,0,0,1-2.817,3.169.445.445,0,0,0-.235.117,6.173,6.173,0,0,1-4.4,1,13.148,13.148,0,0,1-2.934-.939c-1.232-.763-2.054-1.7-2.582-1.408-.176.117.059.646.587,1.291-5.164-2.876-11.5-8.451-13.2-9.742.587-4.225,1.643-12.676,1.819-18.839a1.2,1.2,0,0,0,.528-.293c2-2.582,1.643-5.223,1.174-5.223-.352,0-.763,1.291-1.643,2.758a12.73,12.73,0,0,0-.528-3.7h0a1.01,1.01,0,0,0-1.35-.528c-.528.176,2.641-1.056-2.289,27.642-.059.059-.117.117-.117.176a1.141,1.141,0,0,0,.528,1.526,1.854,1.854,0,0,1,1,1.291c0,.117,0,.469-.646.88-2.054,1.291-5.458-1.643-5.458-1.643a1.123,1.123,0,0,0-1.115-.235c-6.045,2-9.742,1.232-10.622-.235-.469-.822,0-2.054,1.291-3.228,3.7-3.4,9.449-1.643,9.449-1.643a1.189,1.189,0,0,0,1.467-.763c.059-.235-1.056-.822-2.758-1.232V77.041a1.045,1.045,0,0,0-.587-.939,1.607,1.607,0,0,1-.939-1.467,2.153,2.153,0,0,1,1-1.643,1.058,1.058,0,0,0,.528-.939c-.528-9.507,2.934-12.266,3.815-12.735a14.152,14.152,0,0,0,9.683-.646c.352-.117.7-.235,1.115-.352l2.524,4.343a1.091,1.091,0,0,0,.88.528h.293v.176a1.076,1.076,0,0,0,.587-.411l2.7-4.225a3.261,3.261,0,0,0,5.458-2.641l5.458.822a1.062,1.062,0,0,0,1-.411.986.986,0,0,0,.117-1.056l-2.641-5.517a.81.81,0,0,0-.176-.235l.88-.7h.059A12.023,12.023,0,0,1,72.781,53.86c.763,1,.88-1.291.117-2.23a8.474,8.474,0,0,0,2.7-3.052,4.846,4.846,0,0,0,3.286,1.878c1,.117-3.7-2.524-3.521-7.512a5.9,5.9,0,0,1,1.937-4.4,5.39,5.39,0,0,1,4.46-.352A4.8,4.8,0,0,1,84.4,42.24c1.115,6.1-5.927,15.611-5.927,15.728a1.056,1.056,0,0,0-.059,1.232s.822,1.291-.176,1.937c-.939.646-2.171-.293-2.171-.293a1.154,1.154,0,0,0-1.291-.117l-2.23,1.232a1.28,1.28,0,0,0-.293.235A40.337,40.337,0,0,0,68.2,57.851c-.822-.469-.939,1.232.117,2.054A19.321,19.321,0,0,1,73.9,83.321c-.176.352,2.641-1.819,3.521-5.986a1.168,1.168,0,0,1,.939.411c.117,1.819,0,5.164.528,5.341.117.059.235.059.352.117.469,0,1.35-3.991,1.115-5.751a17.046,17.046,0,0,1,.235-4.225A2.81,2.81,0,0,1,82.641,70.7a2.456,2.456,0,0,1,1.291.646c.059.059.059.117.117.117,1.056,1.115,1.7,3.11,2.113,2.993.293-.059.176-1.7-.352-3.286l.059-.059a1.647,1.647,0,0,1,2.171-.7c2.171.646,3.11,5.4,3.228,4.754a10.66,10.66,0,0,0,.176-1.878,1.439,1.439,0,0,1,1.878.528,3.7,3.7,0,0,1,.646,2.582.444.444,0,0,1-.235-.059,1.81,1.81,0,0,0-1.115,0,2.836,2.836,0,0,0-1.643,1.643,2.323,2.323,0,0,0,.117,1.878,1.773,1.773,0,0,0,1.115.822,1.81,1.81,0,0,0,1.115,0v.059l.059-.059A30.651,30.651,0,0,1,89.566,89.366ZM54.178,76.689a3.8,3.8,0,0,0-2.289.059,4.254,4.254,0,0,0-2.171,2,12.794,12.794,0,0,1-.88-3.58H48.72c-.528-4.167.939-10.5,9.155-13.087a8.739,8.739,0,0,1,7.453.528A12.817,12.817,0,0,1,70.9,71c.88,3.873,1.761,12.735-7.395,15.846a6.906,6.906,0,0,1-.763-3.052,28.516,28.516,0,0,0-.411-3.228,5.8,5.8,0,0,0-3.815-4.871A4,4,0,0,0,54.178,76.689Z" transform="translate(-9.967 -2.663)" fill="#0e2543"/>
    <path id="Path_401" data-name="Path 401" d="M63.486,71.806c.88,1.115,4.871,2.876,9.449.88a8.154,8.154,0,0,1-.352,3.756,13.736,13.736,0,0,1-4.108.293c-4.343-.528-7.395-1.526-7.277-1.115.117.352,1.35,2.113,5.223,2.7a13.734,13.734,0,0,0,6.69-.469.684.684,0,0,0,.411-.117h0c1.819-.7,2.993-1.761,3.286-2.817-.646.352-1.35.646-2,.939a7.618,7.618,0,0,0,.059-4.284c2.7-2.465,2.758-7.1,1.174-9.155-1.761-2.347-5.164-2.347-8.451-.469a12.828,12.828,0,0,0-4.284,4.225A4.758,4.758,0,0,0,63.486,71.806Z" transform="translate(-31.13 -26.595)" fill="#0e2543"/>
  </g>
  <g id="white_highlitghts_above_outline" data-name="white highlitghts above outline" transform="translate(35.447 31.046)">
    <path id="Path_402" data-name="Path 402" d="M83.089,53.017,82.8,52.9a2.711,2.711,0,0,0-.411.411,1.431,1.431,0,0,0,.528,1.878,1.248,1.248,0,0,0,1.115.059A2.045,2.045,0,0,0,83.089,53.017Z" transform="translate(-69.415 -52.9)" fill="#fff"/>
    <path id="Path_403" data-name="Path 403" d="M60.869,65.4a1.344,1.344,0,0,0-.469,1,1.4,1.4,0,0,0,.293.822,1.385,1.385,0,0,0,1.937.176v-.059A2.069,2.069,0,0,0,60.869,65.4Z" transform="translate(-60.4 -58.064)" fill="#fff"/>
    <ellipse id="Ellipse_62" data-name="Ellipse 62" cx="1.291" cy="1.761" rx="1.291" ry="1.761" transform="translate(15.022 63.475) rotate(-55.932)" fill="#fff"/>
    <ellipse id="Ellipse_63" data-name="Ellipse 63" cx="0.704" cy="1.174" rx="0.704" ry="1.174" transform="translate(10.293 55.022) rotate(-26.514)" fill="#fff"/>
    <ellipse id="Ellipse_64" data-name="Ellipse 64" cx="0.704" cy="1.174" rx="0.704" ry="1.174" transform="translate(14.562 51.018) rotate(-26.532)" fill="#fff"/>
    <ellipse id="Ellipse_65" data-name="Ellipse 65" cx="0.704" cy="1.174" rx="0.704" ry="1.174" transform="translate(19.868 50) rotate(-4.38)" fill="#fff"/>
    <ellipse id="Ellipse_66" data-name="Ellipse 66" cx="1.174" cy="1.643" rx="1.174" ry="1.643" transform="matrix(0.977, -0.211, 0.211, 0.977, 42.639, 52.939)" fill="#fff"/>
    <ellipse id="Ellipse_67" data-name="Ellipse 67" cx="0.646" cy="1.056" rx="0.646" ry="1.056" transform="translate(42.896 43.198) rotate(-0.311)" fill="#fff"/>
    <ellipse id="Ellipse_68" data-name="Ellipse 68" cx="0.646" cy="1.056" rx="0.646" ry="1.056" transform="translate(47.884 43.081) rotate(-0.311)" fill="#fff"/>
    <ellipse id="Ellipse_69" data-name="Ellipse 69" cx="0.646" cy="1.056" rx="0.646" ry="1.056" transform="matrix(1, -0.006, 0.006, 1, 52.051, 44.783)" fill="#fff"/>
    <path id="Path_404" data-name="Path 404" d="M86.764,94.967c.88.059,1-1.408.822-1.878-.176-.411-.587-1.35-1.232-1.115s-.235,1.232-.059,1.7C86.529,94.145,86.353,94.908,86.764,94.967Z" transform="translate(-70.977 -69.027)" fill="#fff"/>
    <path id="Path_405" data-name="Path 405" d="M94.093,85.432c-.763.528.763,2.23.939,2.758s-1.232.646-1.232,1.115c0,.411,2,.411,2.817.117.822-.352-.411-1.643-1.35-3.228C95.032,85.549,94.622,85.139,94.093,85.432Z" transform="translate(-74.198 -66.3)" fill="#fff"/>
    <circle id="Ellipse_70" data-name="Ellipse 70" cx="0.646" cy="0.646" r="0.646" transform="translate(12.682 12.057)" fill="#fff"/>
    <path id="Path_406" data-name="Path 406" d="M79.858,63.763c-.646.646.411,1.291,1,2a2.385,2.385,0,0,1,.528,1.878.664.664,0,0,0,.646.7,1.106,1.106,0,0,0,.469-.117c.469-.411.646-1.35.059-2.7S80.5,63.117,79.858,63.763Z" transform="translate(-68.355 -57.307)" fill="#fff"/>
  </g>
  <g id="Group_183" data-name="Group 183" transform="translate(109.334 31.238)">
    <g id="CHAPEAU_MELON" data-name="CHAPEAU MELON" transform="translate(58.805 23.149)">
      <path id="Path_407" data-name="Path 407" d="M294.716,104.513a4.041,4.041,0,0,1-.646.763,5.06,5.06,0,0,1-1.056.822,5.914,5.914,0,0,1-1.35.7l-.176.059-.88.235-.469.117-.587.059c0,.059-.059.176-.059.235v1.35l.059.7c.059.117.176.176.235.235a1.736,1.736,0,0,0,.587.117c.117,0,.235.117.352.293a.946.946,0,0,1,.235.411c0,.176-.293.352-.88.47l-.352.059-.235.059-.528.059-.352.059a1.652,1.652,0,0,1-.47.059h-.293a.744.744,0,0,1-.352-.059c-.117-.059-.235-.059-.293-.176a1.03,1.03,0,0,1-.293-.235.448.448,0,0,1-.117-.293.365.365,0,0,1,.235-.352.834.834,0,0,1,.352-.117,1.286,1.286,0,0,0,.469-.176,1.268,1.268,0,0,0,.059-.646v-8.216a.2.2,0,0,0-.059-.117h-.587q-.616,0-.7-.352a1.549,1.549,0,0,1-.059-.411c0-.176.117-.293.411-.411l.352-.176h.059l.352-.117.763-.293a.529.529,0,0,1,.293-.059c.117,0,.235.059.352.059a.586.586,0,0,1,.293.235.634.634,0,0,1,.176.411l1.056-.059a2.2,2.2,0,0,1,.646.059c.293.059.587.117.822.176a5.165,5.165,0,0,1,.88.293,9.341,9.341,0,0,1,1.291.763,1.8,1.8,0,0,1,.88,1.7A1.98,1.98,0,0,1,294.716,104.513Zm-1.232-.88a1.929,1.929,0,0,0,.411-.939.841.841,0,0,0-.293-.646,2.38,2.38,0,0,0-.528-.293,2.11,2.11,0,0,0-.646-.117,3.346,3.346,0,0,0-.763-.059h-.411a3.832,3.832,0,0,0-.646.117,2.236,2.236,0,0,0-.587.176.586.586,0,0,0-.293.235l-.059,1.878c0,1.056-.059,1.643-.059,1.761a.216.216,0,0,0,.059.176.353.353,0,0,0,.235.059h.235c.176-.059.293-.117.469-.176l.7-.293.059-.059.763-.469a4.431,4.431,0,0,0,.822-.646,3.159,3.159,0,0,1,.528-.7Z" transform="translate(-286.5 -95.357)" fill="#fff"/>
      <path id="Path_408" data-name="Path 408" d="M310.063,106.721a.63.63,0,0,1-.117.7,3.162,3.162,0,0,1-.763.411,2.46,2.46,0,0,1-.939.235.581.581,0,0,1-.646-.469l-.059-.293H307.3c-.293.117-.646.235-1,.352a6.138,6.138,0,0,1-1,.235,4.158,4.158,0,0,1-.822.059,2.649,2.649,0,0,1-1.467-.411,1.337,1.337,0,0,1-.528-1.291,2.89,2.89,0,0,1,.352-1,2.716,2.716,0,0,1,.88-.939,6.324,6.324,0,0,1,1.408-.7,5.071,5.071,0,0,1,1.232-.411l.763-.176c.293-.059.411-.176.411-.293a3.16,3.16,0,0,0-.059-.646,1.563,1.563,0,0,0-.176-.7.513.513,0,0,0-.528-.352,1.183,1.183,0,0,0-.646.176,13.648,13.648,0,0,0-1.526,1,6.665,6.665,0,0,1-1.35.88c-.293.059-.469-.117-.469-.528,0-.293.411-.822,1.232-1.526a3.764,3.764,0,0,1,2.524-1.056,2.946,2.946,0,0,1,.7.117,2.32,2.32,0,0,1,1.409,1.174,8.07,8.07,0,0,1,.352,2.876v.822a3.1,3.1,0,0,1-.059.763c0,.411,0,.587.059.646h.411a1,1,0,0,1,.411.059A.586.586,0,0,1,310.063,106.721Zm-2.406-1.526a1.106,1.106,0,0,0-.117-.469.323.323,0,0,0-.293-.176,5.977,5.977,0,0,0-2.406.7q-.88.528-.88,1.056c0,.059.059.176.059.235a.845.845,0,0,0,.528.117,8.019,8.019,0,0,0,1.115-.117,4.427,4.427,0,0,0,1.408-.469A1.1,1.1,0,0,0,307.657,105.2Z" transform="translate(-293.102 -95.688)" fill="#fff"/>
      <path id="Path_409" data-name="Path 409" d="M321.569,102.737l-.176.587c-.176.47-.352.7-.646.7a.594.594,0,0,1-.411-.235,1.122,1.122,0,0,1-.235-.88v-.469l.059-.293.176-.7v-.176c-.059-.117-.117-.117-.176-.059s-.117.059-.176.117l-.176.176-.293.411-.059.059a5.535,5.535,0,0,0-.587,1.35l-.176.939a6.766,6.766,0,0,0-.176,1.526.946.946,0,0,0,.352.763l.469.176.293.176a.578.578,0,0,1-.059.88.78.78,0,0,1-.469.176,1.809,1.809,0,0,1-.587.059l-.528.059-.352.059h-.176l-.88.059H316.4a1.03,1.03,0,0,1-.293-.235l-.176-.176a.666.666,0,0,1-.176-.469c0-.235.176-.352.47-.469a2.946,2.946,0,0,1,.7-.117.257.257,0,0,0,.059-.176V104.2a3.608,3.608,0,0,0-.059-.763v-.352a1.032,1.032,0,0,1,.059-.352c0-.117.059-.293.059-.411a.353.353,0,0,0-.059-.235c-.059-.059-.176-.059-.235-.117h-.293a1.052,1.052,0,0,1-.469-.235,1.278,1.278,0,0,1-.293-.469v-.235a.323.323,0,0,1,.176-.293,3.394,3.394,0,0,1,.822-.293l.411-.117a1,1,0,0,1,.411-.059.882.882,0,0,1,.646.235.753.753,0,0,1,.235.587v.293c0,.176,0,.235.059.235l.117-.059.528-.587a1.278,1.278,0,0,1,.469-.293,1.183,1.183,0,0,1,.646-.176,1.746,1.746,0,0,1,.88.293,1.45,1.45,0,0,1,.7,1.115C321.745,102.091,321.686,102.443,321.569,102.737Z" transform="translate(-298.563 -95.812)" fill="#fff"/>
      <path id="Path_410" data-name="Path 410" d="M343.186,94.609v1.643l-.059.293v.469l-.059.352c0,.117-.059.176-.176.235a.834.834,0,0,1-.352.117c-.117,0-.235-.059-.352-.059a1.168,1.168,0,0,1-.47-.7l-.059-.822a1.144,1.144,0,0,0-.059-.469,2.084,2.084,0,0,0-.235-.528,4.119,4.119,0,0,0-.352-.528.533.533,0,0,0-.411-.176,1.219,1.219,0,0,0-.7.293,2.606,2.606,0,0,0-.646.469,7.777,7.777,0,0,0-.7.7,7.358,7.358,0,0,0-.939,1.408,11.526,11.526,0,0,0-.939,2.113l-.235.7c-.117.411-.176.763-.235,1.056a2.2,2.2,0,0,0-.059.646,1.693,1.693,0,0,0,.411,1.35,2.447,2.447,0,0,0,1.585.352,3.784,3.784,0,0,0,1.174-.176,11.413,11.413,0,0,0,1.291-.469c.47-.235.763-.352.939-.469.235-.176.528-.352.763-.528a1.218,1.218,0,0,1,.587-.352.323.323,0,0,1,.293.176.594.594,0,0,1,.235.411,1.615,1.615,0,0,1-.47.88,4.049,4.049,0,0,1-1.056.939c-.411.293-.646.469-.822.587l-.352.235a3.73,3.73,0,0,1-1.056.352,6.467,6.467,0,0,1-1.056.117,4.408,4.408,0,0,1-1.526-.293,6.282,6.282,0,0,1-1.291-.88,5.58,5.58,0,0,1-.88-1.174,6.668,6.668,0,0,1-.352-1.467l-.059-.469a2.407,2.407,0,0,1,.059-.646,3.435,3.435,0,0,1,.117-.763l.235-.88a9.315,9.315,0,0,1,.411-1.174,12.417,12.417,0,0,1,.646-1.232,8.434,8.434,0,0,1,1.056-1.467,5.89,5.89,0,0,1,1.291-1.115,3.893,3.893,0,0,1,1.115-.528,2.7,2.7,0,0,1,.587-.059.744.744,0,0,1,.352.059,4.042,4.042,0,0,1,.469.176,5.537,5.537,0,0,1,.528.176c.117.059.176.059.235.117l.059-.059.059-.469a.407.407,0,0,1,.352-.411,2.084,2.084,0,0,1,.528.235,1.044,1.044,0,0,1,.411.469,3.612,3.612,0,0,1,.117,1.115Z" transform="translate(-306.33 -92.672)" fill="#fff"/>
      <path id="Path_411" data-name="Path 411" d="M359.483,103.673a.874.874,0,0,1,.235.528.533.533,0,0,1-.176.411l-.528.176-.646.117-.411.059h-.88a2.857,2.857,0,0,1-.7-.059,1.056,1.056,0,0,1-.528-.352.448.448,0,0,1-.117-.293.323.323,0,0,1,.176-.293.834.834,0,0,1,.352-.117l.117-.059.352-.117a.3.3,0,0,0,.235-.117.216.216,0,0,0,.059-.176v-.469l-.117-1.761v-.117l-.059-.469c-.176-.822-.528-1.291-1.174-1.291a3.962,3.962,0,0,0-.822.117l-.352.117-.763.293a2.169,2.169,0,0,0-.646.293,2.944,2.944,0,0,0-.117.7v2.876c0,.117,0,.235.059.235a.744.744,0,0,0,.352.059.834.834,0,0,1,.352.117.5.5,0,0,1,.176.293c.059.117.059.235.117.352,0,.352-.469.587-1.467.822l-.352.059h-.822a2.408,2.408,0,0,1-.646-.059,1.053,1.053,0,0,1-.411-.293.946.946,0,0,1-.235-.411.372.372,0,0,1,.293-.352,4.043,4.043,0,0,1,.47-.176c.117,0,.176-.059.293-.059a8.654,8.654,0,0,1,.059-.939c.059-.528.059-1.761.059-3.7V97.511c0-.763.059-1.174.059-1.291a.216.216,0,0,0-.059-.176l-.059-.059-.411.059a1.239,1.239,0,0,1-.587-.235l-.235-.235a.666.666,0,0,1-.176-.469.441.441,0,0,1,.293-.411l.059-.059.939-.293.411-.117.293-.059a.906.906,0,0,1,.939.528,6.285,6.285,0,0,1,.235,2.347l-.059.528-.059.352v.293c0,.176.117.293.411.293l.822-.176a1.625,1.625,0,0,1,.528-.059h.293a4.53,4.53,0,0,1,.88.117,6.5,6.5,0,0,1,1.115.528,2.921,2.921,0,0,1,1,.88,3.462,3.462,0,0,1,.411,1.467l.059.293v.763a5.048,5.048,0,0,0,.059.939.94.94,0,0,0,.587.117A.661.661,0,0,1,359.483,103.673Z" transform="translate(-312.651 -93.285)" fill="#fff"/>
      <path id="Path_412" data-name="Path 412" d="M374.663,106.721a.63.63,0,0,1-.117.7,3.161,3.161,0,0,1-.763.411,2.46,2.46,0,0,1-.939.235.581.581,0,0,1-.646-.469l-.059-.293H371.9c-.293.117-.646.235-1,.352a6.139,6.139,0,0,1-1,.235,4.157,4.157,0,0,1-.822.059,2.649,2.649,0,0,1-1.467-.411,1.337,1.337,0,0,1-.528-1.291,2.888,2.888,0,0,1,.352-1,2.717,2.717,0,0,1,.88-.939,6.324,6.324,0,0,1,1.408-.7,5.07,5.07,0,0,1,1.232-.411l.763-.176c.293-.059.411-.176.411-.293a3.162,3.162,0,0,0-.059-.646,1.563,1.563,0,0,0-.176-.7.513.513,0,0,0-.528-.352,1.183,1.183,0,0,0-.646.176,13.65,13.65,0,0,0-1.526,1,6.665,6.665,0,0,1-1.35.88c-.293.059-.47-.117-.47-.528,0-.293.411-.822,1.232-1.526a3.764,3.764,0,0,1,2.524-1.056,2.947,2.947,0,0,1,.7.117,2.319,2.319,0,0,1,1.408,1.174,8.069,8.069,0,0,1,.352,2.876v.822a3.609,3.609,0,0,1-.059.822c0,.411,0,.587.059.646h.411a1,1,0,0,1,.411.059A.215.215,0,0,1,374.663,106.721Zm-2.347-1.526a1.106,1.106,0,0,0-.117-.469.323.323,0,0,0-.293-.176,5.977,5.977,0,0,0-2.406.7q-.88.528-.88,1.056c0,.059.059.176.059.235a.845.845,0,0,0,.528.117,8.019,8.019,0,0,0,1.115-.117,4.427,4.427,0,0,0,1.408-.469A1.1,1.1,0,0,0,372.315,105.2Z" transform="translate(-319.79 -95.688)" fill="#fff"/>
      <path id="Path_413" data-name="Path 413" d="M388.534,104.636a4.039,4.039,0,0,1-.646.763,5.059,5.059,0,0,1-1.056.822,5.914,5.914,0,0,1-1.35.7l-.176.059-.88.235-.469.117-.587.059c0,.059-.059.176-.059.235v1.35l.059.7c.059.117.176.176.235.235a1.736,1.736,0,0,0,.587.117c.117,0,.235.117.352.293a.946.946,0,0,1,.235.411c0,.176-.293.352-.88.47l-.352.059-.235.059-.528.059-.352.176a1.652,1.652,0,0,1-.469.059h-.293a.744.744,0,0,1-.352-.059c-.117-.059-.235-.059-.293-.176a1.03,1.03,0,0,1-.293-.235.448.448,0,0,1-.117-.293.418.418,0,0,1,.176-.352.834.834,0,0,1,.352-.117,1.287,1.287,0,0,0,.47-.176,1.268,1.268,0,0,0,.059-.646v-8.158a.2.2,0,0,0-.059-.117h-.646q-.616,0-.7-.352a1.549,1.549,0,0,1-.059-.411c0-.176.117-.293.411-.411l.352-.176h.059l.352-.117.763-.293a.529.529,0,0,1,.293-.059c.117,0,.235.059.352.059a.586.586,0,0,1,.293.235.634.634,0,0,1,.176.411l1-.059a2.2,2.2,0,0,1,.646.059c.293.059.587.117.822.176a5.165,5.165,0,0,1,.88.293,9.341,9.341,0,0,1,1.291.763,1.8,1.8,0,0,1,.88,1.7A1.572,1.572,0,0,1,388.534,104.636Zm-1.291-.88a1.929,1.929,0,0,0,.411-.939.841.841,0,0,0-.293-.646,2.38,2.38,0,0,0-.528-.293,2.11,2.11,0,0,0-.646-.117,3.609,3.609,0,0,0-.822-.059h-.411a3.832,3.832,0,0,0-.646.117,2.235,2.235,0,0,0-.587.176.586.586,0,0,0-.293.235l-.059,1.878c0,1.056-.059,1.643-.059,1.761a.216.216,0,0,0,.059.176.353.353,0,0,0,.235.059.529.529,0,0,0,.293-.059c.176-.059.293-.117.47-.176l.7-.293.059-.059.763-.469a4.432,4.432,0,0,0,.822-.646A5.109,5.109,0,0,0,387.242,103.756Z" transform="translate(-325.21 -95.481)" fill="#fff"/>
      <path id="Path_414" data-name="Path 414" d="M403.232,105.445a1,1,0,0,1-.528.88l-.235.235-.117.059a1.283,1.283,0,0,0-.293.176l-.646.293c-.352.117-.646.235-1,.352a5.137,5.137,0,0,1-.939.117,2.305,2.305,0,0,1-2.289-1.056,5.383,5.383,0,0,1-.528-1.35,2.2,2.2,0,0,1-.059-.646v-.646a5.852,5.852,0,0,1,.117-.939,5.305,5.305,0,0,1,.47-1.232,8.39,8.39,0,0,1,.822-1.174,5.437,5.437,0,0,1,.822-.822,1.932,1.932,0,0,1,.763-.411c.235-.117.469-.176.763-.293a2.085,2.085,0,0,1,.587-.117,1.736,1.736,0,0,1,.587.117c.235.117.469.293.7.411a2.5,2.5,0,0,1,.7.646,2.593,2.593,0,0,1,.352.939l.059.411v.822a1.462,1.462,0,0,1-.176,1,1.236,1.236,0,0,1-.763.293l-.176.059-.411.059-1.7.352-1.408.293-.293.059h-.059l-.235.059a.294.294,0,0,0-.293.352v.176c0,.059.059.235.117.469a.854.854,0,0,0,.352.528,2.355,2.355,0,0,0,.88.176h.469a7.374,7.374,0,0,0,2.171-.763l.469-.293.352-.235c.059,0,.117-.059.176-.059A.963.963,0,0,1,403.232,105.445Zm-1.467-4.343a1.8,1.8,0,0,0-.235-.7.4.4,0,0,0-.352-.235,1.668,1.668,0,0,0-.7.235,3.944,3.944,0,0,0-.646.411c-.117.117-.352.235-.587.469a4.041,4.041,0,0,0-.646.763l-.293.469a1.281,1.281,0,0,1-.235.293.216.216,0,0,0-.059.176v.176a.448.448,0,0,1,.293-.117,10.382,10.382,0,0,1,1.35-.235l.822-.176.235-.059.528-.117a.372.372,0,0,0,.352-.293,2.233,2.233,0,0,0,.176-1.056Z" transform="translate(-331.985 -95.233)" fill="#fff"/>
      <path id="Path_415" data-name="Path 415" d="M417.263,106.721a.63.63,0,0,1-.117.7,3.162,3.162,0,0,1-.763.411,2.461,2.461,0,0,1-.939.235.581.581,0,0,1-.646-.469l-.059-.293H414.5c-.293.117-.646.235-1,.352a6.138,6.138,0,0,1-1,.235,4.158,4.158,0,0,1-.822.059,2.649,2.649,0,0,1-1.467-.411,1.337,1.337,0,0,1-.528-1.291,2.89,2.89,0,0,1,.352-1,2.717,2.717,0,0,1,.88-.939,6.324,6.324,0,0,1,1.409-.7,5.071,5.071,0,0,1,1.232-.411l.763-.176c.293-.059.411-.176.411-.293a3.16,3.16,0,0,0-.059-.646,1.562,1.562,0,0,0-.176-.7.513.513,0,0,0-.528-.352,1.183,1.183,0,0,0-.646.176,13.651,13.651,0,0,0-1.526,1,6.664,6.664,0,0,1-1.35.88c-.293.059-.469-.117-.469-.528,0-.293.411-.822,1.232-1.526a3.764,3.764,0,0,1,2.524-1.056,2.946,2.946,0,0,1,.7.117,2.32,2.32,0,0,1,1.409,1.174,8.07,8.07,0,0,1,.352,2.876v.822a3.609,3.609,0,0,1-.059.822c0,.411,0,.587.059.646h.411a1,1,0,0,1,.411.059A.252.252,0,0,1,417.263,106.721Zm-2.348-1.526a1.105,1.105,0,0,0-.117-.469.323.323,0,0,0-.293-.176,5.977,5.977,0,0,0-2.406.7q-.88.528-.88,1.056c0,.059.059.176.059.235a.845.845,0,0,0,.528.117,8.018,8.018,0,0,0,1.115-.117,4.427,4.427,0,0,0,1.409-.469A1.1,1.1,0,0,0,414.915,105.2Z" transform="translate(-337.39 -95.688)" fill="#fff"/>
      <path id="Path_416" data-name="Path 416" d="M431.762,106.745a.745.745,0,0,1,.059.352c0,.176-.293.411-.939.646a3.541,3.541,0,0,1-1.115.352.507.507,0,0,1-.352-.176c-.059-.117-.117-.176-.176-.293l-.059-.117c0-.059-.059-.059-.117-.059l-.411.117a1.381,1.381,0,0,1-.47.117,2.857,2.857,0,0,1-.7.059,4.268,4.268,0,0,1-1.7-.411,3.128,3.128,0,0,1-1.35-.939,3.945,3.945,0,0,1-.411-2v-1.35c0-.176,0-.293-.059-.293l-.352-.176-.235-.117c-.117-.117-.293-.235-.352-.352a.834.834,0,0,1-.117-.352c0-.293.235-.528.646-.646l.352-.117.117-.059.117-.059.411-.059a1.292,1.292,0,0,1,.469-.059.763.763,0,0,1,.763.646h0l-.117,2.054v1l.059.352.059.352.059.293a1.746,1.746,0,0,0,.293.88,1.025,1.025,0,0,0,.7.235h.411a1.664,1.664,0,0,0,.763-.235l.528-.235a1.278,1.278,0,0,0,.469-.293.992.992,0,0,0,.176-.587V102.05c0-.059-.059-.117-.235-.176h-.352a.216.216,0,0,1-.176-.059.707.707,0,0,1-.293-.293,1.18,1.18,0,0,1-.235-.469.355.355,0,0,1,.176-.352l.47-.176.587-.235a1.736,1.736,0,0,1,.587-.117,1.381,1.381,0,0,1,.47.117.747.747,0,0,1,.528.411,5.941,5.941,0,0,1,.117,1.761v1.232a5.716,5.716,0,0,1-.117,1.408c-.059.293-.059.528-.117.822a.529.529,0,0,0,.059.293.445.445,0,0,0,.235.117h.293a.448.448,0,0,1,.293.117A.482.482,0,0,1,431.762,106.745Z" transform="translate(-342.851 -95.77)" fill="#fff"/>
      <path id="Path_417" data-name="Path 417" d="M459.357,94.519a1.293,1.293,0,0,1,.059.469.418.418,0,0,1-.176.352,2.913,2.913,0,0,1-.763.176c-.176,0-.293.176-.411.528a9.112,9.112,0,0,0-.176,1.819,16.5,16.5,0,0,0,.059,1.761,7.418,7.418,0,0,1,.059.939v.939a2.856,2.856,0,0,0-.059.7c0,.176-.059.352-.059.528a.744.744,0,0,0,.059.352.448.448,0,0,0,.293.117h.352c.059,0,.117,0,.117.059a.707.707,0,0,1,.293.293.458.458,0,0,1,.235.235.835.835,0,0,1,.117.352c0,.176-.176.293-.469.469l-.411.117-.587.117-.469.059c-.176,0-.293.059-.469.059h-.88a.815.815,0,0,1-.587-.293.725.725,0,0,1-.235-.469c0-.176.117-.293.352-.411l.059-.059.411-.117a.412.412,0,0,0,.411-.528v-.059a10.366,10.366,0,0,0-.059-1.115V98.393c.059-.469.117-1,.176-1.467q0-.44-.176-.528c-.059-.059-.176.117-.411.528s-.528,1-.88,1.7-.939,1.878-1.7,3.521l-.469,1.115-.176.352a.6.6,0,0,1-.293.352,2.946,2.946,0,0,1-.7.117.943.943,0,0,1-.646-.293,2.233,2.233,0,0,1-.528-.763,9.3,9.3,0,0,1-.469-1.056,6.9,6.9,0,0,1-.411-1.174l-.587-1.585-.587-1.526a.632.632,0,0,0-.117.47v1.291l-.059,1.526v1.937c0,.235-.059.469-.059.646a.5.5,0,0,0,.117.352,1.625,1.625,0,0,0,.528.059.669.669,0,0,1,.352.176c.059.059.117.176.176.235,0,.059.059.117.117.176a1.715,1.715,0,0,1,.117.528.4.4,0,0,1-.235.352,2.658,2.658,0,0,1-.939.176,7.963,7.963,0,0,1-1.056.059,1.865,1.865,0,0,1-.822-.117,2.38,2.38,0,0,1-.528-.293l-.176-.176a1.088,1.088,0,0,1-.117-.411.4.4,0,0,1,.235-.352,1.714,1.714,0,0,1,.528-.117c.176,0,.235-.176.293-.411V99.743l.059-1.761a10.483,10.483,0,0,0,.117-1.35.744.744,0,0,0-.059-.352.81.81,0,0,0-.235-.176l-.235-.059c-.117,0-.176-.059-.293-.117l-.176-.176-.117-.176a1.563,1.563,0,0,1-.176-.7.4.4,0,0,1,.235-.352,6.924,6.924,0,0,1,1.174-.235l.469-.059a4.21,4.21,0,0,1,.763-.059c.235,0,.411.059.646.059a.935.935,0,0,1,.7.528,4.3,4.3,0,0,1,.469,1.467c.117.646.235,1.174.293,1.526a4.96,4.96,0,0,0,.293,1l.059.176.235.587v.059l.235.7.059.117.117.293.059.117.293.646.176.352h.117a1.227,1.227,0,0,0,.235-.352q.088-.264.352-.88l.763-1.761c.587-1.408,1.174-2.524,1.643-3.4a6.267,6.267,0,0,1,.939-1.467,1.693,1.693,0,0,1,1.056-.176l.763.059h.059l.411.059a3.309,3.309,0,0,1,.7.235C459.239,94.109,459.357,94.285,459.357,94.519Z" transform="translate(-352.311 -93.111)" fill="#fff"/>
      <path id="Path_418" data-name="Path 418" d="M476.432,105.445a1,1,0,0,1-.528.88l-.235.235-.117.059a1.282,1.282,0,0,0-.293.176l-.646.293c-.352.117-.646.235-1,.352a5.136,5.136,0,0,1-.939.117,2.305,2.305,0,0,1-2.289-1.056,5.384,5.384,0,0,1-.528-1.35,2.2,2.2,0,0,1-.059-.646v-.646a5.849,5.849,0,0,1,.117-.939,5.3,5.3,0,0,1,.469-1.232,8.39,8.39,0,0,1,.822-1.174,5.438,5.438,0,0,1,.822-.822,1.933,1.933,0,0,1,.763-.411c.235-.117.47-.176.763-.293a2.085,2.085,0,0,1,.587-.117,1.737,1.737,0,0,1,.587.117c.235.117.469.293.7.411a2.5,2.5,0,0,1,.7.646,2.594,2.594,0,0,1,.352.939l.059.411v.822a1.462,1.462,0,0,1-.176,1,1.236,1.236,0,0,1-.763.293l-.176.059-.411.059-1.7.352-1.408.293-.293.059h-.059l-.235.059a.294.294,0,0,0-.293.352v.176c0,.059.059.235.117.469a.855.855,0,0,0,.352.528,2.355,2.355,0,0,0,.88.176h.47a7.374,7.374,0,0,0,2.171-.763l.469-.293.352-.235c.059,0,.117-.059.176-.059A.814.814,0,0,1,476.432,105.445Zm-1.467-4.343a1.8,1.8,0,0,0-.235-.7.4.4,0,0,0-.352-.235,1.668,1.668,0,0,0-.7.235,3.947,3.947,0,0,0-.646.411c-.117.117-.352.235-.587.469a4.041,4.041,0,0,0-.646.763l-.293.469a1.28,1.28,0,0,1-.235.293.216.216,0,0,0-.059.176v.176a.448.448,0,0,1,.293-.117,10.383,10.383,0,0,1,1.35-.235l.822-.176.235-.059.528-.117a.372.372,0,0,0,.352-.293A2.233,2.233,0,0,0,474.964,101.1Z" transform="translate(-362.226 -95.233)" fill="#fff"/>
      <path id="Path_419" data-name="Path 419" d="M486.139,104.325l.176.528q0,.176-.352.352l-.352.117h-.059l-.469.059-.646.059-.587.059h-.235a.788.788,0,0,1-.822-.411,2.084,2.084,0,0,1-.235-.528c0-.117.059-.176.176-.235a1.381,1.381,0,0,1,.47-.117.494.494,0,0,0,.411-.235,2.906,2.906,0,0,0,.117-1V97.635l.059-.822v-.059c0-.176.059-.411.059-.587a.5.5,0,0,0-.117-.352h-.646a.909.909,0,0,1-.7-.587.515.515,0,0,1,.059-.411,2.423,2.423,0,0,1,.646-.411l.176-.059.47-.176h.469a1.624,1.624,0,0,1,.528.059,1.555,1.555,0,0,1,.352.293l.117.117a1.737,1.737,0,0,1,.117.587v7.277l.059,1.467c.059.059.117.059.235.117l.411.117a.586.586,0,0,1,.293.235Z" transform="translate(-367.415 -93.292)" fill="#fff"/>
      <path id="Path_420" data-name="Path 420" d="M497.588,103.072a4.528,4.528,0,0,1,.117.88,4.839,4.839,0,0,1-.411,1.819,3.73,3.73,0,0,1-1.115,1.585,2.949,2.949,0,0,1-1.643.7l-.352.059h-1l-.352-.059a1.807,1.807,0,0,1-.763-.176,3.145,3.145,0,0,1-.646-.293,3.4,3.4,0,0,1-.7-.587,2.645,2.645,0,0,1-.587-.822,2.381,2.381,0,0,1-.235-1.115v-.352a8.751,8.751,0,0,1,.117-1.232,5.571,5.571,0,0,1,.528-1.232,2.907,2.907,0,0,1,1.115-1.115l1.056-.528a2.911,2.911,0,0,1,.763-.176l.293-.059h.646l1.056.176a2.286,2.286,0,0,1,1.35.88A8.108,8.108,0,0,1,497.588,103.072Zm-1.585.7a3.437,3.437,0,0,0-.117-.763,2.593,2.593,0,0,0-.352-.939,2.781,2.781,0,0,0-.587-.587,1.347,1.347,0,0,0-.822-.235,1.381,1.381,0,0,0-.939.293l-.469.352a1.931,1.931,0,0,0-.352.352,2.462,2.462,0,0,0-.528.822,4.663,4.663,0,0,0-.352,1.291l-.059.411a1,1,0,0,0,.059.411,1.382,1.382,0,0,0,.117.469c.059.176.059.293.117.352a3.37,3.37,0,0,0,.235.411,1.787,1.787,0,0,0,.469.469,2.742,2.742,0,0,0,.587.293,1,1,0,0,0,.411.059,4.3,4.3,0,0,0,1.467-.469c.763-.293,1.115-1.291,1.115-2.993Z" transform="translate(-370.53 -95.853)" fill="#fff"/>
      <path id="Path_421" data-name="Path 421" d="M512.968,106.928a.558.558,0,0,1-.235.587,1.994,1.994,0,0,1-1.174.176h-.528a3.249,3.249,0,0,1-1.056-.117.62.62,0,0,1-.352-.411,1.088,1.088,0,0,1-.117-.411c0-.235.176-.352.47-.352a.845.845,0,0,0,.528-.117,6.033,6.033,0,0,0,.059-1l-.059-1.819v-.117c0-.293-.059-.528-.059-.7l-.176-.528a1.044,1.044,0,0,0-.411-.469,1.539,1.539,0,0,0-.88-.117,1.807,1.807,0,0,0-.763.176l-.176.059-.293.117a1.285,1.285,0,0,0-.587.528,3.828,3.828,0,0,0-.117,1.408v2.876l.411.176a.618.618,0,0,1,.469.587.834.834,0,0,1-.117.352.586.586,0,0,1-.293.235,1.381,1.381,0,0,1-.47.117l-.646.117h-.059c-.117,0-.235.059-.352.059h-.235a1.625,1.625,0,0,1-.528-.059.671.671,0,0,1-.469-.411,2.083,2.083,0,0,1-.235-.528c0-.117.059-.176.235-.293l.587-.176.117-.059a.448.448,0,0,0,.117-.293v-4.049a.216.216,0,0,1,.059-.176c0-.059-.059-.117-.117-.176l-.411-.059a.846.846,0,0,1-.646-.528.353.353,0,0,0-.059-.235.494.494,0,0,1,.235-.411,3.309,3.309,0,0,1,.7-.235l.587-.117.235-.059h.411a.431.431,0,0,1,.352.117.848.848,0,0,1,.117.411h.117l.47-.117a4.53,4.53,0,0,1,.88-.117h.411a2.584,2.584,0,0,1,.939.117,7.006,7.006,0,0,1,.939.469,2.944,2.944,0,0,1,.88.822,2.989,2.989,0,0,1,.411,1,4.44,4.44,0,0,1,.059.88l-.059,2.289c0,.059.059.117.235.176a6.093,6.093,0,0,0,.587.235C512.91,106.634,512.91,106.752,512.968,106.928Z" transform="translate(-376.521 -95.894)" fill="#fff"/>
    </g>
    <g id="TLTH">
      <path id="Path_422" data-name="Path 422" d="M197.333,58.477a.443.443,0,0,1-.235.411.717.717,0,0,1-.528.176,1.088,1.088,0,0,1-.411-.117,1.107,1.107,0,0,1-.646-.7,4.313,4.313,0,0,1-.411-1.761l-.059-.352a.722.722,0,0,0-.293-.587.732.732,0,0,0-.7-.176.957.957,0,0,0-.763.646,5.769,5.769,0,0,0-.293.939c-.059.587-.059,1.174-.059,1.819L192.814,61v1.408c0,1.585,0,2.7.059,3.169a1.875,1.875,0,0,0,.176.822l.587.059.235.059a1.723,1.723,0,0,1,1.056.7c.117.293.117.469.176.469v.176a.594.594,0,0,1-.235.411,6.412,6.412,0,0,1-1,.293l-1.174.235-.469.117h-.763l-.646.117a2.857,2.857,0,0,1-.7-.059,1.285,1.285,0,0,1-.822-.469,2.17,2.17,0,0,1-.293-.646c0-.293.235-.528.763-.7l.293-.059a1.043,1.043,0,0,0,.587-.235,1.625,1.625,0,0,0,.176-.763c0-.352-.059-1.056-.176-2.23V61.294l-.059-1.7V56.951a3.435,3.435,0,0,0-.117-.763c-.059-.117-.176-.176-.411-.235l-.528.176-.587.059a1.058,1.058,0,0,0-.587.117,1.231,1.231,0,0,0-.235.646L188,58.418l-.176.587-.176.528c-.059.117-.176.176-.411.176a.744.744,0,0,1-.352-.059.937.937,0,0,1-.528-.411l-.059-.117a5.048,5.048,0,0,1,.059-.939c.059-.587.059-1.7.059-3.228,0-.176.117-.352.411-.469a3.2,3.2,0,0,1,1.291-.293l.646-.059.822-.117h.293c.235-.059.47-.117.646-.176l.939-.059.469-.059,1.291-.235.822-.059,1.526-.176h.7a.937.937,0,0,1,1.115.646.5.5,0,0,1,0,.411v1.35l.059,1.408v.646Z" transform="translate(-186.3 -53.228)" fill="#fff"/>
      <path id="Path_423" data-name="Path 423" d="M216.008,66.717a7.954,7.954,0,0,1,.117,1.174A5.741,5.741,0,0,1,215.6,70.3a4.616,4.616,0,0,1-1.409,2.054,3.578,3.578,0,0,1-2.113.88l-.411.059h-1.291l-.469-.059c-.352-.059-.646-.117-1-.176-.293-.117-.528-.235-.822-.352a5.6,5.6,0,0,1-.939-.7,3.484,3.484,0,0,1-.763-1.056,2.55,2.55,0,0,1-.293-1.467v-.469a7.285,7.285,0,0,1,.176-1.585,9.361,9.361,0,0,1,.7-1.585,3.912,3.912,0,0,1,1.467-1.467c.469-.235.88-.469,1.408-.7a5.5,5.5,0,0,1,.939-.235l.352-.059h.88a10.831,10.831,0,0,1,1.35.235,2.917,2.917,0,0,1,1.7,1.174A5.956,5.956,0,0,1,216.008,66.717Zm-2.054.88a4.561,4.561,0,0,0-.117-.939,5.071,5.071,0,0,0-.411-1.232,2.271,2.271,0,0,0-1.819-1,2.116,2.116,0,0,0-1.174.352l-.646.469a1.725,1.725,0,0,0-.469.469,2.456,2.456,0,0,0-.646,1.056,5.285,5.285,0,0,0-.47,1.643l-.059.528a1.625,1.625,0,0,0,.059.528c.059.176.059.411.117.587a1.987,1.987,0,0,0,.176.469,1.278,1.278,0,0,0,.293.47,2.252,2.252,0,0,0,.646.646A2.224,2.224,0,0,0,210.2,72a1.625,1.625,0,0,0,.528.059,8.131,8.131,0,0,0,1.937-.587c.822-.352,1.291-1.643,1.291-3.873Z" transform="translate(-194.469 -57.419)" fill="#fff"/>
      <path id="Path_424" data-name="Path 424" d="M235.892,71.316a.722.722,0,0,1-.293.763,2.713,2.713,0,0,1-1.526.235h-.7a5.714,5.714,0,0,1-1.408-.117.833.833,0,0,1-.469-.528c-.059-.176-.117-.352-.176-.587,0-.293.235-.411.646-.411s.646-.059.7-.176a5.1,5.1,0,0,0,.059-1.35l-.059-2.347v-.176a2.859,2.859,0,0,0-.117-.88,3.309,3.309,0,0,0-.235-.7,1.285,1.285,0,0,0-.528-.587,3.685,3.685,0,0,0-1.115-.176,2.46,2.46,0,0,0-.939.235l-.235.059-.352.176a1.285,1.285,0,0,0-.763.7,5.99,5.99,0,0,0-.176,1.761v3.639l.528.176c.411.176.646.411.646.7a.533.533,0,0,1-.176.411,1.053,1.053,0,0,1-.411.293c-.176.059-.411.117-.646.176l-.822.117h-.059c-.176,0-.293.059-.469.059h-.352a2.407,2.407,0,0,1-.646-.059.982.982,0,0,1-.646-.528,3.59,3.59,0,0,1-.293-.7q0-.176.352-.352l.763-.176.117-.059a.533.533,0,0,0,.176-.411V65.154c0-.059.059-.176.059-.235-.059-.059-.059-.117-.117-.176l-.528-.117a.938.938,0,0,1-.822-.7,2.542,2.542,0,0,0-.059-.293.564.564,0,0,1,.352-.528,5.164,5.164,0,0,1,.88-.293l.7-.176.352-.059h.528a.632.632,0,0,1,.469.117.947.947,0,0,1,.176.528s.059.059.176,0a3.188,3.188,0,0,1,.646-.117,7.191,7.191,0,0,1,1.115-.117h.528a7.225,7.225,0,0,1,1.174.117,7.3,7.3,0,0,1,1.174.587,3.557,3.557,0,0,1,1.174,1.115,4.981,4.981,0,0,1,.528,1.291,7.191,7.191,0,0,1,.117,1.115l-.059,2.934c0,.059.059.117.293.235s.469.176.763.293A1.206,1.206,0,0,0,235.892,71.316Z" transform="translate(-202.205 -57.088)" fill="#fff"/>
      <path id="Path_425" data-name="Path 425" d="M258.372,68.3a1.337,1.337,0,0,1,.176.646c0,.176-.176.293-.47.411l-.469.176h-.059l-.646.059-.88.117-.763.059h-.293a1.08,1.08,0,0,1-1.056-.469,2.17,2.17,0,0,1-.293-.646.323.323,0,0,1,.176-.293,2.236,2.236,0,0,1,.587-.176.616.616,0,0,0,.528-.293,3.228,3.228,0,0,0,.117-1.291V59.615l.059-1.056V58.5a4.563,4.563,0,0,0,.059-.763.758.758,0,0,0-.117-.469h-.763a1,1,0,0,1-.88-.763.563.563,0,0,1,.117-.528,3.743,3.743,0,0,1,.822-.469l.235-.059.646-.176h.587a2.857,2.857,0,0,1,.7.059.789.789,0,0,1,.411.352l.176.176a1.625,1.625,0,0,1,.176.763v9.39l.059,1.878c.117.059.176.059.293.117l.528.176c.176.059.293.117.352.293Z" transform="translate(-214.005 -54.072)" fill="#fff"/>
      <path id="Path_426" data-name="Path 426" d="M267.847,68.694a1,1,0,0,1,.059.411.355.355,0,0,1-.176.352,3.309,3.309,0,0,1-.7.235l-.528.059h-.176l-.7.059-.7.059h-.176a2.946,2.946,0,0,1-.7-.117,1.181,1.181,0,0,1-.646-.528.947.947,0,0,1-.176-.528c0-.293.411-.528,1.232-.763h.059l.059-.117v-2.7l-.059-2.7-.293-.117h-.352a.991.991,0,0,1-.587-.176,1.413,1.413,0,0,1-.352-.469.834.834,0,0,1-.117-.352.778.778,0,0,1,.352-.587,3.829,3.829,0,0,1,1.291-.469l.587-.117a1.625,1.625,0,0,1,.528-.059.353.353,0,0,1,.235.059c.117.059.293.176.411.235a1.556,1.556,0,0,1,.352.293,1.292,1.292,0,0,1,.059.469v.528l-.059,2.289-.059,2.876v.469a.706.706,0,0,0,.117.469l.47.117h.176c.059.059.176.117.235.176C267.612,68.048,267.73,68.283,267.847,68.694Zm-1.056-11.679a2.541,2.541,0,0,1-.059.293,2.308,2.308,0,0,1-.117.352c-.293.528-.587.763-.822.763a1.106,1.106,0,0,1-.469-.117,5.432,5.432,0,0,1-.587-.293c-.176-.117-.352-.293-.352-.469a1.292,1.292,0,0,1-.059-.469l.059-.352a2.636,2.636,0,0,1,.411-1.056,1.236,1.236,0,0,1,.763-.293.353.353,0,0,1,.235.059c.235.117.411.235.646.352a1.715,1.715,0,0,1,.352,1.232Z" transform="translate(-217.904 -54.114)" fill="#fff"/>
      <path id="Path_427" data-name="Path 427" d="M283.7,63.928a.806.806,0,0,1-.293.47,1.819,1.819,0,0,1-.763.352,2.17,2.17,0,0,0-.646.293,3.742,3.742,0,0,0-.47.822l-.822,1.819-1.232,2.641c-.411,1.115-.7,1.819-.822,2.113a1.055,1.055,0,0,1-.352.528l-.352.117a2.5,2.5,0,0,1-.646.117,1.006,1.006,0,0,1-.939-.646l-.235-.411-.059-.117c-.059-.117-.235-.528-.587-1.291-.293-.7-.646-1.643-1.056-2.7l-.235-.763a10,10,0,0,0-.293-1.056,1.227,1.227,0,0,0-.235-.352l-.528-.059a1.4,1.4,0,0,1-.646-.352,1.382,1.382,0,0,1-.293-.763c0-.293.235-.469.7-.587l.7-.176.822-.176a12.354,12.354,0,0,1,1.467-.117,1.083,1.083,0,0,1,.939.293l.176.176a1.043,1.043,0,0,1,.235.587.542.542,0,0,1-.352.587c-.176.059-.411.117-.646.176-.117,0-.176.059-.293.059l-.059.293c.117.469.235,1,.352,1.467l.411,1.232.411,1.174.059.059.176.293a1.03,1.03,0,0,0,.235.293l.646-1.056.117-.235.411-.822a12.451,12.451,0,0,1,1.232-2.113,3.262,3.262,0,0,0,.528-1c0-.117-.059-.176-.235-.293l-.352-.059a.811.811,0,0,1-.235-.176.78.78,0,0,1-.176-.469.744.744,0,0,1-.059-.352.564.564,0,0,1,.411-.528A3.794,3.794,0,0,1,281,62.989c.47-.059.822-.117.939-.117h.352a5.715,5.715,0,0,1,1.409.117.523.523,0,0,1,.293.469Z" transform="translate(-221.788 -57.212)" fill="#fff"/>
      <path id="Path_428" data-name="Path 428" d="M298.629,66.058l-.235.763c-.235.587-.47.88-.822.88a.616.616,0,0,1-.528-.293,1.471,1.471,0,0,1-.293-1.115v-.587l.059-.411.235-.939v-.235c-.059-.117-.117-.176-.235-.059a.811.811,0,0,0-.235.176l-.176.176-.352.528-.059.059a5.932,5.932,0,0,0-.763,1.761l-.235,1.174a10.922,10.922,0,0,0-.235,2,.907.907,0,0,0,.47.939l.587.176.352.176a.572.572,0,0,1,.235.528.722.722,0,0,1-.293.587,2.452,2.452,0,0,1-.587.235,2.857,2.857,0,0,1-.7.059l-.7.059-.469.059h-.293l-1.174.059h-.235a1.556,1.556,0,0,1-.352-.293l-.235-.235a1.043,1.043,0,0,1-.235-.587c0-.293.176-.469.587-.587a2.355,2.355,0,0,1,.88-.176.343.343,0,0,0,.059-.235V67.76l-.059-.939v-.411a1.888,1.888,0,0,1,.059-.47c0-.176.059-.352.059-.587a.44.44,0,0,0-.059-.293.448.448,0,0,0-.293-.117H292a1.707,1.707,0,0,1-.587-.293,1.217,1.217,0,0,1-.352-.587A.529.529,0,0,0,291,63.77a.4.4,0,0,1,.235-.352,7.839,7.839,0,0,1,1.056-.411l.528-.176a1.625,1.625,0,0,1,.528-.059,1.1,1.1,0,0,1,.822.293,1.236,1.236,0,0,1,.293.763v.352c0,.176.059.293.117.293l.117-.059.7-.763a2.107,2.107,0,0,1,.587-.411,1.91,1.91,0,0,1,.822-.235,2.491,2.491,0,0,1,1.115.352,1.83,1.83,0,0,1,.939,1.408A8.419,8.419,0,0,1,298.629,66.058Z" transform="translate(-229.555 -57.171)" fill="#fff"/>
      <path id="Path_429" data-name="Path 429" d="M314.627,69.723a2.085,2.085,0,0,1-.117.587,1.664,1.664,0,0,1-.587.528l-.293.293-.117.059a3.366,3.366,0,0,1-.411.235l-.822.352a11.417,11.417,0,0,1-1.291.469,4.467,4.467,0,0,1-1.232.176c-1.585,0-2.524-.469-2.934-1.35a11.019,11.019,0,0,1-.7-1.761,3.465,3.465,0,0,1-.117-.822v-.822a3.785,3.785,0,0,1,.176-1.174,5.166,5.166,0,0,1,.587-1.585,8.86,8.86,0,0,1,1.056-1.526c.352-.352.7-.7,1.115-1.056a8.216,8.216,0,0,1,.939-.587c.293-.117.646-.235.939-.352a3.435,3.435,0,0,1,.763-.117,1.624,1.624,0,0,1,.763.176l.88.528a3.143,3.143,0,0,1,.88.88,2.847,2.847,0,0,1,.47,1.232l.059.528v1.056a1.975,1.975,0,0,1-.235,1.291,1.594,1.594,0,0,1-1,.352l-.176.059-.528.059-2.23.469-1.819.411-.411.117h-.059l-.293.117a.454.454,0,0,0-.411.469h0a.529.529,0,0,0,.059.293c0,.117.059.293.117.646a.909.909,0,0,0,.469.646,2.382,2.382,0,0,0,1.115.235h.587a9.486,9.486,0,0,0,2.817-1l.646-.352.469-.293a.353.353,0,0,1,.235-.059C314.392,69.019,314.627,69.253,314.627,69.723ZM312.69,64.03a.744.744,0,0,0-.059-.352l-.176-.528a.465.465,0,0,0-.47-.293,1.581,1.581,0,0,0-.88.293,6.448,6.448,0,0,0-.822.528,5.878,5.878,0,0,0-.7.646,6.282,6.282,0,0,0-.822.939l-.352.587c-.117.117-.176.293-.293.411a.353.353,0,0,0-.059.235v.235l.352-.176a10.636,10.636,0,0,1,1.7-.293l1.056-.235.293-.059.7-.176a.511.511,0,0,0,.469-.352A5.671,5.671,0,0,0,312.69,64.03Z" transform="translate(-235.751 -56.551)" fill="#fff"/>
      <path id="Path_430" data-name="Path 430" d="M324.225,77.272l-.235.469-.411.763c-.528.939-1.056,1.408-1.526,1.408a.811.811,0,0,1-.646-.352l-.235-.352a.443.443,0,0,1,.059-.469l.059-.117.47-.939.117-.235.176-.411.411-.763a5.522,5.522,0,0,0,.7-1.291c.059-.293.176-.411.352-.411a.448.448,0,0,1,.293.117l.176.117a5.529,5.529,0,0,0,.587.587.815.815,0,0,1,.293.587,1.444,1.444,0,0,1-.235.646Z" transform="translate(-242.004 -62.046)" fill="#fff"/>
      <path id="Path_431" data-name="Path 431" d="M345.158,69.523l-.293.411-.059.059a2.554,2.554,0,0,1-.411.352c-.176.117-.47.293-.822.528a2.116,2.116,0,0,1-1.174.352l-.528-.059a3.4,3.4,0,0,1-1.232-.411,2.87,2.87,0,0,1-.939-.939,5.042,5.042,0,0,1-.293-1.878V65.649a5.046,5.046,0,0,0-.059-.939.224.224,0,0,0-.293-.176c-.176,0-.352.059-.469.059h-.293a.929.929,0,0,1-.939-.352,1.836,1.836,0,0,1-.293-.587A.744.744,0,0,1,337,63.3a.353.353,0,0,1,.059-.235c.059-.117.176-.176.411-.293a5.165,5.165,0,0,1,.88-.293l.646-.117h.293a.445.445,0,0,0,.117-.235,4.561,4.561,0,0,0,.117-.939v-.646c-.059-.235-.059-.411-.117-.646v-.469c0-.7.235-1.056.763-1.056a1.979,1.979,0,0,1,1,.293c.411.176.646.411.646.7a1.183,1.183,0,0,1-.176.646,3.323,3.323,0,0,0-.176,1.056c0,.646.235,1,.7.939a2.476,2.476,0,0,0,.7-.176.834.834,0,0,1,.352-.117.216.216,0,0,0,.176-.059,1.4,1.4,0,0,1,.646.352.9.9,0,0,1,.411.7.71.71,0,0,1-.352.528l-.528.235-1.409.411a1.714,1.714,0,0,1-.528.117q-.088,0-.176.528a7.1,7.1,0,0,0-.059,1.115v1.819l-.059.7v.176a1.106,1.106,0,0,0,.117.469c.059.469.293.763.646.763a.666.666,0,0,0,.47-.176l.469-.293.646-.469a1.933,1.933,0,0,1,.763-.411.507.507,0,0,1,.352.176.431.431,0,0,1,.235.469C345.51,69.053,345.334,69.288,345.158,69.523Z" transform="translate(-248.558 -55.353)" fill="#fff"/>
      <path id="Path_432" data-name="Path 432" d="M362.108,66.676a7.95,7.95,0,0,1,.117,1.174,5.74,5.74,0,0,1-.528,2.406,4.615,4.615,0,0,1-1.408,2.054,3.579,3.579,0,0,1-2.113.88l-.411.059h-1.291L356,73.19c-.352-.059-.646-.117-1-.176-.293-.117-.528-.235-.822-.352a5.6,5.6,0,0,1-.939-.7,3.483,3.483,0,0,1-.763-1.056,2.55,2.55,0,0,1-.293-1.467v-.469a7.285,7.285,0,0,1,.176-1.585,9.361,9.361,0,0,1,.7-1.585,3.678,3.678,0,0,1,1.467-1.526c.469-.235.88-.469,1.408-.7a5.5,5.5,0,0,1,.939-.235l.352-.059h.88a10.831,10.831,0,0,1,1.35.235,2.917,2.917,0,0,1,1.7,1.174A5.242,5.242,0,0,1,362.108,66.676Zm-2,.88a4.561,4.561,0,0,0-.117-.939,5.071,5.071,0,0,0-.411-1.232,2.271,2.271,0,0,0-1.819-1,2.116,2.116,0,0,0-1.174.352l-.646.469a1.725,1.725,0,0,0-.469.469,2.456,2.456,0,0,0-.646,1.056,5.286,5.286,0,0,0-.469,1.643l-.059.528a1.624,1.624,0,0,0,.059.528c.059.176.059.411.117.587a1.988,1.988,0,0,0,.176.469,1.278,1.278,0,0,0,.293.47,2.253,2.253,0,0,0,.646.646,2.224,2.224,0,0,0,.763.352,1.625,1.625,0,0,0,.528.059,8.13,8.13,0,0,0,1.937-.587c.822-.352,1.291-1.643,1.291-3.873Z" transform="translate(-254.827 -57.377)" fill="#fff"/>
      <path id="Path_433" data-name="Path 433" d="M381.909,71.316a.722.722,0,0,1-.293.763,2.713,2.713,0,0,1-1.526.235h-.7a5.714,5.714,0,0,1-1.408-.117.833.833,0,0,1-.47-.528c-.059-.176-.117-.352-.176-.587,0-.293.235-.411.646-.411s.646-.059.7-.176a5.1,5.1,0,0,0,.059-1.35l-.059-2.347v-.176a2.858,2.858,0,0,0-.117-.88,3.309,3.309,0,0,0-.235-.7,1.284,1.284,0,0,0-.528-.587,3.784,3.784,0,0,0-1.174-.176,2.46,2.46,0,0,0-.939.235l-.235.059-.352.176a1.285,1.285,0,0,0-.763.7,5.989,5.989,0,0,0-.176,1.761v3.639l.528.176c.411.176.646.411.646.7a.533.533,0,0,1-.176.411,1.053,1.053,0,0,1-.411.293c-.176.059-.411.117-.646.176l-.822.117h-.117c-.176,0-.293.059-.469.059h-.352a2.2,2.2,0,0,1-.646-.059.982.982,0,0,1-.646-.528,3.59,3.59,0,0,1-.293-.7q0-.176.352-.352l.763-.176.117-.059a.533.533,0,0,0,.176-.411V65.154c0-.059.059-.176.059-.235-.059-.059-.059-.117-.117-.176l-.528-.117a.938.938,0,0,1-.822-.7,2.542,2.542,0,0,0-.059-.293.564.564,0,0,1,.352-.528,5.164,5.164,0,0,1,.88-.293l.7-.176.352-.059h.528a.632.632,0,0,1,.469.117.946.946,0,0,1,.176.528s.059.059.176,0a3.188,3.188,0,0,1,.646-.117,7.19,7.19,0,0,1,1.115-.117h.528a7.225,7.225,0,0,1,1.174.117,7.3,7.3,0,0,1,1.174.587,3.556,3.556,0,0,1,1.174,1.115,4.981,4.981,0,0,1,.528,1.291,7.191,7.191,0,0,1,.117,1.115l-.059,2.934c0,.059.059.117.293.235s.47.176.763.293A2.111,2.111,0,0,0,381.909,71.316Z" transform="translate(-262.481 -57.088)" fill="#fff"/>
      <path id="Path_434" data-name="Path 434" d="M411.166,67.291a.972.972,0,0,1,.293.7.523.523,0,0,1-.293.469,1.338,1.338,0,0,1-.646.176l-.822.117-.528.059H408a4.442,4.442,0,0,1-.88-.059,2.455,2.455,0,0,1-.7-.469.533.533,0,0,1-.176-.411.443.443,0,0,1,.235-.411c.117-.059.293-.117.411-.176l.176-.059.47-.176a.834.834,0,0,0,.352-.117.44.44,0,0,0,.059-.293v-.411l-.176-2.289v-.117l-.059-.587c-.176-1.115-.7-1.643-1.467-1.643a3.323,3.323,0,0,0-1.056.176l-.411.117-.939.352a2.168,2.168,0,0,0-.822.411,1.538,1.538,0,0,0-.117.88v3.7a.5.5,0,0,0,.117.352,1.106,1.106,0,0,0,.469.117.666.666,0,0,1,.469.176,1.227,1.227,0,0,1,.235.352,1.106,1.106,0,0,1,.117.469c0,.411-.646.763-1.878,1.056l-.411.059h-1.056a3.874,3.874,0,0,1-.822-.059,1.582,1.582,0,0,1-.469-.411.953.953,0,0,1-.293-.528.511.511,0,0,1,.352-.469,1.758,1.758,0,0,1,.587-.235.745.745,0,0,1,.352-.059c0-.117,0-.528.059-1.174s.059-2.289.059-4.812V59.31c0-1,.059-1.585.059-1.7a.353.353,0,0,0-.059-.235l-.117-.059-.528.059a1.083,1.083,0,0,1-.7-.293l-.293-.352a.882.882,0,0,1-.235-.646.637.637,0,0,1,.469-.469l.059-.059,1.232-.352.528-.176.352-.059a1.307,1.307,0,0,1,1.291.7,9.969,9.969,0,0,1,.293,2.934l-.059.7-.059.469c0,.117-.059.293-.059.411q0,.352.528.352l1.056-.235a2.857,2.857,0,0,1,.7-.059h.411a4.066,4.066,0,0,1,1.174.176,6.752,6.752,0,0,1,1.467.7,3.953,3.953,0,0,1,1.291,1.115,5.265,5.265,0,0,1,.528,1.937l.059.352v1a4.333,4.333,0,0,0,0,1.232c.059.117.352.176.763.176C410.872,67,410.99,67.056,411.166,67.291Z" transform="translate(-274.131 -53.943)" fill="#fff"/>
      <path id="Path_435" data-name="Path 435" d="M425.547,68.694a1,1,0,0,1,.059.411.418.418,0,0,1-.176.352,3.308,3.308,0,0,1-.7.235l-.528.059h-.176l-.7.059-.7.059h-.176a2.946,2.946,0,0,1-.7-.117,1.181,1.181,0,0,1-.646-.528.947.947,0,0,1-.176-.528c0-.293.411-.528,1.232-.763h.059l.059-.117v-2.7l-.059-2.7-.293-.117h-.352a.992.992,0,0,1-.587-.176,1.412,1.412,0,0,1-.352-.469.835.835,0,0,1-.117-.352.778.778,0,0,1,.352-.587,3.829,3.829,0,0,1,1.291-.469l.587-.117a1.625,1.625,0,0,1,.528-.059.353.353,0,0,1,.235.059c.117.059.293.176.411.235a1.556,1.556,0,0,1,.352.293,1.292,1.292,0,0,1,.059.469v.528l-.059,2.289-.059,2.876v.469a.706.706,0,0,0,.117.469l.47.117h.176c.059.059.176.117.235.176C425.312,68.048,425.43,68.283,425.547,68.694Zm-1.056-11.679a2.543,2.543,0,0,1-.059.293,2.309,2.309,0,0,1-.117.352c-.293.528-.587.763-.822.763a1.106,1.106,0,0,1-.469-.117,5.429,5.429,0,0,1-.587-.293c-.176-.117-.352-.293-.352-.469a1.292,1.292,0,0,1-.059-.469l.059-.352a2.636,2.636,0,0,1,.411-1.056,1.236,1.236,0,0,1,.763-.293.353.353,0,0,1,.235.059c.235.117.411.235.646.352a1.715,1.715,0,0,1,.352,1.232Z" transform="translate(-283.055 -54.114)" fill="#fff"/>
      <path id="Path_436" data-name="Path 436" d="M439.12,64.926v.646a4.44,4.44,0,0,1-.059.88,1.757,1.757,0,0,1-.235.587l-.176.411c-.059.059-.117.176-.176.235a.533.533,0,0,1-.411.176.645.645,0,0,1-.587-.352,1.757,1.757,0,0,1-.235-.587,2,2,0,0,1-.059-.587,4.44,4.44,0,0,1,.059-.88v-.411c0-.469-.235-.7-.646-.7a1.338,1.338,0,0,0-.646.176c-.293.117-.528.235-.763.352a2.379,2.379,0,0,0-.528.293l-.587.469-.528.469-.411.352a.445.445,0,0,0-.117.235c0,.235.176.469.646.646l1.232.528.352.176.176.059.176.059.293.176.528.235a4.04,4.04,0,0,1,.469.176c.117.059.528.293,1.174.646a1.6,1.6,0,0,1,1,1.467,1.813,1.813,0,0,1-.646,1.174l-.293.235a2.858,2.858,0,0,1-1.056.646,4.036,4.036,0,0,1-1.467.176,7.1,7.1,0,0,1-1.115-.059,9.111,9.111,0,0,1-1.232-.235l-.352-.059-.235-.059-.235-.059c-.7-.293-1.232-.469-1.467-.587l-.528-.352a2.085,2.085,0,0,1-.235-.528.594.594,0,0,1,.235-.411.666.666,0,0,1,.469-.176,1.625,1.625,0,0,1,.528.059,3.309,3.309,0,0,1,.7.235l.293.117.411.176a7.546,7.546,0,0,0,1.115.235l.939.117h.469a1,1,0,0,0,.411-.059,1.493,1.493,0,0,0,.411-.117c.176-.059.235-.176.117-.352a.707.707,0,0,0-.293-.293c-.235-.176-.528-.352-.822-.528a3.586,3.586,0,0,0-.822-.411c-.411-.176-1-.411-1.937-.763a1.539,1.539,0,0,1-.528-.293,3.075,3.075,0,0,1-.646-.587,1.984,1.984,0,0,1-.352-.7,3.03,3.03,0,0,1-.117-.646,1.773,1.773,0,0,1,.293-.939,3.483,3.483,0,0,1,.763-1.056,5.259,5.259,0,0,1,1.115-.88c.411-.293.7-.469.88-.587a2.1,2.1,0,0,1,.646-.235,2.945,2.945,0,0,1,.7-.117,4.943,4.943,0,0,1,1.585.469l.235.117c.176.059.293.117.47.176l.117-.411a.447.447,0,0,1,.469-.411.507.507,0,0,1,.352.176,1.557,1.557,0,0,1,.293.352.725.725,0,0,1,.235.469,4.156,4.156,0,0,1,.059.822Z" transform="translate(-287.062 -57.212)" fill="#fff"/>
      <path id="Path_437" data-name="Path 437" d="M453.158,69.523l-.293.411-.059.059a2.552,2.552,0,0,1-.411.352c-.176.117-.47.293-.822.528a2.116,2.116,0,0,1-1.174.352l-.528-.059a3.4,3.4,0,0,1-1.232-.411,2.87,2.87,0,0,1-.939-.939,5.042,5.042,0,0,1-.293-1.878V65.649a5.048,5.048,0,0,0-.059-.939.224.224,0,0,0-.293-.176c-.176,0-.352.059-.47.059h-.293a.929.929,0,0,1-.939-.352,1.836,1.836,0,0,1-.293-.587A.744.744,0,0,1,445,63.3a.353.353,0,0,1,.059-.235c.059-.117.176-.176.411-.293a5.163,5.163,0,0,1,.88-.293l.646-.117h.293a.445.445,0,0,0,.117-.235,4.561,4.561,0,0,0,.117-.939v-.646c-.059-.235-.059-.411-.117-.646v-.469c0-.7.235-1.056.763-1.056a1.978,1.978,0,0,1,1,.293c.411.176.646.411.646.7a1.183,1.183,0,0,1-.176.646,3.323,3.323,0,0,0-.176,1.056c0,.646.235,1,.7.939a2.476,2.476,0,0,0,.7-.176.834.834,0,0,1,.352-.117.216.216,0,0,0,.176-.059,1.4,1.4,0,0,1,.646.352.9.9,0,0,1,.411.7.71.71,0,0,1-.352.528l-.528.235-1.408.411a1.714,1.714,0,0,1-.528.117q-.088,0-.176.528a7.1,7.1,0,0,0-.059,1.115v1.819l-.059.7v.176a1.106,1.106,0,0,0,.117.469c.059.469.293.763.646.763a.666.666,0,0,0,.469-.176l.469-.293.646-.469a1.933,1.933,0,0,1,.763-.411.507.507,0,0,1,.352.176.431.431,0,0,1,.235.469C453.451,69.053,453.334,69.288,453.158,69.523Z" transform="translate(-293.176 -55.353)" fill="#fff"/>
      <path id="Path_438" data-name="Path 438" d="M470.108,66.717a7.95,7.95,0,0,1,.117,1.174A5.74,5.74,0,0,1,469.7,70.3a4.615,4.615,0,0,1-1.408,2.054,3.579,3.579,0,0,1-2.113.88l-.411.059h-1.291L464,73.231c-.352-.059-.646-.117-1-.176-.293-.117-.528-.235-.822-.352a5.6,5.6,0,0,1-.939-.7,3.484,3.484,0,0,1-.763-1.056,2.55,2.55,0,0,1-.293-1.467v-.469a7.285,7.285,0,0,1,.176-1.585,9.361,9.361,0,0,1,.7-1.585,3.912,3.912,0,0,1,1.467-1.467c.469-.235.88-.469,1.409-.7a5.493,5.493,0,0,1,.939-.235l.352-.059h.88a10.831,10.831,0,0,1,1.35.235,2.917,2.917,0,0,1,1.7,1.174A4.975,4.975,0,0,1,470.108,66.717Zm-2.054.88a4.563,4.563,0,0,0-.117-.939,5.073,5.073,0,0,0-.411-1.232,2.271,2.271,0,0,0-1.819-1,2.116,2.116,0,0,0-1.174.352l-.646.469a1.725,1.725,0,0,0-.469.469,2.456,2.456,0,0,0-.646,1.056,5.285,5.285,0,0,0-.469,1.643l-.059.528a1.624,1.624,0,0,0,.059.528c.059.176.059.411.117.587a1.987,1.987,0,0,0,.176.469,1.278,1.278,0,0,0,.293.47,2.253,2.253,0,0,0,.646.646A2.224,2.224,0,0,0,464.3,72a1.625,1.625,0,0,0,.528.059,8.131,8.131,0,0,0,1.937-.587c.822-.352,1.291-1.643,1.291-3.873Z" transform="translate(-299.445 -57.419)" fill="#fff"/>
      <path id="Path_439" data-name="Path 439" d="M483.847,68.694a1,1,0,0,1,.059.411.418.418,0,0,1-.176.352,3.309,3.309,0,0,1-.7.235l-.528.059h-.176l-.7.059-.7.059h-.176a2.946,2.946,0,0,1-.7-.117,1.181,1.181,0,0,1-.646-.528.947.947,0,0,1-.176-.528c0-.293.411-.528,1.232-.763h.059l.059-.117v-2.7l-.059-2.7-.293-.117h-.352a.991.991,0,0,1-.587-.176,1.412,1.412,0,0,1-.352-.469.835.835,0,0,1-.117-.352.778.778,0,0,1,.352-.587,3.829,3.829,0,0,1,1.291-.469l.587-.117a1.625,1.625,0,0,1,.528-.059.353.353,0,0,1,.235.059c.117.059.293.176.411.235a1.556,1.556,0,0,1,.352.293,1.292,1.292,0,0,1,.059.469v.528l-.059,2.289-.059,2.876v.469a.706.706,0,0,0,.117.469l.469.117h.176c.059.059.176.117.235.176C483.612,68.048,483.73,68.283,483.847,68.694Zm-1.115-11.679a2.541,2.541,0,0,1-.059.293,2.3,2.3,0,0,1-.117.352c-.293.528-.587.763-.822.763a1.106,1.106,0,0,1-.47-.117,5.431,5.431,0,0,1-.587-.293c-.176-.117-.352-.293-.352-.469a1.292,1.292,0,0,1-.059-.469l.059-.352a2.637,2.637,0,0,1,.411-1.056,1.236,1.236,0,0,1,.763-.293.353.353,0,0,1,.235.059c.235.117.411.235.646.352A1.715,1.715,0,0,1,482.732,57.015Z" transform="translate(-307.14 -54.114)" fill="#fff"/>
      <path id="Path_440" data-name="Path 440" d="M495.512,66.058l-.235.763c-.235.587-.469.88-.822.88a.616.616,0,0,1-.528-.293,1.471,1.471,0,0,1-.293-1.115v-.587l.059-.411.235-.939v-.235c-.059-.117-.117-.176-.235-.059a.81.81,0,0,0-.235.176l-.176.176-.352.528-.059.059a5.932,5.932,0,0,0-.763,1.761l-.235,1.174a10.919,10.919,0,0,0-.235,2,.907.907,0,0,0,.47.939l.587.176.352.176a.572.572,0,0,1,.235.528.722.722,0,0,1-.293.587,2.452,2.452,0,0,1-.587.235,2.857,2.857,0,0,1-.7.059l-.7.059-.47.059h-.176l-1.174.059h-.235a1.556,1.556,0,0,1-.352-.293l-.235-.235a1.043,1.043,0,0,1-.235-.587c0-.293.176-.469.587-.587a2.355,2.355,0,0,1,.88-.176.343.343,0,0,0,.059-.235V67.76a4.744,4.744,0,0,0-.059-.939v-.411a1.888,1.888,0,0,1,.059-.47c0-.176.059-.352.059-.587a.44.44,0,0,0-.059-.293.448.448,0,0,0-.293-.117H489a1.707,1.707,0,0,1-.587-.293,1.218,1.218,0,0,1-.352-.587A.529.529,0,0,0,488,63.77a.4.4,0,0,1,.235-.352,7.838,7.838,0,0,1,1.056-.411l.528-.176a1.625,1.625,0,0,1,.528-.059,1.1,1.1,0,0,1,.822.293,1.236,1.236,0,0,1,.293.763v.352c0,.176.059.293.117.293l.117-.059.7-.763a2.107,2.107,0,0,1,.587-.411,1.91,1.91,0,0,1,.822-.235,2.491,2.491,0,0,1,1.115.352,1.83,1.83,0,0,1,.939,1.408C495.688,65.237,495.629,65.648,495.512,66.058Z" transform="translate(-310.941 -57.171)" fill="#fff"/>
      <path id="Path_441" data-name="Path 441" d="M511.386,69.723a2.084,2.084,0,0,1-.117.587,1.664,1.664,0,0,1-.587.528l-.352.293-.117.059a3.368,3.368,0,0,1-.411.235l-.822.352a11.417,11.417,0,0,1-1.291.469,4.468,4.468,0,0,1-1.232.176c-1.585,0-2.524-.469-2.934-1.35a11.021,11.021,0,0,1-.7-1.761,3.462,3.462,0,0,1-.117-.822v-.822a3.782,3.782,0,0,1,.176-1.174,5.165,5.165,0,0,1,.587-1.585,8.861,8.861,0,0,1,1.056-1.526c.352-.352.7-.7,1.115-1.056a8.213,8.213,0,0,1,.939-.587c.293-.117.646-.235.939-.352a3.435,3.435,0,0,1,.763-.117,1.624,1.624,0,0,1,.763.176l.88.528a3.144,3.144,0,0,1,.88.88,2.847,2.847,0,0,1,.469,1.232l.059.528v1.056a1.975,1.975,0,0,1-.235,1.291,1.594,1.594,0,0,1-1,.352l-.176.059-.528.059-2.23.469-1.819.411-.411.117h-.059l-.293.117a.454.454,0,0,0-.411.469h0a.529.529,0,0,0,.059.293c0,.117.059.293.117.646a.909.909,0,0,0,.469.646,2.382,2.382,0,0,0,1.115.235h.587a9.487,9.487,0,0,0,2.817-1l.646-.352.47-.293a.353.353,0,0,1,.235-.059C511.151,69.019,511.327,69.253,511.386,69.723Zm-1.937-5.693a.744.744,0,0,0-.059-.352l-.176-.528a.465.465,0,0,0-.469-.293,1.439,1.439,0,0,0-.939.352,3.327,3.327,0,0,0-.763.469,5.876,5.876,0,0,0-.7.646,6.28,6.28,0,0,0-.822.939l-.352.587c-.117.117-.176.293-.293.411a.353.353,0,0,0-.059.235v.235l.352-.176a10.639,10.639,0,0,1,1.7-.293l1.056-.235.293-.059.7-.176a.511.511,0,0,0,.469-.352A5.671,5.671,0,0,0,509.449,64.03Z" transform="translate(-317.014 -56.551)" fill="#fff"/>
    </g>
  </g>
</svg>
