<svg id="Component_60_1" data-name="Component 60 – 1" xmlns="http://www.w3.org/2000/svg" width="11.197" height="11.197" viewBox="0 0 11.197 11.197">
  <path id="Path_1439" data-name="Path 1439" d="M8.686.431,5.6,3.518,2.512.431A1.471,1.471,0,0,0,.431,2.512L3.518,5.6.431,8.686a1.472,1.472,0,0,0,0,2.081h0a1.472,1.472,0,0,0,2.081,0L5.6,7.68l3.087,3.087a1.471,1.471,0,1,0,2.081-2.081L7.68,5.6l3.087-3.087a1.472,1.472,0,0,0,0-2.081h0A1.472,1.472,0,0,0,8.686.431Z" transform="translate(11.197 11.197) rotate(180)" fill="#fb414d"/>
</svg>
