<svg id="Component_116_1" data-name="Component 116 – 1" xmlns="http://www.w3.org/2000/svg" width="46" height="46" viewBox="0 0 46 46">
  <circle id="Ellipse_71" data-name="Ellipse 71" cx="23" cy="23" r="23" fill="#fff"/>
  <path id="Path_597" data-name="Path 597" d="M13.477,2.995c5.787,0,10.482,4.357,10.482,9.733a9.191,9.191,0,0,1-1.55,5.091l1.55,4.642L19.2,20.874a10.994,10.994,0,0,1-5.728,1.587c-5.787,0-10.482-4.357-10.482-9.733S7.689,2.995,13.477,2.995m0-2.995C6.046,0,0,5.71,0,12.728S6.046,25.456,13.477,25.456a14.062,14.062,0,0,0,6-1.333L23.01,25.3A3,3,0,0,0,26.8,21.512l-1.125-3.371a12.122,12.122,0,0,0,1.28-5.414C26.953,5.71,20.907,0,13.477,0Z" transform="translate(10 9)" fill="#fb414d"/>
</svg>
