<svg id="Component_18_3" data-name="Component 18 – 3" xmlns="http://www.w3.org/2000/svg" width="55" height="29" viewBox="0 0 55 29">
  <path id="Path_582" data-name="Path 582" d="M214.3,381.978h-49.68a2.591,2.591,0,0,1-2.66-2.5h0a2.591,2.591,0,0,1,2.66-2.5H214.3a2.591,2.591,0,0,1,2.66,2.5h0A2.591,2.591,0,0,1,214.3,381.978Z" transform="translate(-161.958 -364.978)" fill="#fff"/>
  <path id="Path_1497" data-name="Path 1497" d="M214.3,381.978h-49.68a2.591,2.591,0,0,1-2.66-2.5h0a2.591,2.591,0,0,1,2.66-2.5H214.3a2.591,2.591,0,0,1,2.66,2.5h0A2.591,2.591,0,0,1,214.3,381.978Z" transform="translate(-161.958 -376.978)" fill="#fff"/>
  <path id="Path_1496" data-name="Path 1496" d="M214.3,381.978h-49.68a2.591,2.591,0,0,1-2.66-2.5h0a2.591,2.591,0,0,1,2.66-2.5H214.3a2.591,2.591,0,0,1,2.66,2.5h0A2.591,2.591,0,0,1,214.3,381.978Z" transform="translate(-161.958 -352.978)" fill="#fff"/>
</svg>
