<?xml version="1.0" encoding="utf-8"?>
<!-- Generator: Adobe Illustrator 24.2.1, SVG Export Plug-In . SVG Version: 6.00 Build 0)  -->
<svg version="1.1" id="Layer_1" xmlns="http://www.w3.org/2000/svg" xmlns:xlink="http://www.w3.org/1999/xlink" x="0px" y="0px"
	 viewBox="0 0 1672.7 826.7" style="enable-background:new 0 0 1672.7 826.7;" xml:space="preserve">
<style type="text/css">
	.st0{display:none;}
	.st1{display:inline;fill:#444445;}
	.st2{display:inline;}
	.st3{fill:#444445;}
	.st4{display:none;fill:#FFFFFF;}
	.st5{fill:#FF3300;}
	.st6{fill:#FFFFFF;}
</style>
<g class="st0">
	<path class="st1" d="M634.1,46.7l-5.9,36.6h5.3l1-6.6h7.1l1,6.6h5.8l-5.9-36.6H634.1z M635.3,71.7l2.7-18.5h0.1l2.7,18.5H635.3z"/>
	<path class="st1" d="M659.1,83.7c5.6,0,8.6-3.3,8.6-9.2V62.9h-8.1v5.2h2.6v6.7c0,2.6-1.2,3.6-3,3.6c-1.8,0-3-0.9-3-3.6V55.1
		c0-2.6,1.2-3.6,3-3.6c1.8,0,3,1,3,3.6V59h5.4v-3.6c0-5.9-2.9-9.2-8.6-9.2s-8.6,3.3-8.6,9.2v19C650.6,80.4,653.5,83.7,659.1,83.7z"
		/>
	<polygon class="st1" points="671.4,83.3 687.1,83.3 687.1,78.1 677.2,78.1 677.2,67.4 685.1,67.4 685.1,62.1 677.2,62.1 
		677.2,51.9 687.1,51.9 687.1,46.7 671.4,46.7 	"/>
	<polygon class="st1" points="695.8,56.8 695.9,56.8 703,83.3 708.9,83.3 708.9,46.7 703.8,46.7 703.8,68.6 703.7,68.6 697.9,46.7 
		690.6,46.7 690.6,83.3 695.8,83.3 	"/>
	<path class="st1" d="M729.7,69.7h-5.4v5.2c0,2.6-1.2,3.6-3,3.6c-1.8,0-3-0.9-3-3.6V55.1c0-2.6,1.2-3.6,3-3.6c1.8,0,3,1,3,3.6V59
		h5.4v-3.6c0-5.9-2.9-9.2-8.6-9.2s-8.6,3.3-8.6,9.2v19c0,5.9,2.9,9.2,8.6,9.2s8.6-3.3,8.6-9.2V69.7z"/>
	<polygon class="st1" points="754.3,78.1 744.3,78.1 744.3,67.4 752.2,67.4 752.2,62.1 744.3,62.1 744.3,51.9 754.3,51.9 
		754.3,46.7 738.6,46.7 738.6,83.3 754.3,83.3 	"/>
	<path class="st1" d="M637.9,93.3c-5.6,0-8.6,3.3-8.6,9.2v19c0,5.9,2.9,9.2,8.6,9.2s8.6-3.3,8.6-9.2v-4.9H641v5.2
		c0,2.6-1.2,3.6-3,3.6c-1.8,0-3-0.9-3-3.6v-19.8c0-2.6,1.2-3.6,3-3.6c1.8,0,3,1,3,3.6v3.9h5.4v-3.6
		C646.5,96.7,643.6,93.3,637.9,93.3z"/>
	<path class="st1" d="M667.8,120.3c0-3.8-0.9-6.5-3.8-7.7v-0.1c2.6-1.2,3.8-3.6,3.8-7.4v-2.9c0-5.6-2.6-8.4-8.5-8.4h-8.7v36.6h5.8
		v-14.9h2c2.6,0,3.8,1.3,3.8,4.7v5.8c0,3,0.2,3.6,0.5,4.5h5.9c-0.6-1.4-0.6-2.7-0.6-4.4V120.3z M662,106.4c0,2.9-1.3,3.9-3.5,3.9
		h-2.2V99h2.8c2,0,2.9,1.2,2.9,3.8V106.4z"/>
	<g class="st2">
		<polygon class="st3" points="671.4,93.7 671.4,130.4 687.1,130.4 687.1,125.1 677.2,125.1 677.2,114.4 685.1,114.4 685.1,109.2 
			677.2,109.2 677.2,99 680.8,93.7 		"/>
		<polygon class="st3" points="679.6,99 687.1,99 687.1,93.7 683.2,93.7 		"/>
	</g>
	<path class="st1" d="M696.8,93.7l-5.9,36.6h5.3l1-6.6h7.1l1,6.6h5.8l-5.9-36.6H696.8z M697.9,118.8l2.7-18.5h0.1l2.7,18.5H697.9z"
		/>
	<polygon class="st1" points="710,99 716.1,99 716.1,130.4 721.8,130.4 721.8,99 727.8,99 727.8,93.7 710,93.7 	"/>
	<rect x="731.7" y="93.7" class="st1" width="5.8" height="36.6"/>
	<polygon class="st1" points="751.3,123.6 751.2,123.6 746.9,93.7 741.1,93.7 746.7,130.4 755.3,130.4 761,93.7 755.7,93.7 	"/>
	<polygon class="st1" points="779.9,99 779.9,93.7 764.2,93.7 764.2,130.4 779.9,130.4 779.9,125.1 770,125.1 770,114.4 
		777.9,114.4 777.9,109.2 770,109.2 770,99 	"/>
</g>
<circle class="st4" cx="477.4" cy="38.8" r="9.5"/>
<g>
	<path class="st5" d="M762,192.3h0.1l0.1-55.2l-76.8,39.8c-22.9-22-48.9-39.4-78.1-51.9c-31.5-13.2-64.3-19.8-98.7-19.8
		c-34.3,0-67.2,6.6-98.7,19.8c-30.4,12.9-57.3,31-80.8,54.3c-23.3,23.5-41.3,50.5-54.3,80.8c-7.8,18.6-13.3,37.7-16.4,57.4
		c-2,12.4-3.1,25-3.3,37.8h-0.1v40.6c-0.1,2.7-1.4,26.7-10.3,49.5c-13.7,34.9-32.5,36.1-44.5,36.1c-9.6,0-28-1.3-41.5-34.4
		c-9.6-23.4-10.9-48.5-11-51.2V108.3c-11.6,12.7-28.3,20.8-46.9,20.8c-18.7,0-35.5-8.1-47.1-20.9v247.4v40.6
		c-0.1,2.7-1.4,26.7-10.3,49.5C29.2,481.8,9.5,481.8,0,481.8v94c40.8,0,75.3-15.7,100.8-45c25,28.6,58.6,44.1,98.2,44.7v0.1
		c0.4,0,0.8,0,1.1,0c0.4,0,0.8,0,1.2,0v-0.1c47.3-0.6,84.5-20.5,110.2-56.9c8.1-11.4,15-24.3,20.7-38.9c15.5-39.7,17.8-78,17.9-82.2
		l0-38.1v-0.9c0-14,1.8-27.6,5.4-40.9c1.8-6.9,4.1-13.8,6.9-20.5c8.2-19,19.5-35.8,34.1-50.3c14.5-14.5,31.3-25.9,50.3-34.1
		c19.5-8.2,40.2-12.3,61.8-12.3c21.4,0,42,4.1,61.8,12.3c18.8,8.2,35.5,19.6,50.3,34.1c14.5,14.5,25.7,31.3,33.7,50.3
		c8.4,19.8,12.7,40.4,12.7,61.8c0,21.4-4.2,42-12.7,61.8c-7.9,18.8-19.2,35.5-33.7,50.3c-14.8,14.5-31.6,25.9-50.3,34.1
		c-19.8,8.2-40.4,12.3-61.8,12.3c-21.7,0-42.3-4.1-61.8-12.3c-19-8.2-35.8-19.5-50.3-34.1c-7.5-7.7-14.1-16-19.9-24.7
		c-3.2,15.4-13.8,56.8-40.7,97.3c-0.2,0.2-0.3,0.4-0.5,0.7c22,20.4,46.8,36.5,74.5,48.3c31.4,13.2,64.3,19.8,98.7,19.8
		c29.6,0,58.1-4.9,85.6-14.7c26.4-9.5,50.7-23.1,72.9-40.8v38.2h0c0.4,17.6-2.4,34.2-8.4,50.1c-6.3,16.4-15.1,30.6-26.9,43.4
		c-12.2,13.2-26.2,23.2-42.8,30.6c-16.5,7.5-33.4,11.3-51,11.8c-16.7,0.1-34.3-2.5-50.1-8.4c-16.4-6.3-30.7-15.2-43.6-27.1
		L379.7,766c21.6,19.9,46.5,35.4,74.6,46.2c26,9.7,53.2,14.6,81.2,14.6c1.6,0,3.3,0,4.9-0.1c30.5-0.8,60.1-7.6,88-20.2
		c28-12.6,52.8-30.4,73.7-52.9c19.9-21.7,35.4-46.6,46.1-74.5c10.3-27.5,14.7-56.4,14.1-85.9V358.8c0-2-0.2-3.9-0.3-5.8V192.3z"/>
	<circle class="st5" cx="100.8" cy="47.5" r="47.5"/>
	<g>
		<path class="st6" d="M970.8,331.9h-30.3l-5.2-34.6h-36.8l-5.2,34.6h-27.5l30.5-190.9h43.9L970.8,331.9z M902.4,271.3h28.9
			l-14.2-96.6h-0.5L902.4,271.3z"/>
		<path class="st6" d="M1033.8,225.5h42V286c0,30.5-15.3,48-44.7,48c-29.5,0-44.7-17.5-44.7-48v-99.3c0-30.5,15.3-48,44.7-48
			c29.5,0,44.7,17.5,44.7,48v18.5h-28.4v-20.5c0-13.6-6-18.8-15.5-18.8c-9.5,0-15.5,5.2-15.5,18.8v103.1c0,13.6,6,18.5,15.5,18.5
			c9.5,0,15.5-4.9,15.5-18.5v-35.2h-13.6V225.5z"/>
		<path class="st6" d="M1129.6,221.4h44.2v27.3h-44.2v55.9h57.9v27.3h-87.9V140.9h87.9v27.3h-57.9V221.4z"/>
		<path class="st6" d="M1231.6,193.6h-0.5v138.3h-27V140.9h37.6l30.3,114.3h0.5V140.9h26.7v190.9h-30.8L1231.6,193.6z"/>
		<path class="st6" d="M1412.2,260.7V286c0,30.5-15.3,48-44.7,48s-44.7-17.5-44.7-48v-99.3c0-30.5,15.3-48,44.7-48
			s44.7,17.5,44.7,48v18.5h-28.4v-20.5c0-13.6-6-18.8-15.5-18.8c-9.5,0-15.5,5.2-15.5,18.8v103.1c0,13.6,6,18.5,15.5,18.5
			c9.5,0,15.5-4.9,15.5-18.5v-27.3H1412.2z"/>
		<path class="st6" d="M1464.8,221.4h44.2v27.3h-44.2v55.9h57.9v27.3h-87.9V140.9h87.9v27.3h-57.9V221.4z"/>
		<path class="st6" d="M960.7,506.3v25.4c0,30.5-15.3,48-44.7,48s-44.7-17.5-44.7-48v-99.3c0-30.5,15.3-48,44.7-48
			s44.7,17.5,44.7,48v18.5h-28.4v-20.5c0-13.6-6-18.8-15.5-18.8s-15.5,5.2-15.5,18.8v103.1c0,13.6,6,18.5,15.5,18.5
			s15.5-4.9,15.5-18.5v-27.3H960.7z"/>
		<path class="st6" d="M1046.1,577.4c-1.6-4.9-2.7-7.9-2.7-23.5v-30c0-17.7-6-24.3-19.6-24.3h-10.4v77.7h-30V386.5h45.3
			c31.1,0,44.5,14.5,44.5,43.9v15c0,19.6-6.3,32.2-19.6,38.5v0.5c15,6.3,19.9,20.5,19.9,40.4v29.5c0,9.3,0.3,16.1,3.3,23.2H1046.1z
			 M1013.4,413.8v58.6h11.7c11.2,0,18-4.9,18-20.2v-18.8c0-13.6-4.6-19.6-15.3-19.6H1013.4z"/>
		<path class="st6" d="M1308.3,577.4H1278l-5.2-34.6H1236l-5.2,34.6h-27.5l30.6-190.9h43.9L1308.3,577.4z M1239.8,516.9h28.9
			l-14.2-96.6h-0.5L1239.8,516.9z"/>
		<path class="st6" d="M1304.5,386.5h92.7v27.3h-31.4v163.7h-30V413.8h-31.4V386.5z"/>
		<path class="st6" d="M1414.6,386.5h30v190.9h-30V386.5z"/>
		<path class="st6" d="M1515.8,542.3h0.5l22.6-155.7h27.5l-29.5,190.9h-44.7l-29.5-190.9h30.3L1515.8,542.3z"/>
		<path class="st6" d="M1614.8,467h41.2v27.3h-41.2v55.9h57.9v27.3h-87.9V386.5h87.9v27.3h-57.9V467z"/>
		<g>
			<polygon class="st6" points="1127.4,494.2 1171.6,494.2 1171.6,467 1127.4,467 1127.4,413.8 1127.4,413.8 1146.3,386.5 
				1097.4,386.5 1097.4,577.4 1185.3,577.4 1185.3,550.2 1127.4,550.2 			"/>
			<polygon class="st6" points="1161.8,386.5 1142.9,413.8 1185.3,413.8 1185.3,386.5 			"/>
		</g>
	</g>
</g>
</svg>
