<svg xmlns="http://www.w3.org/2000/svg" width="337.211" height="170.123" viewBox="0 0 337.211 170.123">
  <path id="Path_95" data-name="Path 95" d="M25,1.062C38.467,1.062,48.067-8.129,48.067-21S38.467-43.061,25-43.061C11.5-43.061,1.864-33.836,1.864-21S11.5,1.063,25,1.063ZM25-9.7C18.607-9.7,13.911-14.461,13.911-21S18.607-32.293,25-32.293,36.02-27.571,36.02-21,31.393-9.7,25-9.7ZM74.312-33.358a13.468,13.468,0,0,0-10.2,4.3L62.58-32.4H54.751V0h11.16V-17.3c0-4.124,2-6.554,5.482-6.554,2.809,0,4.225,1.871,4.225,5.642V0h11.16V-19.756c0-8.255-4.942-13.6-12.466-13.6Zm68.544,16.851c0-9.5-7.231-16.954-17.675-16.954-10.169,0-17.6,7.3-17.6,17.237,0,9.9,7.489,17.287,17.6,17.287,8.129,0,14.683-4.62,16.963-12.014H131.039a6.505,6.505,0,0,1-5.858,3.038c-3.524,0-5.884-1.922-6.614-5.638h24.058a20.53,20.53,0,0,0,.23-2.954Zm-17.675-8.21a6.511,6.511,0,0,1,6.681,4.985h-13.1A6.272,6.272,0,0,1,125.181-24.717ZM161.929,1.062c8.611,0,14.326-4.431,14.326-11.2,0-8.216-6.805-9.28-11.923-10.189-3.078-.549-5.556-.978-5.556-2.822,0-1.5,1.2-2.387,2.991-2.387,2.022,0,3.413.962,3.413,3.031H175.63c-.127-6.565-5.474-10.954-13.725-10.954-8.3,0-13.836,4.193-13.836,10.687,0,7.858,6.66,9.374,11.684,10.189,3.113.515,5.566,1.048,5.566,2.917,0,1.675-1.547,2.507-3.18,2.507-2.116,0-3.766-1.091-3.766-3.46H147.631c.1,7.02,5.469,11.684,14.3,11.684ZM200.238-9.775a3.437,3.437,0,0,1-3.755-3.72V-23.806h7.858V-32.4H196.2v-9.473h-2.293L179.393-26.414v2.609h5.93V-11.58c0,7.2,4.355,11.58,11.52,11.58h7.678V-9.775ZM19.54,64.062c9.124,0,16.047-5.929,17.309-14.728H25.883a6.53,6.53,0,0,1-6.343,4.727c-3.887,0-6.713-3.049-6.713-7.271s2.791-7.2,6.713-7.2a6.577,6.577,0,0,1,6.319,4.358H36.73c-1.22-8.618-8.049-14.359-17.155-14.359C9.115,29.588,1.65,36.73,1.65,46.756s7.5,17.305,17.891,17.305Zm49.8-33.5L68.2,33.071a15.371,15.371,0,0,0-9.9-3.482c-9.907,0-16.989,7.142-16.989,17.176,0,10.069,7.082,17.3,16.989,17.3a15.345,15.345,0,0,0,9.776-3.388l.956,2.291h8.627v-32.4Zm-9.55,23.615a7.124,7.124,0,0,1-7.253-7.39,7.254,7.254,0,1,1,14.506,0A7.124,7.124,0,0,1,59.791,54.181Zm44.542-23.735c-3.856,0-6.64,1.107-8.924,3.75l-1.741-3.6H86.191V63h11.16V46.524c0-4.133,1.655-5.866,5.606-5.866h4.333V30.446Zm26.82,0c-3.856,0-6.64,1.107-8.924,3.75l-1.741-3.6h-7.477V63h11.16V46.524c0-4.133,1.655-5.866,5.606-5.866h4.333V30.446Zm33.766-13.371H153.54l-3.4,9.935h8.183Zm7.757,29.419c0-9.5-7.231-16.954-17.675-16.954-10.169,0-17.6,7.3-17.6,17.237,0,9.9,7.489,17.287,17.6,17.287,8.129,0,14.683-4.62,16.963-12.014H160.859A6.505,6.505,0,0,1,155,55.087c-3.524,0-5.884-1.922-6.614-5.638h24.058a20.53,20.53,0,0,0,.23-2.954ZM155,38.284a6.511,6.511,0,0,1,6.681,4.985h-13.1A6.272,6.272,0,0,1,155,38.284Zm62.4-8.642a12.635,12.635,0,0,0-9.95,4.77,10.909,10.909,0,0,0-9.292-4.77,12.491,12.491,0,0,0-9.471,4.439L187.1,30.6h-7.847V63h11.16V45.235c0-4.029,1.658-6.193,4.684-6.193,2.336,0,3.573,1.735,3.573,5.017V63h10.869V45.235c0-4.08,1.573-6.193,4.64-6.193,2.371,0,3.617,1.633,3.617,5.017V63h11.16V42.679C228.953,35.049,224.34,29.642,217.4,29.642Zm53.077,16.851c0-9.5-7.231-16.954-17.675-16.954-10.169,0-17.6,7.3-17.6,17.237,0,9.9,7.489,17.287,17.6,17.287,8.129,0,14.683-4.62,16.963-12.014H258.659a6.505,6.505,0,0,1-5.858,3.038c-3.524,0-5.884-1.922-6.614-5.638h24.058a20.53,20.53,0,0,0,.23-2.954ZM252.8,38.283a6.511,6.511,0,0,1,6.681,4.985h-13.1A6.272,6.272,0,0,1,252.8,38.283Zm43.811-8.641a13.468,13.468,0,0,0-10.2,4.3L284.88,30.6h-7.829V63h11.16V45.7c0-4.124,2-6.554,5.482-6.554,2.809,0,4.225,1.871,4.225,5.642V63h11.16V43.244c0-8.255-4.942-13.6-12.466-13.6Zm37.966,23.584a3.437,3.437,0,0,1-3.755-3.72V39.194h7.858V30.6h-8.14V21.127h-2.293L313.733,36.586v2.609h5.93V51.42c0,7.2,4.355,11.58,11.52,11.58h7.678V53.225ZM22.595,92.589a15.19,15.19,0,0,0-8.051,2.233V81.9H3.511V126h8.258l1.052-2.405a15.044,15.044,0,0,0,9.773,3.467c9.976,0,17.023-7.168,17.023-17.237S32.571,92.588,22.595,92.588ZM21.1,117.179a7.373,7.373,0,0,1,0-14.744,7.373,7.373,0,0,1,0,14.744Zm41.407,9.883c10.529,0,18.166-7.253,18.166-17.262,0-10.043-7.636-17.261-18.166-17.261-10.564,0-18.166,7.218-18.166,17.261C44.344,119.809,51.946,127.062,62.509,127.062Zm0-10.025c-4.069,0-6.988-2.953-6.988-7.236s2.918-7.236,6.988-7.236S69.5,105.543,69.5,109.8c0,4.283-2.918,7.236-6.988,7.236Zm44.383-24.395a13.468,13.468,0,0,0-10.2,4.3L95.16,93.6H87.331V126h11.16V108.7c0-4.124,2-6.554,5.482-6.554,2.809,0,4.225,1.871,4.225,5.642V126h11.16V106.244C119.358,97.989,114.416,92.642,106.892,92.642Zm21.384,19.378h10.414V82.8H128.276ZM128.045,126h10.825V115.633H128.045Z" transform="translate(-1.65 43.061)" fill="#fff"/>
</svg>
