<svg xmlns="http://www.w3.org/2000/svg" width="209.654" height="82.402" viewBox="0 0 209.654 82.402">
  <g id="Group_53" data-name="Group 53" transform="translate(-22.21 -18.103)">
    <g id="Group_4" data-name="Group 4" transform="translate(22.21 18.103)">
      <g id="Group_1" data-name="Group 1" transform="translate(0 5.47)">
        <path id="Path_1" data-name="Path 1" d="M41.454,59.59H36.333V75.448H22.21V23.619H44.429c11.052,0,19.063,7.507,19.063,18.342A16.635,16.635,0,0,1,55.355,56.6l10.178,18.85H49.771ZM36.333,47.562h6.452c3.948,0,6.22-2.4,6.22-5.644s-2.272-5.61-6.22-5.61H36.333Z" transform="translate(-22.21 -23.619)" fill="#fff"/>
      </g>
      <g id="Group_3" data-name="Group 3" transform="translate(47.386)">
        <g id="Group_2" data-name="Group 2" transform="translate(0)">
          <path id="Path_2" data-name="Path 2" d="M69.994,58.117V35.4H83.708V57.521c0,4.2,2.258,6.673,5.922,6.673s5.88-2.514,5.88-6.673V35.4h13.712V58.117c0,11.139-7.832,18.4-19.591,18.4S69.994,69.256,69.994,58.117Z" transform="translate(-69.994 -17.682)" fill="#fff"/>
          <path id="Path_3" data-name="Path 3" d="M162.092,55.549c0,12.492-8.659,21.383-20.917,21.383a18.377,18.377,0,0,1-12.009-4.3l-1.292,2.985H117.727V18.1h13.555V36.936a18.531,18.531,0,0,1,9.893-2.772C153.433,34.164,162.092,43.057,162.092,55.549Zm-13.84,0a8.915,8.915,0,1,0-17.823,0,8.914,8.914,0,1,0,17.823,0Z" transform="translate(-69.808 -18.103)" fill="#fff"/>
          <path id="Path_4" data-name="Path 4" d="M215.614,75.628l-9.97-17v17H191.931V18.1h13.713v33.07l9.483-15.75h15.4L218.117,54.585l13.662,21.042Z" transform="translate(-69.574 -18.103)" fill="#fff"/>
          <rect id="Rectangle_1" data-name="Rectangle 1" width="13.712" height="37.436" transform="translate(99.971 0)" fill="#ffffff"/>
          <rect id="Rectangle_2" data-name="Rectangle 2" width="13.717" height="13.717" transform="translate(99.979 43.8)" fill="#444DFA"/>
        </g>
      </g>
    </g>
    <g id="Group_5" data-name="Group 5" transform="translate(118.342 84.231)">
      <path id="Path_5" data-name="Path 5" d="M128.1,86.83v9.935h-1.045l-.14-1.778a4.983,4.983,0,0,1-4.1,1.988,5.178,5.178,0,0,1,0-10.356,4.972,4.972,0,0,1,4.108,2l.166-1.793ZM126.823,91.8a3.82,3.82,0,0,0-3.913-3.966,3.966,3.966,0,0,0,0,7.931A3.82,3.82,0,0,0,126.823,91.8Z" transform="translate(-117.701 -84.237)" fill="#fff"/>
      <path id="Path_6" data-name="Path 6" d="M140.624,86.83v8.523c0,3.207-1.826,5.158-4.817,5.158a4.43,4.43,0,0,1-4.609-3.269h1.252a3.37,3.37,0,0,0,3.358,2.12c2.167,0,3.592-1.441,3.592-3.856v-.822a4.864,4.864,0,0,1-3.832,1.751,4.908,4.908,0,1,1,4-7.819l.2-1.787Zm-1.239,4.7A3.592,3.592,0,0,0,135.7,87.82a3.708,3.708,0,1,0,0,7.417A3.582,3.582,0,0,0,139.385,91.535Z" transform="translate(-117.809 -84.237)" fill="#fff"/>
      <path id="Path_7" data-name="Path 7" d="M153.2,92.268h-8.735a3.835,3.835,0,0,0,7.159,1.532h1.321a4.949,4.949,0,0,1-4.687,3.176,5.18,5.18,0,0,1,0-10.356,4.927,4.927,0,0,1,4.967,5.184C153.227,91.956,153.214,92.115,153.2,92.268Zm-8.709-1.161h7.492a3.655,3.655,0,0,0-3.725-3.3A3.692,3.692,0,0,0,144.492,91.106Z" transform="translate(-117.914 -84.237)" fill="#fff"/>
      <path id="Path_8" data-name="Path 8" d="M164.447,90.838v5.928H163.2V91.121c0-2.128-1.057-3.353-2.914-3.353a3.345,3.345,0,0,0-3.25,3.46v5.537h-1.251V86.83h.9l.249,1.755a4.206,4.206,0,0,1,3.658-1.965C162.964,86.62,164.447,88.367,164.447,90.838Z" transform="translate(-118.018 -84.237)" fill="#fff"/>
      <path id="Path_9" data-name="Path 9" d="M166.852,91.8a5.044,5.044,0,0,1,5.143-5.178,4.814,4.814,0,0,1,4.765,3.426h-1.245a3.757,3.757,0,0,0-3.52-2.213,3.967,3.967,0,0,0,0,7.931,3.748,3.748,0,0,0,3.518-2.259h1.269a4.865,4.865,0,0,1-4.788,3.471A5.053,5.053,0,0,1,166.852,91.8Z" transform="translate(-118.111 -84.237)" fill="#fff"/>
      <path id="Path_10" data-name="Path 10" d="M188.325,92.268h-8.735a3.835,3.835,0,0,0,7.159,1.532h1.321a4.951,4.951,0,0,1-4.688,3.176,5.18,5.18,0,0,1,0-10.356,4.928,4.928,0,0,1,4.968,5.184C188.351,91.956,188.337,92.115,188.325,92.268Zm-8.709-1.161h7.491a3.654,3.654,0,0,0-3.725-3.3A3.691,3.691,0,0,0,179.616,91.106Z" transform="translate(-118.207 -84.237)" fill="#fff"/>
      <path id="Path_11" data-name="Path 11" d="M203.965,92.762a4.292,4.292,0,0,1-4.613,4.271,4.234,4.234,0,0,1-4.511-4.25h3.141a1.361,1.361,0,0,0,1.377,1.436,1.481,1.481,0,1,0-.137-2.959h-1.961v-.681l1.993-3.276h-4.107V84.513h8.4v.561l-2.455,3.932A3.7,3.7,0,0,1,203.965,92.762Z" transform="translate(-118.344 -84.219)" fill="#fff"/>
      <path id="Path_12" data-name="Path 12" d="M215.106,92.5c0,2.682-1.979,4.532-4.849,4.532-2.888,0-4.872-1.846-4.872-4.516a7.973,7.973,0,0,1,1.4-4.213l2.249-3.791h3.534c-.806,1.35-1.62,2.693-2.427,4.043a5.289,5.289,0,0,1,.809-.06A3.9,3.9,0,0,1,215.106,92.5Zm-3.15,0a1.71,1.71,0,1,0-1.711,1.721A1.647,1.647,0,0,0,211.956,92.5Z" transform="translate(-118.432 -84.219)" fill="#fff"/>
      <path id="Path_13" data-name="Path 13" d="M216.27,90.642c0-3.919,2.094-6.425,5.357-6.425s5.356,2.506,5.356,6.425-2.1,6.427-5.356,6.427S216.27,94.551,216.27,90.642Zm7.358.011c0-2.254-.722-3.521-2-3.521s-2,1.256-2,3.51.713,3.511,2,3.511S223.628,92.907,223.628,90.653Z" transform="translate(-118.523 -84.217)" fill="#fff"/>
    </g>
    <rect id="Rectangle_3" data-name="Rectangle 3" width="3.072" height="3.072" transform="translate(228.793 84.728)" fill="#444DFA"/>
  </g>
</svg>
